<svg xmlns="http://www.w3.org/2000/svg" width="24" height="25" viewBox="0 0 24 25" fill="none">
  <mask id="mask0_65_4696" style="mask-type:alpha" maskUnits="userSpaceOnUse" x="0" y="0" width="24" height="25">
    <rect y="0.778198" width="24" height="24" fill="#D9D9D9"/>
  </mask>
  <g mask="url(#mask0_65_4696)">
    <path d="M6 21.7782C5.4359 21.7782 4.96154 21.5859 4.57692 21.2013C4.19231 20.8167 4 20.3423 4 19.7782V18.5859C4 18.3538 4.0766 18.1612 4.2298 18.008C4.383 17.8548 4.57563 17.7782 4.80768 17.7782H7V4.55129C7 4.46025 7.03397 4.40031 7.10192 4.37146C7.16987 4.34263 7.2391 4.35065 7.3096 4.39551L8.05385 4.88974C8.1282 4.93845 8.19999 4.96281 8.26923 4.96281C8.33846 4.96281 8.41025 4.93845 8.4846 4.88974L9.36152 4.32051C9.43589 4.2718 9.50769 4.24744 9.57692 4.24744C9.64616 4.24744 9.71795 4.2718 9.7923 4.32051L10.6692 4.88974C10.7436 4.93845 10.8154 4.96281 10.8846 4.96281C10.9538 4.96281 11.0256 4.93845 11.1 4.88974L11.9769 4.32051C12.0513 4.2718 12.1231 4.24744 12.1923 4.24744C12.2615 4.24744 12.3333 4.2718 12.4077 4.32051L13.2846 4.88974C13.359 4.93845 13.4308 4.96281 13.5 4.96281C13.5692 4.96281 13.641 4.93845 13.7154 4.88974L14.5923 4.32051C14.6667 4.2718 14.7385 4.24744 14.8077 4.24744C14.8769 4.24744 14.9487 4.2718 15.0231 4.32051L15.9 4.88974C15.9744 4.93845 16.0462 4.96281 16.1154 4.96281C16.1846 4.96281 16.2564 4.93845 16.3308 4.88974L17.2077 4.32051C17.282 4.2718 17.3538 4.24744 17.4231 4.24744C17.4923 4.24744 17.5641 4.2718 17.6385 4.32051L18.5154 4.88974C18.5898 4.93845 18.6615 4.96281 18.7308 4.96281C18.8 4.96281 18.8718 4.93845 18.9461 4.88974L19.6904 4.39551C19.7609 4.35065 19.8301 4.34263 19.8981 4.37146C19.966 4.40031 20 4.46025 20 4.55129V19.7782C20 20.3423 19.8077 20.8167 19.4231 21.2013C19.0385 21.5859 18.5641 21.7782 18 21.7782H6ZM18 20.7782C18.2833 20.7782 18.5208 20.6824 18.7125 20.4907C18.9042 20.299 19 20.0615 19 19.7782V5.77821H8V17.7782H16.1923C16.4243 17.7782 16.617 17.8548 16.7702 18.008C16.9234 18.1612 17 18.3538 17 18.5859V19.7782C17 20.0615 17.0958 20.299 17.2875 20.4907C17.4792 20.6824 17.7167 20.7782 18 20.7782ZM9.88462 8.27821H14.2308C14.3731 8.27821 14.492 8.32597 14.5875 8.42149C14.683 8.51699 14.7308 8.6359 14.7308 8.77821C14.7308 8.92053 14.683 9.03944 14.5875 9.13494C14.492 9.23045 14.3731 9.27821 14.2308 9.27821H9.88462C9.74231 9.27821 9.62339 9.23045 9.52787 9.13494C9.43237 9.03944 9.38462 8.92053 9.38462 8.77821C9.38462 8.6359 9.43237 8.51699 9.52787 8.42149C9.62339 8.32597 9.74231 8.27821 9.88462 8.27821ZM9.88462 11.2782H14.2308C14.3731 11.2782 14.492 11.326 14.5875 11.4215C14.683 11.517 14.7308 11.6359 14.7308 11.7782C14.7308 11.9205 14.683 12.0394 14.5875 12.1349C14.492 12.2305 14.3731 12.2782 14.2308 12.2782H9.88462C9.74231 12.2782 9.62339 12.2305 9.52787 12.1349C9.43237 12.0394 9.38462 11.9205 9.38462 11.7782C9.38462 11.6359 9.43237 11.517 9.52787 11.4215C9.62339 11.326 9.74231 11.2782 9.88462 11.2782ZM16.8846 9.54744C16.6782 9.54744 16.4984 9.47084 16.3452 9.31764C16.192 9.16444 16.1154 8.98463 16.1154 8.77821C16.1154 8.5718 16.192 8.39199 16.3452 8.23879C16.4984 8.08559 16.6782 8.00899 16.8846 8.00899C17.091 8.00899 17.2708 8.08559 17.424 8.23879C17.5772 8.39199 17.6538 8.5718 17.6538 8.77821C17.6538 8.98463 17.5772 9.16444 17.424 9.31764C17.2708 9.47084 17.091 9.54744 16.8846 9.54744ZM16.8846 12.5474C16.6782 12.5474 16.4984 12.4708 16.3452 12.3176C16.192 12.1644 16.1154 11.9846 16.1154 11.7782C16.1154 11.5718 16.192 11.392 16.3452 11.2388C16.4984 11.0856 16.6782 11.009 16.8846 11.009C17.091 11.009 17.2708 11.0856 17.424 11.2388C17.5772 11.392 17.6538 11.5718 17.6538 11.7782C17.6538 11.9846 17.5772 12.1644 17.424 12.3176C17.2708 12.4708 17.091 12.5474 16.8846 12.5474ZM6 20.7782H16V18.7782H5V19.7782C5 20.0615 5.09583 20.299 5.2875 20.4907C5.47917 20.6824 5.71667 20.7782 6 20.7782Z" fill="currentColor"/>
  </g>
</svg>