<svg xmlns="http://www.w3.org/2000/svg" width="24" height="24" viewBox="0 0 24 24" fill="none">
  <mask id="mask0_2098_418" style="mask-type:alpha" maskUnits="userSpaceOnUse" x="0" y="0" width="24" height="24">
    <rect width="24" height="24" fill="#D9D9D9"/>
  </mask>
  <g mask="url(#mask0_2098_418)">
    <path d="M19.0962 17.5654V19.25C19.0962 19.3526 19.1346 19.4423 19.2115 19.5192C19.2885 19.5962 19.3782 19.6346 19.4808 19.6346C19.5833 19.6346 19.6731 19.5962 19.75 19.5192C19.8269 19.4423 19.8654 19.3526 19.8654 19.25V16.6539C19.8654 16.5462 19.825 16.4519 19.7442 16.3712C19.6635 16.2904 19.5692 16.25 19.4615 16.25H16.8654C16.7628 16.25 16.6731 16.2885 16.5962 16.3654C16.5192 16.4423 16.4808 16.5321 16.4808 16.6346C16.4808 16.7372 16.5192 16.8269 16.5962 16.9039C16.6731 16.9808 16.7628 17.0192 16.8654 17.0192H18.55L16.2923 19.2769C16.2179 19.3513 16.1776 19.4391 16.1712 19.5404C16.1647 19.6417 16.2051 19.7359 16.2923 19.8231C16.3713 19.8974 16.4635 19.9346 16.5689 19.9346C16.6742 19.9346 16.7641 19.8974 16.8385 19.8231L19.0962 17.5654ZM5.61538 20C5.17114 20 4.79086 19.8418 4.47453 19.5255C4.15818 19.2091 4 18.8289 4 18.3846V5.61537C4 5.17114 4.15818 4.79086 4.47453 4.47453C4.79086 4.15818 5.17114 4 5.61538 4H18.3846C18.8289 4 19.2091 4.15818 19.5255 4.47453C19.8418 4.79086 20 5.17114 20 5.61537V10.7308C20 10.8724 19.952 10.9912 19.8561 11.087C19.7601 11.1829 19.6412 11.2308 19.4993 11.2308C19.3575 11.2308 19.2388 11.1829 19.1433 11.087C19.0478 10.9912 19 10.8724 19 10.7308V5.61537C19 5.46154 18.9359 5.32052 18.8077 5.1923C18.6795 5.0641 18.5385 5 18.3846 5H5.61538C5.46154 5 5.32052 5.0641 5.1923 5.1923C5.0641 5.32052 5 5.46154 5 5.61537V18.3846C5 18.5385 5.0641 18.6795 5.1923 18.8077C5.32052 18.9359 5.46154 19 5.61538 19H10.7308C10.8724 19 10.9912 19.048 11.087 19.144C11.1829 19.2399 11.2308 19.3588 11.2308 19.5007C11.2308 19.6425 11.1829 19.7612 11.087 19.8567C10.9912 19.9522 10.8724 20 10.7308 20H5.61538ZM5 19V5V11.3058V11.2308V19ZM7.5 15.7699C7.5 15.9118 7.54792 16.0305 7.64375 16.126C7.73958 16.2215 7.85833 16.2692 8 16.2692H10.9596C11.1013 16.2692 11.22 16.2213 11.3159 16.1253C11.4117 16.0293 11.4596 15.9104 11.4596 15.7686C11.4596 15.6267 11.4117 15.508 11.3159 15.4125C11.22 15.317 11.1013 15.2692 10.9596 15.2692H8C7.85833 15.2692 7.73958 15.3172 7.64375 15.4132C7.54792 15.5091 7.5 15.6281 7.5 15.7699ZM7.5 12.0007C7.5 12.1425 7.54792 12.2612 7.64375 12.3567C7.73958 12.4522 7.85833 12.5 8 12.5H14.4808C14.6224 12.5 14.7412 12.452 14.837 12.3561C14.9328 12.2601 14.9808 12.1412 14.9808 11.9993C14.9808 11.8575 14.9328 11.7388 14.837 11.6433C14.7412 11.5478 14.6224 11.5 14.4808 11.5H8C7.85833 11.5 7.73958 11.548 7.64375 11.644C7.54792 11.7399 7.5 11.8588 7.5 12.0007ZM7.5 8.23145C7.5 8.3733 7.54792 8.49198 7.64375 8.5875C7.73958 8.68302 7.85833 8.73078 8 8.73078H16C16.1417 8.73078 16.2604 8.68279 16.3562 8.58683C16.4521 8.49086 16.5 8.37195 16.5 8.2301C16.5 8.08823 16.4521 7.96954 16.3562 7.87403C16.2604 7.77853 16.1417 7.73078 16 7.73078H8C7.85833 7.73078 7.73958 7.77875 7.64375 7.8747C7.54792 7.97067 7.5 8.08958 7.5 8.23145ZM18 22.1154C16.8859 22.1154 15.9407 21.7273 15.1644 20.951C14.3881 20.1747 14 19.2295 14 18.1154C14 17.0013 14.3881 16.0561 15.1644 15.2798C15.9407 14.5035 16.8859 14.1154 18 14.1154C19.1141 14.1154 20.0593 14.5035 20.8356 15.2798C21.6119 16.0561 22 17.0013 22 18.1154C22 19.2295 21.6119 20.1747 20.8356 20.951C20.0593 21.7273 19.1141 22.1154 18 22.1154Z" fill="currentColor"/>
  </g>
</svg>