<svg width="24" height="25" viewBox="0 0 24 25" fill="none" xmlns="http://www.w3.org/2000/svg">
<g id="icon/outline/history_international">
<mask id="mask0_65_4615" style="mask-type:alpha" maskUnits="userSpaceOnUse" x="0" y="0" width="24" height="25">
<rect id="Bounding box" y="0.778198" width="24" height="24" fill="#D9D9D9"/>
</mask>
<g mask="url(#mask0_65_4615)">
<path id="Union" fill-rule="evenodd" clip-rule="evenodd" d="M8.49423 21.0676C9.58909 21.5413 10.7577 21.7782 12 21.7782C12.1923 21.7782 12.3885 21.774 12.5885 21.7657C12.7885 21.7574 12.9782 21.7385 13.1577 21.709C13.3 21.6885 13.4109 21.6295 13.4904 21.532C13.5699 21.4346 13.6096 21.3128 13.6096 21.1667C13.6096 21.0372 13.5628 20.9266 13.4692 20.8349C13.3756 20.7433 13.2641 20.7077 13.1346 20.7282C12.9551 20.7577 12.7692 20.7747 12.5769 20.7791C12.3846 20.7836 12.1923 20.7859 12 20.7859C11.4256 20.109 10.9449 19.3772 10.5577 18.5907C10.1705 17.8042 9.85769 16.982 9.61923 16.1243H12.8846C13.0269 16.1243 13.1458 16.0766 13.2414 15.9811C13.3369 15.8856 13.3846 15.7667 13.3846 15.6243C13.3846 15.482 13.3369 15.3631 13.2414 15.2676C13.1458 15.1721 13.0269 15.1243 12.8846 15.1243H9.38077C9.30513 14.7397 9.2516 14.3519 9.2202 13.9609C9.18878 13.5699 9.17308 13.1756 9.17308 12.7782C9.17308 12.3808 9.18878 11.9865 9.2202 11.5955C9.2516 11.2045 9.30513 10.8167 9.38077 10.432H14.6192C14.6949 10.8167 14.7484 11.2045 14.7798 11.5955C14.8112 11.9865 14.8269 12.3808 14.8269 12.7782C14.8269 12.9577 14.8237 13.1417 14.8173 13.3301C14.8109 13.5186 14.7994 13.7026 14.7827 13.882C14.7622 14.0205 14.8029 14.1404 14.9048 14.2417C15.0067 14.3429 15.1205 14.3936 15.2462 14.3936C15.3885 14.3936 15.5083 14.3487 15.6058 14.259C15.7032 14.1692 15.7622 14.0532 15.7827 13.9109C15.7994 13.7314 15.8109 13.5426 15.8173 13.3445C15.8237 13.1465 15.8269 12.9577 15.8269 12.7782C15.8269 12.3808 15.8112 11.9865 15.7798 11.5955C15.7484 11.2045 15.6949 10.8167 15.6192 10.432H19.6539C19.7757 10.8167 19.8638 11.2045 19.9183 11.5955C19.9728 11.9865 20 12.3808 20 12.7782C20 12.9577 19.9968 13.1397 19.9904 13.3243C19.984 13.509 19.9641 13.691 19.9308 13.8705C19.9103 14.009 19.9468 14.1308 20.0404 14.2359C20.134 14.341 20.2436 14.3936 20.3692 14.3936C20.5154 14.3936 20.6404 14.3497 20.7442 14.2618C20.8481 14.174 20.9103 14.059 20.9308 13.9166C20.9603 13.7372 20.9792 13.5474 20.9875 13.3474C20.9958 13.1474 21 12.9577 21 12.7782C21 11.5359 20.7631 10.3673 20.2894 9.27242C19.8157 8.17756 19.1737 7.22499 18.3635 6.41472C17.5532 5.60447 16.6006 4.96249 15.5058 4.48877C14.4109 4.01506 13.2423 3.7782 12 3.7782C10.7577 3.7782 9.58909 4.01506 8.49423 4.48877C7.39936 4.96249 6.44679 5.60447 5.63652 6.41472C4.82627 7.22499 4.18429 8.17756 3.71058 9.27242C3.23686 10.3673 3 11.5359 3 12.7782C3 14.0205 3.23686 15.1891 3.71058 16.284C4.18429 17.3788 4.82627 18.3314 5.63652 19.1417C6.44679 19.9519 7.39936 20.5939 8.49423 21.0676ZM8.38077 15.1243H4.34615C4.22435 14.7397 4.13621 14.3519 4.08173 13.9609C4.02724 13.5699 4 13.1756 4 12.7782C4 12.3808 4.02724 11.9865 4.08173 11.5955C4.13621 11.2045 4.22435 10.8167 4.34615 10.432H8.38077C8.30513 10.8167 8.2516 11.2045 8.2202 11.5955C8.18878 11.9865 8.17308 12.3808 8.17308 12.7782C8.17308 13.1756 8.18878 13.5699 8.2202 13.9609C8.2516 14.3519 8.30513 14.7397 8.38077 15.1243ZM9.43942 18.5041C9.79262 19.2689 10.2218 19.9923 10.7269 20.6743C9.41282 20.4641 8.22885 19.9554 7.175 19.1484C6.12115 18.3413 5.3141 17.3333 4.75385 16.1243H8.58845C8.80255 16.9461 9.08621 17.7394 9.43942 18.5041ZM8.58845 9.43205H4.75385C5.3141 8.21025 6.11794 7.19582 7.16537 6.38877C8.21281 5.58172 9.39999 5.07948 10.7269 4.88205C10.1833 5.55128 9.73813 6.26827 9.39135 7.033C9.04455 7.79775 8.77692 8.59743 8.58845 9.43205ZM14.3808 9.43205H9.61923C9.84488 8.57435 10.1577 7.75223 10.5577 6.9657C10.9577 6.17916 11.4385 5.44743 12 4.7705C12.5487 5.47307 13.0263 6.21121 13.4327 6.98492C13.8391 7.75864 14.1551 8.57435 14.3808 9.43205ZM19.2462 9.43205H15.4115C15.159 8.62306 14.8657 7.833 14.5317 7.06185C14.1978 6.2907 13.7782 5.5641 13.2731 4.88205C14.6 5.06666 15.7872 5.56571 16.8346 6.37917C17.8821 7.19262 18.6859 8.21025 19.2462 9.43205ZM19.866 22.6727C19.4948 22.8332 19.0974 22.9135 18.6737 22.9135C17.8952 22.9135 17.2171 22.6579 16.6394 22.1467C16.0618 21.6356 15.7278 20.9919 15.6376 20.2157C15.6238 20.111 15.659 20.0257 15.7431 19.9599C15.8272 19.8941 15.9273 19.8612 16.0435 19.8612C16.1536 19.8612 16.2522 19.8947 16.3394 19.9617C16.4265 20.0286 16.48 20.1156 16.4998 20.2227C16.5871 20.7558 16.8358 21.1953 17.2461 21.5413C17.6563 21.8873 18.1322 22.0603 18.6737 22.0603C19.2863 22.0603 19.806 21.8462 20.2327 21.4179C20.6594 20.9897 20.8727 20.4693 20.8727 19.8567C20.8727 19.244 20.6586 18.7244 20.2304 18.2977C19.8022 17.871 19.2818 17.6576 18.6691 17.6576H18.6163L18.7762 17.8175C18.8595 17.9008 18.9011 18.0011 18.9011 18.1185C18.9011 18.2358 18.8595 18.3373 18.7762 18.4229C18.6906 18.5055 18.5891 18.5467 18.4718 18.5463C18.3544 18.546 18.2544 18.5045 18.1718 18.4219L17.2791 17.5337C17.1958 17.4504 17.1542 17.3503 17.1542 17.2333C17.1542 17.1163 17.1958 17.0162 17.2791 16.9329L18.1718 16.0402C18.2575 15.9545 18.3597 15.9123 18.4786 15.9135C18.5974 15.9146 18.6997 15.958 18.7853 16.0437C18.8656 16.1293 18.9049 16.2308 18.9034 16.3481C18.9019 16.4655 18.861 16.5643 18.7808 16.6445L18.6208 16.8044H18.6691C19.0928 16.8044 19.4902 16.8847 19.8614 17.0452C20.2326 17.2057 20.5566 17.4237 20.8336 17.6991C21.1105 17.9745 21.3292 18.297 21.4897 18.6667C21.6502 19.0363 21.7305 19.433 21.7305 19.8567C21.7305 20.2803 21.6502 20.6778 21.4897 21.0489C21.3292 21.4201 21.1112 21.7434 20.8358 22.0188C20.5604 22.2942 20.2371 22.5122 19.866 22.6727Z" fill="currentColor"/>
</g>
</g>
</svg>
