<svg xmlns="http://www.w3.org/2000/svg" width="25" height="24" viewBox="0 0 25 24" fill="none">
  <mask id="mask0_2098_30" style="mask-type:alpha" maskUnits="userSpaceOnUse" x="0" y="0" width="25" height="24">
    <rect x="0.5" width="24" height="24" fill="#D9D9D9"/>
  </mask>
  <g mask="url(#mask0_2098_30)">
    <path d="M12.5 21C11.2577 21 10.0891 20.7631 8.99423 20.2894C7.89936 19.8157 6.94679 19.1737 6.13652 18.3634C5.32627 17.5532 4.68429 16.6006 4.21058 15.5057C3.73686 14.4109 3.5 13.2423 3.5 12C3.5 10.7577 3.73686 9.58906 4.21058 8.49419C4.68429 7.39933 5.32627 6.44676 6.13652 5.63649C6.94679 4.82624 7.89936 4.18426 8.99423 3.71054C10.0891 3.23683 11.2577 2.99997 12.5 2.99997C13.7423 2.99997 14.9109 3.23683 16.0058 3.71054C17.1006 4.18426 18.0532 4.82624 18.8635 5.63649C19.6737 6.44676 20.3157 7.39933 20.7894 8.49419C21.2631 9.58906 21.5 10.7577 21.5 12C21.5 12.1795 21.4958 12.3692 21.4875 12.5692C21.4792 12.7692 21.4603 12.9589 21.4308 13.1384C21.4103 13.2807 21.3481 13.3958 21.2442 13.4836C21.1404 13.5714 21.0154 13.6153 20.8692 13.6153C20.7436 13.6153 20.634 13.5628 20.5404 13.4577C20.4468 13.3525 20.4103 13.2307 20.4308 13.0923C20.4641 12.9128 20.484 12.7307 20.4904 12.5461C20.4968 12.3615 20.5 12.1795 20.5 12C20.5 11.6025 20.4728 11.2083 20.4183 10.8173C20.3638 10.4263 20.2757 10.0384 20.1539 9.65382H16.1192C16.1949 10.0384 16.2484 10.4263 16.2798 10.8173C16.3112 11.2083 16.3269 11.6025 16.3269 12C16.3269 12.1795 16.3237 12.3682 16.3173 12.5663C16.3109 12.7644 16.2994 12.9532 16.2827 13.1327C16.2622 13.275 16.2032 13.391 16.1058 13.4807C16.0083 13.5705 15.8885 13.6153 15.7462 13.6153C15.6205 13.6153 15.5067 13.5647 15.4048 13.4634C15.3029 13.3622 15.2622 13.2423 15.2827 13.1038C15.2994 12.9243 15.3109 12.7404 15.3173 12.5519C15.3237 12.3634 15.3269 12.1795 15.3269 12C15.3269 11.6025 15.3112 11.2083 15.2798 10.8173C15.2484 10.4263 15.1949 10.0384 15.1192 9.65382H9.88077C9.80512 10.0384 9.7516 10.4263 9.7202 10.8173C9.68878 11.2083 9.67308 11.6025 9.67308 12C9.67308 12.3974 9.68878 12.7916 9.7202 13.1827C9.7516 13.5737 9.80512 13.9615 9.88077 14.3461H13.3846C13.5269 14.3461 13.6458 14.3939 13.7414 14.4894C13.8369 14.5849 13.8846 14.7038 13.8846 14.8461C13.8846 14.9884 13.8369 15.1074 13.7414 15.2029C13.6458 15.2984 13.5269 15.3461 13.3846 15.3461H10.1192C10.3577 16.2038 10.6705 17.0259 11.0577 17.8125C11.4449 18.599 11.9256 19.3307 12.5 20.0077C12.6923 20.0077 12.8846 20.0054 13.0769 20.0009C13.2692 19.9964 13.4551 19.9795 13.6346 19.95C13.7641 19.9295 13.8756 19.965 13.9692 20.0567C14.0628 20.1484 14.1096 20.2589 14.1096 20.3884C14.1096 20.5346 14.0699 20.6564 13.9904 20.7538C13.9109 20.8513 13.8 20.9102 13.6577 20.9307C13.4782 20.9602 13.2885 20.9791 13.0885 20.9875C12.8885 20.9958 12.6923 21 12.5 21ZM4.84615 14.3461H8.88077C8.80512 13.9615 8.7516 13.5737 8.7202 13.1827C8.68878 12.7916 8.67308 12.3974 8.67308 12C8.67308 11.6025 8.68878 11.2083 8.7202 10.8173C8.7516 10.4263 8.80512 10.0384 8.88077 9.65382H4.84615C4.72435 10.0384 4.63621 10.4263 4.58173 10.8173C4.52724 11.2083 4.5 11.6025 4.5 12C4.5 12.3974 4.52724 12.7916 4.58173 13.1827C4.63621 13.5737 4.72435 13.9615 4.84615 14.3461ZM11.2269 19.8961C10.7218 19.2141 10.2926 18.4907 9.93942 17.7259C9.58621 16.9612 9.30255 16.1679 9.08845 15.3461H5.25385C5.8141 16.5551 6.62115 17.5631 7.675 18.3702C8.72885 19.1772 9.91282 19.6859 11.2269 19.8961ZM5.25385 8.65382H9.08845C9.27692 7.8192 9.54455 7.01952 9.89135 6.25477C10.2381 5.49004 10.6833 4.77305 11.2269 4.10382C9.89999 4.30125 8.71281 4.80349 7.66537 5.61054C6.61794 6.41759 5.8141 7.43202 5.25385 8.65382ZM10.1192 8.65382H14.8808C14.6551 7.79612 14.3391 6.98041 13.9327 6.20669C13.5263 5.43298 13.0487 4.69484 12.5 3.99227C11.9385 4.6692 11.4577 5.40094 11.0577 6.18747C10.6577 6.974 10.3449 7.79612 10.1192 8.65382ZM15.9115 8.65382H19.7462C19.1859 7.43202 18.3821 6.41439 17.3346 5.60094C16.2872 4.78748 15.1 4.28844 13.7731 4.10382C14.2782 4.78587 14.6978 5.51247 15.0317 6.28362C15.3657 7.05477 15.659 7.84484 15.9115 8.65382Z" fill="currentColor"/>
    <path fill-rule="evenodd" clip-rule="evenodd" d="M15.2969 15.7812C15.2969 15.5051 15.5207 15.2812 15.7969 15.2812H20.0625C20.3386 15.2812 20.5625 15.5051 20.5625 15.7812C20.5625 16.0574 20.3386 16.2812 20.0625 16.2812H15.7969C15.5207 16.2812 15.2969 16.0574 15.2969 15.7812Z" fill="currentColor"/>
    <path fill-rule="evenodd" clip-rule="evenodd" d="M15.4219 18.2187C15.4219 17.9426 15.6457 17.7187 15.9219 17.7187H18.2188C18.4949 17.7187 18.7188 17.9426 18.7188 18.2187C18.7188 18.4949 18.4949 18.7187 18.2188 18.7187H15.9219C15.6457 18.7187 15.4219 18.4949 15.4219 18.2187Z" fill="currentColor"/>
  </g>
</svg>