<svg xmlns="http://www.w3.org/2000/svg" width="25" height="24" viewBox="0 0 25 24" fill="none">
  <mask id="mask0_2098_731" style="mask-type:alpha" maskUnits="userSpaceOnUse" x="0" y="0" width="25" height="24">
    <rect x="0.5" width="24" height="24" fill="#D9D9D9"/>
  </mask>
  <g mask="url(#mask0_2098_731)">
    <path d="M7 16.5V9.5C7 9.35833 7.04797 9.23958 7.14392 9.14375C7.23989 9.04792 7.35881 9 7.50067 9C7.64252 9 7.76121 9.04792 7.85672 9.14375C7.95224 9.23958 8 9.35833 8 9.5V16.5C8 16.6417 7.95202 16.7604 7.85605 16.8563C7.76008 16.9521 7.64117 17 7.49932 17C7.35746 17 7.23877 16.9521 7.14325 16.8563C7.04775 16.7604 7 16.6417 7 16.5ZM12 16.5V9.5C12 9.35833 12.048 9.23958 12.1439 9.14375C12.2399 9.04792 12.3588 9 12.5007 9C12.6425 9 12.7612 9.04792 12.8567 9.14375C12.9522 9.23958 13 9.35833 13 9.5V16.5C13 16.6417 12.952 16.7604 12.856 16.8563C12.7601 16.9521 12.6412 17 12.4993 17C12.3575 17 12.2388 16.9521 12.1433 16.8563C12.0478 16.7604 12 16.6417 12 16.5ZM4.53845 20C4.39678 20 4.27803 19.952 4.1822 19.8561C4.08636 19.7601 4.03845 19.6412 4.03845 19.4993C4.03845 19.3575 4.08636 19.2388 4.1822 19.1433C4.27803 19.0478 4.39678 19 4.53845 19H20.4615C20.6032 19 20.722 19.048 20.8178 19.144C20.9136 19.2399 20.9615 19.3588 20.9615 19.5007C20.9615 19.6425 20.9136 19.7612 20.8178 19.8567C20.722 19.9522 20.6032 20 20.4615 20H4.53845ZM17 16.5V9.5C17 9.35833 17.048 9.23958 17.1439 9.14375C17.2399 9.04792 17.3588 9 17.5007 9C17.6425 9 17.7612 9.04792 17.8567 9.14375C17.9522 9.23958 18 9.35833 18 9.5V16.5C18 16.6417 17.952 16.7604 17.8561 16.8563C17.7601 16.9521 17.6412 17 17.4993 17C17.3575 17 17.2388 16.9521 17.1433 16.8563C17.0478 16.7604 17 16.6417 17 16.5ZM20.5385 7H4.41922C4.31346 7 4.22355 6.96323 4.1495 6.88968C4.07547 6.81613 4.03845 6.72682 4.03845 6.62175V6.39058C4.03845 6.31353 4.05784 6.24741 4.09662 6.19223C4.13541 6.13703 4.18653 6.09218 4.25 6.0577L11.8115 2.45C12.0275 2.3423 12.2562 2.28845 12.4975 2.28845C12.7389 2.28845 12.9692 2.3423 13.1885 2.45L20.7192 6.0327C20.7872 6.07757 20.8445 6.13205 20.8913 6.19615C20.9381 6.26025 20.9615 6.33313 20.9615 6.4148V6.58185C20.9615 6.70805 20.9234 6.80929 20.8471 6.88558C20.7708 6.96186 20.668 7 20.5385 7ZM6.68077 6H18.3192L12.7692 3.36538C12.6795 3.32693 12.5897 3.3077 12.5 3.3077C12.4102 3.3077 12.3205 3.32693 12.2308 3.36538L6.68077 6Z" fill="currentColor"/>
  </g>
</svg>