<svg xmlns="http://www.w3.org/2000/svg" width="25" height="24" viewBox="0 0 25 24" fill="none">
  <mask id="mask0_2098_1545" style="mask-type:alpha" maskUnits="userSpaceOnUse" x="0" y="0" width="25" height="24">
    <rect x="0.5" width="24" height="24" fill="#D9D9D9"/>
  </mask>
  <g mask="url(#mask0_2098_1545)">
    <path fill-rule="evenodd" clip-rule="evenodd" d="M7.23558 20.5029C8.80418 21.501 10.559 22 12.5 22C14.6192 22 16.5256 21.4006 18.2192 20.2019C19.9128 19.0032 21.1199 17.4244 21.8404 15.4654C21.9007 15.2897 21.9106 15.1285 21.8702 14.9817C21.8298 14.8349 21.7301 14.741 21.5711 14.7C21.3955 14.659 21.2478 14.6897 21.1279 14.7923C21.008 14.8949 20.9179 15.0301 20.8577 15.1981C20.1936 16.9327 19.1032 18.3333 17.5865 19.4C16.0699 20.4667 14.3743 21 12.5 21C10.7179 21 9.09904 20.5176 7.64327 19.5529C6.18751 18.5881 5.07308 17.2756 4.3 15.6154H7.36538C7.50769 15.6154 7.6266 15.5676 7.7221 15.4721C7.81762 15.3766 7.86538 15.2577 7.86538 15.1154C7.86538 14.9731 7.81762 14.8542 7.7221 14.7586C7.6266 14.6631 7.50769 14.6154 7.36538 14.6154H3.30768C3.07563 14.6154 2.883 14.692 2.7298 14.8452C2.5766 14.9984 2.5 15.191 2.5 15.4231V19.5C2.5 19.6423 2.54776 19.7612 2.64328 19.8567C2.73878 19.9522 2.85768 20 2.99998 20C3.14229 20 3.26121 19.9522 3.35672 19.8567C3.45224 19.7612 3.5 19.6423 3.5 19.5V16.2808C4.4218 18.0974 5.66699 19.5048 7.23558 20.5029ZM2.72402 10.8221C2.80287 10.9407 2.91346 11 3.05578 11C3.21474 11 3.34391 10.9458 3.44328 10.8375C3.54263 10.7292 3.61282 10.5955 3.65385 10.4365C3.8 9.75319 3.98526 9.12434 4.20962 8.54999C4.43397 7.97564 4.74551 7.40129 5.14422 6.82692C5.23782 6.68462 5.28782 6.54327 5.29422 6.40287C5.30064 6.26249 5.24487 6.13332 5.12692 6.01537C5.01283 5.90127 4.88654 5.86088 4.74808 5.89422C4.60961 5.92755 4.49551 6.01153 4.40578 6.14614C3.93013 6.82563 3.55256 7.50415 3.27307 8.18172C2.99359 8.85928 2.78333 9.60255 2.6423 10.4115C2.61795 10.5667 2.64519 10.7035 2.72402 10.8221ZM6.93365 4.79807C7.07403 4.80192 7.21346 4.75704 7.35192 4.66344C7.92629 4.26473 8.49328 3.94486 9.05288 3.70384C9.61249 3.46281 10.2385 3.28396 10.9308 3.16729C11.1064 3.13909 11.2452 3.07628 11.3471 2.97884C11.449 2.88141 11.5 2.75128 11.5 2.58844C11.5 2.44614 11.443 2.33333 11.3288 2.24999C11.2147 2.16666 11.0782 2.13717 10.9192 2.16152C10.0974 2.2987 9.34967 2.508 8.67595 2.78942C8.00223 3.07082 7.32756 3.44742 6.65193 3.91922C6.53398 4.0128 6.4625 4.12466 6.4375 4.25479C6.4125 4.38493 6.44872 4.50512 6.54615 4.61537C6.6641 4.73332 6.79327 4.79422 6.93365 4.79807ZM17.5654 4.58844C17.7423 4.63333 17.9128 4.65641 18.0769 4.65769C18.2026 4.63589 18.2852 4.58557 18.325 4.50672C18.3647 4.42788 18.3731 4.3359 18.35 4.23077C17.8705 3.81282 17.3673 3.4641 16.8404 3.18462C16.3135 2.90512 15.7026 2.69486 15.0077 2.55384C14.7641 2.43718 14.5385 2.37051 14.3308 2.35384C14.1231 2.33718 13.9269 2.34999 13.7423 2.39229C13.6769 2.47049 13.649 2.55447 13.6587 2.64422C13.6683 2.73397 13.7244 2.81794 13.8269 2.89614C14.391 3.05511 14.9324 3.25479 15.451 3.49517C15.9695 3.73557 16.4878 4.03013 17.0057 4.37884C17.2019 4.47371 17.3885 4.54358 17.5654 4.58844ZM21.5308 10.8375C21.6218 10.9458 21.7487 11 21.9116 11C22.0667 11 22.1827 10.9439 22.2596 10.8317C22.3365 10.7195 22.3628 10.5795 22.3385 10.4115C22.2013 9.58589 21.9897 8.83204 21.7038 8.14999C21.4179 7.46794 21.0244 6.79359 20.5231 6.12692C20.4295 6.00897 20.3176 5.93654 20.1875 5.90962C20.0574 5.88269 19.9372 5.92435 19.8269 6.03462C19.709 6.15255 19.6513 6.28172 19.6539 6.42212C19.6564 6.5625 19.7045 6.69551 19.7981 6.82114C20.2353 7.37371 20.567 7.93621 20.7933 8.50864C21.0196 9.08108 21.1994 9.71537 21.3327 10.4115C21.3737 10.5872 21.4397 10.7292 21.5308 10.8375ZM9.58005 15.3437V9.05374C9.12005 9.50374 8.58005 9.82374 7.99005 10.0837V9.24374C8.66005 8.97374 9.17005 8.62374 9.69005 8.11374H10.4801V15.3437H9.58005ZM15.5908 15.3437L14.1408 13.2637L12.6908 15.3437H11.7208L13.6708 12.7537L11.8308 10.2937H12.9308L14.2508 12.2137L15.6008 10.2937H16.5708L14.7408 12.7537L16.7008 15.3437H15.5908Z" fill="currentColor"/>
  </g>
</svg>