<svg xmlns="http://www.w3.org/2000/svg" width="24" height="24" viewBox="0 0 24 24" fill="none">
  <mask id="mask0_2098_739" style="mask-type:alpha" maskUnits="userSpaceOnUse" x="0" y="0" width="24" height="24">
    <rect width="24" height="24" fill="#D9D9D9"/>
  </mask>
  <g mask="url(#mask0_2098_739)">
    <path d="M13.2923 12L9.04615 7.75386C8.95256 7.66028 8.90256 7.54554 8.89615 7.40964C8.88973 7.27374 8.93973 7.15258 9.04615 7.04616C9.15256 6.93974 9.27051 6.88654 9.4 6.88654C9.52948 6.88654 9.64743 6.93974 9.75385 7.04616L14.1423 11.4346C14.2295 11.5218 14.2907 11.6109 14.326 11.7019C14.3612 11.793 14.3788 11.8923 14.3788 12C14.3788 12.1077 14.3612 12.2071 14.326 12.2981C14.2907 12.3891 14.2295 12.4782 14.1423 12.5654L9.75385 16.9539C9.66026 17.0474 9.54552 17.0974 9.40962 17.1039C9.27372 17.1103 9.15256 17.0603 9.04615 16.9539C8.93973 16.8474 8.88652 16.7295 8.88652 16.6C8.88652 16.4705 8.93973 16.3526 9.04615 16.2462L13.2923 12Z" fill="currentColor"/>
  </g>
</svg>