<svg xmlns="http://www.w3.org/2000/svg" width="24" height="24" viewBox="0 0 24 24" fill="none">
  <mask id="mask0_2098_1895" style="mask-type:alpha" maskUnits="userSpaceOnUse" x="0" y="0" width="24" height="24">
    <rect width="24" height="24" fill="#D9D9D9"/>
  </mask>
  <g mask="url(#mask0_2098_1895)">
    <path d="M11.9378 17.6154C12.2588 17.6154 12.5257 17.5105 12.7385 17.3006C12.9513 17.0908 13.0577 16.8254 13.0577 16.5045C13.0577 16.1835 12.9528 15.9167 12.7429 15.7038C12.5331 15.491 12.2677 15.3846 11.9468 15.3846C11.6259 15.3846 11.359 15.4895 11.1462 15.6994C10.9334 15.9092 10.8269 16.1746 10.8269 16.4955C10.8269 16.8165 10.9319 17.0833 11.1417 17.2961C11.3515 17.509 11.6169 17.6154 11.9378 17.6154ZM11.9378 13.1154C12.2588 13.1154 12.5257 13.0105 12.7385 12.8006C12.9513 12.5908 13.0577 12.3254 13.0577 12.0045C13.0577 11.6835 12.9528 11.4167 12.7429 11.2038C12.5331 10.991 12.2677 10.8846 11.9468 10.8846C11.6259 10.8846 11.359 10.9895 11.1462 11.1994C10.9334 11.4092 10.8269 11.6746 10.8269 11.9955C10.8269 12.3165 10.9319 12.5833 11.1417 12.7961C11.3515 13.009 11.6169 13.1154 11.9378 13.1154ZM11.9378 8.61537C12.2588 8.61537 12.5257 8.51046 12.7385 8.30063C12.9513 8.09079 13.0577 7.82541 13.0577 7.50448C13.0577 7.18354 12.9528 6.91667 12.7429 6.70385C12.5331 6.49103 12.2677 6.38462 11.9468 6.38462C11.6259 6.38462 11.359 6.48954 11.1462 6.69937C10.9334 6.90921 10.8269 7.17459 10.8269 7.49552C10.8269 7.81646 10.9319 8.08333 11.1417 8.29615C11.3515 8.50897 11.6169 8.61537 11.9378 8.61537ZM7.94232 15.2308V12.8885C7.42566 12.7692 7.01476 12.5567 6.70962 12.251C6.40449 11.9452 6.19823 11.5956 6.09085 11.2023C6.07131 11.0392 6.11155 10.9006 6.21155 10.7865C6.31155 10.6724 6.44552 10.6154 6.61347 10.6154H7.94232V8.27307C7.42566 8.15384 7.01476 7.94134 6.70962 7.63557C6.40449 7.32981 6.19823 6.98026 6.09085 6.58692C6.07131 6.42384 6.11155 6.28525 6.21155 6.17115C6.31155 6.05705 6.44552 6 6.61347 6H7.94232V5.07693C7.94232 4.73206 8.04024 4.46635 8.23607 4.2798C8.43191 4.09327 8.66732 4 8.94232 4H14.9423C15.2173 4 15.4527 4.09327 15.6486 4.2798C15.8444 4.46635 15.9423 4.73206 15.9423 5.07693V6H17.3866C17.5545 6 17.6853 6.06026 17.7789 6.18078C17.8725 6.30128 17.9085 6.44119 17.887 6.60052C17.7688 6.98479 17.5443 7.32981 17.2135 7.63557C16.8827 7.94134 16.459 8.15384 15.9423 8.27307V10.6154H17.3866C17.5545 10.6154 17.6853 10.6756 17.7789 10.7961C17.8725 10.9167 17.9085 11.0566 17.887 11.2159C17.7688 11.6002 17.5443 11.9452 17.2135 12.251C16.8827 12.5567 16.459 12.7692 15.9423 12.8885V15.2308H17.3866C17.5545 15.2308 17.6853 15.291 17.7789 15.4115C17.8725 15.5321 17.9085 15.672 17.887 15.8313C17.7688 16.2156 17.5443 16.5606 17.2135 16.8663C16.8827 17.1721 16.459 17.3846 15.9423 17.5038V19C15.9423 19.275 15.8444 19.5104 15.6486 19.7062C15.4527 19.9021 15.2173 20 14.9423 20H8.94232C8.66732 20 8.43191 19.9021 8.23607 19.7062C8.04024 19.5104 7.94232 19.275 7.94232 19V17.5038C7.42566 17.3846 7.01476 17.1721 6.70962 16.8663C6.40449 16.5606 6.19823 16.211 6.09085 15.8177C6.07131 15.6546 6.11155 15.516 6.21155 15.4019C6.31155 15.2878 6.44552 15.2308 6.61347 15.2308H7.94232ZM8.94232 19H14.9423V5H8.94232V19Z" fill="currentColor"/>
  </g>
</svg>