<svg xmlns="http://www.w3.org/2000/svg" width="24" height="25" viewBox="0 0 24 25" fill="none">
  <mask id="mask0_65_4682" style="mask-type:alpha" maskUnits="userSpaceOnUse" x="0" y="0" width="24" height="25">
    <rect y="0.778198" width="24" height="24" fill="white"/>
  </mask>
  <g mask="url(#mask0_65_4682)">
    <path d="M8.3846 12.7281C7.62164 12.7281 6.97313 12.4611 6.43907 11.927C5.90501 11.3929 5.63798 10.7444 5.63798 9.98149C5.63798 9.21853 5.90501 8.57002 6.43907 8.03596C6.97313 7.50189 7.62164 7.23486 8.3846 7.23486C9.14756 7.23486 9.79607 7.50189 10.3301 8.03596C10.8642 8.57002 11.1312 9.21853 11.1312 9.98149C11.1312 10.7444 10.8642 11.3929 10.3301 11.927C9.79607 12.4611 9.14756 12.7281 8.3846 12.7281ZM8.3846 11.5379C8.81337 11.5379 9.17996 11.3857 9.48437 11.0813C9.78881 10.7768 9.94102 10.4103 9.94102 9.98149C9.94102 9.5527 9.78881 9.1861 9.48437 8.88168C9.17996 8.57727 8.81337 8.42506 8.3846 8.42506C7.95583 8.42506 7.58924 8.57727 7.28483 8.88168C6.9804 9.1861 6.82818 9.5527 6.82818 9.98149C6.82818 10.4103 6.9804 10.7768 7.28483 11.0813C7.58924 11.3857 7.95583 11.5379 8.3846 11.5379ZM2.06738 19.7549V17.1273C2.06738 16.8546 2.13244 16.5983 2.26255 16.3581C2.39265 16.118 2.57479 15.9265 2.80897 15.7837C3.36005 15.4532 3.94125 15.1792 4.55258 14.9618C5.16392 14.7443 5.78818 14.5834 6.42536 14.4791L8.3846 17.0311L10.321 14.4791C10.9656 14.5834 11.5927 14.7443 12.2025 14.9618C12.8122 15.1792 13.3959 15.4532 13.9534 15.7837C14.1883 15.9256 14.368 16.1152 14.4924 16.3525C14.6168 16.5898 14.6866 16.8404 14.7018 17.1044V19.7549H2.06738ZM3.22783 18.5647H8.05501L5.96757 15.8226C5.48376 15.9363 5.01337 16.0842 4.55642 16.2661C4.09948 16.4481 3.65662 16.6588 3.22783 16.8984V18.5647ZM8.7142 18.5647H13.5116V16.8984C13.0874 16.6542 12.6468 16.4463 12.1899 16.2747C11.7329 16.103 11.2626 15.9599 10.7787 15.8455L8.7142 18.5647Z" fill="currentColor"/>
    <path d="M21.0028 9.30243H17.6022H17.5522V9.35243V9.94283V9.99283H17.6022H21.0028L19.5119 11.4838C19.4397 11.5559 19.4014 11.6408 19.4014 11.7369C19.4014 11.8333 19.4401 11.9156 19.5141 11.981C19.5141 11.981 19.5141 11.981 19.5141 11.981L21.0028 9.30243ZM21.0028 9.30243L19.5119 7.81151L19.5111 7.8108L19.5112 7.81079C19.4483 7.7454 19.4142 7.66514 19.4087 7.57248C19.403 7.4755 19.439 7.39232 19.5129 7.32641C19.5792 7.26071 19.6608 7.22949 19.7545 7.23383L21.0028 9.30243ZM13.4119 9.30243H16.8125H16.8625V9.35243V9.94283V9.99283H16.8125H13.4008L14.914 11.506L14.9147 11.5068L14.9147 11.5068C14.9782 11.5728 15.0091 11.6529 15.006 11.7441C15.003 11.8348 14.968 11.9138 14.9028 11.9789C14.838 12.0437 14.7611 12.0782 14.6737 12.0782C14.5863 12.0782 14.5093 12.0437 14.4445 11.9789L12.4706 10.0162L12.4705 10.0161C12.4163 9.9619 12.3763 9.90461 12.3528 9.84392L13.4119 9.30243ZM13.4119 9.30243L14.9028 7.81151C14.9028 7.81151 14.9028 7.81151 14.9028 7.81151C14.9683 7.74606 15.0034 7.6653 15.0077 7.5718C15.0121 7.47505 14.9756 7.39217 14.9018 7.32641C14.8366 7.26176 14.758 7.2282 14.6681 7.2282C14.5777 7.2282 14.4987 7.26214 14.4333 7.3275L12.4705 9.29034C12.4163 9.34451 12.3764 9.4018 12.3528 9.46248L12.3528 9.46248C12.33 9.52153 12.3188 9.58528 12.3188 9.6532C12.3188 9.72112 12.33 9.78487 12.3528 9.84392L13.4119 9.30243ZM19.9925 7.33865L19.9572 7.37401L19.9925 7.33865ZM19.9925 7.33865C19.9272 7.27334 19.8471 7.23811 19.7545 7.23383L19.9925 7.33865Z" fill="currentColor" stroke="currentColor" stroke-width="0.1"/>
  </g>
</svg>