<svg width="24" height="25" viewBox="0 0 24 25" fill="none" xmlns="http://www.w3.org/2000/svg">
<g id="icon/outline/account_actions">
<mask id="mask0_165_2744" style="mask-type:alpha" maskUnits="userSpaceOnUse" x="0" y="0" width="24" height="25">
<rect id="Bounding box" y="0.778198" width="24" height="24" fill="#D9D9D9"/>
</mask>
<g mask="url(#mask0_165_2744)">
<path id="Union" fill-rule="evenodd" clip-rule="evenodd" d="M6.50012 10.2782V17.2782C6.50012 17.4199 6.54787 17.5386 6.64337 17.6344C6.73889 17.7303 6.85758 17.7782 6.99945 17.7782C7.1413 17.7782 7.26021 17.7303 7.35617 17.6344C7.45214 17.5386 7.50012 17.4199 7.50012 17.2782V10.2782C7.50012 10.1365 7.45237 10.0178 7.35685 9.92195C7.26133 9.82612 7.14265 9.7782 7.0008 9.7782C6.85893 9.7782 6.74002 9.82612 6.64405 9.92195C6.5481 10.0178 6.50012 10.1365 6.50012 10.2782ZM11.5001 10.2782V15.2157C11.5001 15.3574 11.5479 15.4761 11.6434 15.5719C11.7389 15.6678 11.8576 15.7157 11.9994 15.7157C12.1413 15.7157 12.2602 15.6678 12.3562 15.5719C12.4521 15.4761 12.5001 15.3574 12.5001 15.2157V10.2782C12.5001 10.1365 12.4524 10.0178 12.3568 9.92195C12.2613 9.82612 12.1427 9.7782 12.0008 9.7782C11.8589 9.7782 11.74 9.82612 11.6441 9.92195C11.5481 10.0178 11.5001 10.1365 11.5001 10.2782ZM3.68232 20.6343C3.77816 20.7302 3.89691 20.7782 4.03857 20.7782H10.5626C10.7043 20.7782 10.823 20.7304 10.9189 20.6349C11.0147 20.5394 11.0626 20.4207 11.0626 20.2789C11.0626 20.137 11.0147 20.0181 10.9189 19.9221C10.823 19.8262 10.7043 19.7782 10.5626 19.7782H4.03857C3.89691 19.7782 3.77816 19.826 3.68232 19.9215C3.58649 20.017 3.53857 20.1357 3.53857 20.2775C3.53857 20.4194 3.58649 20.5383 3.68232 20.6343ZM16.5001 10.2782V12.3407C16.5001 12.4824 16.5479 12.6011 16.6434 12.6969C16.7389 12.7928 16.8576 12.8407 16.9995 12.8407C17.1413 12.8407 17.2602 12.7928 17.3562 12.6969C17.4521 12.6011 17.5001 12.4824 17.5001 12.3407V10.2782C17.5001 10.1365 17.4524 10.0178 17.3569 9.92195C17.2614 9.82612 17.1427 9.7782 17.0008 9.7782C16.8589 9.7782 16.74 9.82612 16.6441 9.92195C16.5481 10.0178 16.5001 10.1365 16.5001 10.2782ZM3.91935 7.7782H20.0386C20.1681 7.7782 20.271 7.74006 20.3472 7.66377C20.4235 7.58749 20.4617 7.48625 20.4617 7.36005V7.193C20.4617 7.11133 20.4383 7.03845 20.3915 6.97435C20.3447 6.91025 20.2873 6.85577 20.2194 6.8109L12.6886 3.2282C12.4694 3.1205 12.2391 3.06665 11.9977 3.06665C11.7563 3.06665 11.5276 3.1205 11.3116 3.2282L3.75012 6.8359C3.68666 6.87038 3.63553 6.91523 3.59675 6.97043C3.55797 7.02561 3.53857 7.09172 3.53857 7.16877V7.39995C3.53857 7.50502 3.57559 7.59432 3.64962 7.66787C3.72367 7.74142 3.81358 7.7782 3.91935 7.7782ZM17.8193 6.7782H6.1809L11.7309 4.14357C11.8206 4.10512 11.9104 4.0859 12.0001 4.0859C12.0899 4.0859 12.1796 4.10512 12.2694 4.14357L17.8193 6.7782ZM14.3631 21.7149L15.0049 21.5116C15.1477 21.6405 15.3018 21.7492 15.4671 21.8379C15.6324 21.9265 15.8073 22.0022 15.9918 22.065L16.1118 22.7117C16.1429 22.8778 16.2259 23.0101 16.3609 23.1087C16.4958 23.2073 16.648 23.2565 16.8174 23.2565H17.134C17.3 23.2565 17.4487 23.2107 17.5801 23.1191C17.7114 23.0275 17.7926 22.8986 17.8237 22.7325L18.0063 22.065C18.1907 22.0022 18.3656 21.9265 18.5309 21.8379C18.6962 21.7492 18.8503 21.6405 18.9931 21.5116L19.6091 21.7149C19.7751 21.7599 19.9359 21.7529 20.0914 21.694C20.2469 21.6352 20.3627 21.5349 20.4388 21.3933L20.5896 21.1076C20.669 20.9693 20.6993 20.8197 20.6804 20.659C20.6615 20.4982 20.5916 20.3572 20.4705 20.2362L20.0112 19.7719C20.0529 19.5875 20.0772 19.3926 20.0842 19.1873C20.0911 18.982 20.0737 18.7871 20.0321 18.6026L20.4705 18.185C20.5916 18.0639 20.6615 17.923 20.6804 17.7622C20.6993 17.6014 20.669 17.4519 20.5896 17.3136L20.413 17.0278C20.3369 16.8896 20.2297 16.7901 20.0914 16.7296C19.9531 16.6691 19.8009 16.6613 19.6349 16.7063L19.014 16.863C18.885 16.7202 18.731 16.6053 18.5518 16.5183C18.3726 16.4314 18.1907 16.3565 18.0063 16.2937L17.8446 15.6678C17.8135 15.5017 17.7331 15.3659 17.6034 15.2604C17.4737 15.1549 17.3259 15.1021 17.1598 15.1021H16.8174C16.6513 15.1021 16.5035 15.1565 16.3738 15.2654C16.2441 15.3742 16.1637 15.5117 16.1326 15.6778L15.9918 16.2937C15.8073 16.3426 15.6289 16.414 15.4567 16.5079C15.2844 16.6018 15.1269 16.7202 14.9841 16.863L14.3582 16.7063C14.1921 16.6613 14.033 16.6656 13.8808 16.7192C13.7286 16.7728 13.6145 16.8757 13.5384 17.0278L13.3826 17.3186C13.3065 17.4708 13.2771 17.623 13.2943 17.7751C13.3115 17.9273 13.3807 18.0639 13.5017 18.185L13.9818 18.6234C13.9401 18.8079 13.9193 18.9993 13.9193 19.1977C13.9193 19.396 13.9401 19.5875 13.9818 19.7719L13.5017 20.257C13.3807 20.3781 13.3115 20.5147 13.2943 20.6669C13.2771 20.819 13.3065 20.9643 13.3826 21.1026L13.5384 21.3933C13.6145 21.5349 13.7295 21.6352 13.8833 21.694C14.0371 21.7529 14.1971 21.7599 14.3631 21.7149ZM18.0341 20.2144C17.7507 20.4995 17.4057 20.642 16.999 20.642C16.5923 20.642 16.2465 20.4995 15.9614 20.2144C15.6764 19.9294 15.5339 19.5835 15.5339 19.1768C15.5339 18.7701 15.6764 18.4251 15.9614 18.1417C16.2465 17.8584 16.5923 17.7167 16.999 17.7167C17.4057 17.7167 17.7507 17.8584 18.0341 18.1417C18.3175 18.4251 18.4592 18.7701 18.4592 19.1768C18.4592 19.5835 18.3175 19.9294 18.0341 20.2144Z" fill="#DB0011"/>
</g>
</g>
</svg>
