<svg width="24" height="25" viewBox="0 0 24 25" fill="none" xmlns="http://www.w3.org/2000/svg">
<g id="icon/filled/account_actions">
<mask id="mask0_1577_4516" style="mask-type:alpha" maskUnits="userSpaceOnUse" x="0" y="0" width="24" height="25">
<rect id="Bounding box" y="0.778198" width="24" height="24" fill="#D9D9D9"/>
</mask>
<g mask="url(#mask0_1577_4516)">
<path id="account_balance" d="M6.50012 17.2782V10.2782C6.50012 10.1365 6.5481 10.0178 6.64405 9.92195C6.74002 9.82612 6.85893 9.7782 7.0008 9.7782C7.14265 9.7782 7.26133 9.82612 7.35685 9.92195C7.45237 10.0178 7.50012 10.1365 7.50012 10.2782V17.2782C7.50012 17.4199 7.45214 17.5386 7.35617 17.6344C7.26021 17.7303 7.1413 17.7782 6.99945 17.7782C6.85758 17.7782 6.73889 17.7303 6.64337 17.6344C6.54787 17.5386 6.50012 17.4199 6.50012 17.2782ZM11.5001 15.2157V10.2782C11.5001 10.1365 11.5481 10.0178 11.6441 9.92195C11.74 9.82612 11.8589 9.7782 12.0008 9.7782C12.1427 9.7782 12.2613 9.82612 12.3568 9.92195C12.4524 10.0178 12.5001 10.1365 12.5001 10.2782V15.2157C12.5001 15.3574 12.4521 15.4761 12.3562 15.5719C12.2602 15.6678 12.1413 15.7157 11.9994 15.7157C11.8576 15.7157 11.7389 15.6678 11.6434 15.5719C11.5479 15.4761 11.5001 15.3574 11.5001 15.2157ZM4.03857 20.7782C3.89691 20.7782 3.77816 20.7302 3.68232 20.6342C3.58649 20.5383 3.53857 20.4194 3.53857 20.2775C3.53857 20.1357 3.58649 20.017 3.68232 19.9215C3.77816 19.826 3.89691 19.7782 4.03857 19.7782H10.5626C10.7043 19.7782 10.823 19.8262 10.9189 19.9221C11.0147 20.0181 11.0626 20.137 11.0626 20.2789C11.0626 20.4207 11.0147 20.5394 10.9189 20.6349C10.823 20.7304 10.7043 20.7782 10.5626 20.7782H4.03857ZM16.5001 12.3407V10.2782C16.5001 10.1365 16.5481 10.0178 16.6441 9.92195C16.74 9.82612 16.8589 9.7782 17.0008 9.7782C17.1427 9.7782 17.2614 9.82612 17.3569 9.92195C17.4524 10.0178 17.5001 10.1365 17.5001 10.2782V12.3407C17.5001 12.4824 17.4521 12.6011 17.3562 12.6969C17.2602 12.7928 17.1413 12.8407 16.9995 12.8407C16.8576 12.8407 16.7389 12.7928 16.6434 12.6969C16.5479 12.6011 16.5001 12.4824 16.5001 12.3407Z" fill="#DB0011"/>
<path id="account_balance_2" d="M20.0386 7.7782H3.91935C3.81358 7.7782 3.72367 7.74142 3.64962 7.66787C3.57559 7.59432 3.53857 7.50502 3.53857 7.39995V7.16877C3.53857 7.09172 3.55797 7.02561 3.59675 6.97043C3.63553 6.91523 3.68666 6.87038 3.75012 6.8359L11.3116 3.2282C11.5276 3.1205 11.7563 3.06665 11.9977 3.06665C12.2391 3.06665 12.4694 3.1205 12.6886 3.2282L20.2194 6.8109C20.2873 6.85577 20.3447 6.91025 20.3915 6.97435C20.4383 7.03845 20.4617 7.11133 20.4617 7.193V7.36005C20.4617 7.48625 20.4235 7.58749 20.3472 7.66377C20.271 7.74006 20.1681 7.7782 20.0386 7.7782Z" fill="#DB0011"/>
<path id="credit_card_gear" d="M14.8174 21.3866L14.1756 21.5899C14.0096 21.6349 13.8496 21.628 13.6958 21.5691C13.542 21.5102 13.427 21.41 13.3509 21.2684L13.1951 20.9776C13.119 20.8393 13.0896 20.6941 13.1068 20.5419C13.124 20.3898 13.1932 20.2531 13.3143 20.1321L13.7943 19.647C13.7526 19.4625 13.7318 19.2711 13.7318 19.0727C13.7318 18.8744 13.7526 18.683 13.7943 18.4985L13.3143 18.0601C13.1932 17.939 13.124 17.8024 13.1068 17.6502C13.0896 17.498 13.119 17.3458 13.1951 17.1937L13.3509 16.9029C13.427 16.7507 13.5411 16.6478 13.6933 16.5943C13.8455 16.5407 14.0046 16.5364 14.1707 16.5813L14.7966 16.738C14.9394 16.5952 15.0969 16.4769 15.2692 16.383C15.4414 16.2891 15.6198 16.2177 15.8043 16.1688L15.9451 15.5528C15.9762 15.3867 16.0566 15.2493 16.1863 15.1404C16.316 15.0316 16.4638 14.9772 16.6299 14.9772H16.9723C17.1384 14.9772 17.2862 15.0299 17.4159 15.1355C17.5456 15.241 17.626 15.3768 17.6571 15.5428L17.8188 16.1688C18.0033 16.2316 18.1851 16.3064 18.3643 16.3934C18.5435 16.4803 18.6975 16.5952 18.8265 16.738L19.4474 16.5813C19.6135 16.5364 19.7656 16.5441 19.9039 16.6047C20.0422 16.6652 20.1494 16.7646 20.2255 16.9029L20.4021 17.1887C20.4815 17.327 20.5118 17.4765 20.4929 17.6373C20.474 17.7981 20.4041 17.939 20.283 18.0601L19.8446 18.4776C19.8862 18.6621 19.9036 18.857 19.8967 19.0623C19.8897 19.2676 19.8654 19.4625 19.8238 19.647L20.283 20.1112C20.4041 20.2323 20.474 20.3732 20.4929 20.534C20.5118 20.6948 20.4815 20.8443 20.4021 20.9826L20.2513 21.2684C20.1752 21.41 20.0594 21.5102 19.9039 21.5691C19.7484 21.628 19.5876 21.6349 19.4216 21.5899L18.8056 21.3866C18.6628 21.5155 18.5088 21.6243 18.3435 21.7129C18.1782 21.8015 18.0033 21.8772 17.8188 21.94L17.6363 22.6076C17.6052 22.7737 17.5239 22.9025 17.3926 22.9942C17.2613 23.0858 17.1125 23.1316 16.9465 23.1316H16.6299C16.4605 23.1316 16.3084 23.0823 16.1734 22.9837C16.0384 22.8852 15.9554 22.7528 15.9243 22.5868L15.8043 21.94C15.6198 21.8772 15.4449 21.8015 15.2796 21.7129C15.1143 21.6243 14.9602 21.5155 14.8174 21.3866ZM16.8115 20.517C17.2182 20.517 17.5633 20.3745 17.8466 20.0895C18.13 19.8045 18.2717 19.4586 18.2717 19.0519C18.2717 18.6452 18.13 18.3002 17.8466 18.0168C17.5633 17.7334 17.2182 17.5918 16.8115 17.5918C16.4048 17.5918 16.059 17.7334 15.7739 18.0168C15.4889 18.3002 15.3464 18.6452 15.3464 19.0519C15.3464 19.4586 15.4889 19.8045 15.7739 20.0895C16.059 20.3745 16.4048 20.517 16.8115 20.517Z" fill="#DB0011"/>
</g>
</g>
</svg>
