<svg width="32" height="33" viewBox="0 0 32 33" fill="none" xmlns="http://www.w3.org/2000/svg">
<g id="icon/outline/add_beneficiary">
<mask id="mask0_434_945" style="mask-type:alpha" maskUnits="userSpaceOnUse" x="0" y="0" width="32" height="33">
<rect id="Bounding box" y="0.778198" width="32" height="32" fill="#D9D9D9"/>
</mask>
<g mask="url(#mask0_434_945)">
<path id="person_add" d="M24.3332 14.7782H20.9998C20.8109 14.7782 20.6526 14.7142 20.5248 14.5862C20.3971 14.4583 20.3332 14.2998 20.3332 14.1106C20.3332 13.9215 20.3971 13.7632 20.5248 13.6359C20.6526 13.5085 20.8109 13.4448 20.9998 13.4448H24.3332V10.1115C24.3332 9.92262 24.3971 9.76429 24.5251 9.63651C24.6531 9.50873 24.8116 9.44484 25.0007 9.44484C25.1899 9.44484 25.3481 9.50873 25.4755 9.63651C25.6028 9.76429 25.6665 9.92262 25.6665 10.1115V13.4448H28.9998C29.1887 13.4448 29.3471 13.5088 29.4748 13.6368C29.6026 13.7647 29.6665 13.9233 29.6665 14.1124C29.6665 14.3016 29.6026 14.4598 29.4748 14.5871C29.3471 14.7145 29.1887 14.7782 28.9998 14.7782H25.6665V18.1115C25.6665 18.3004 25.6025 18.4587 25.4746 18.5865C25.3466 18.7143 25.1881 18.7782 24.9989 18.7782C24.8098 18.7782 24.6516 18.7143 24.5242 18.5865C24.3969 18.4587 24.3332 18.3004 24.3332 18.1115V14.7782ZM11.9998 15.9577C10.8998 15.9577 9.95817 15.566 9.17484 14.7827C8.3915 13.9993 7.99984 13.0577 7.99984 11.9577C7.99984 10.8577 8.3915 9.91597 9.17484 9.13264C9.95817 8.34931 10.8998 7.95764 11.9998 7.95764C13.0998 7.95764 14.0415 8.34931 14.8248 9.13264C15.6082 9.91597 15.9998 10.8577 15.9998 11.9577C15.9998 13.0577 15.6082 13.9993 14.8248 14.7827C14.0415 15.566 13.0998 15.9577 11.9998 15.9577ZM2.6665 24.2141V23.4038C2.6665 22.8534 2.82676 22.3384 3.14727 21.8589C3.46778 21.3795 3.89898 21.0072 4.44087 20.7423C5.69898 20.1389 6.95795 19.6863 8.21777 19.3846C9.47761 19.0829 10.7383 18.932 11.9998 18.932C13.2614 18.932 14.5221 19.0829 15.7819 19.3846C17.0417 19.6863 18.3007 20.1389 19.5588 20.7423C20.1007 21.0072 20.5319 21.3795 20.8524 21.8589C21.1729 22.3384 21.3332 22.8534 21.3332 23.4038V24.2141C21.3332 24.6055 21.2003 24.9342 20.9345 25.2C20.6686 25.4658 20.34 25.5987 19.9486 25.5987H4.0511C3.65966 25.5987 3.33103 25.4658 3.0652 25.2C2.7994 24.9342 2.6665 24.6055 2.6665 24.2141ZM3.99984 24.2653H19.9998V23.4038C19.9998 23.1081 19.9045 22.8303 19.7139 22.5705C19.5233 22.3107 19.2597 22.091 18.9229 21.9115C17.8255 21.3799 16.694 20.9726 15.5284 20.6897C14.3628 20.4068 13.1866 20.2653 11.9998 20.2653C10.8131 20.2653 9.63688 20.4068 8.4713 20.6897C7.3057 20.9726 6.17419 21.3799 5.07677 21.9115C4.74002 22.091 4.47634 22.3107 4.28574 22.5705C4.09514 22.8303 3.99984 23.1081 3.99984 23.4038V24.2653ZM11.9998 14.6243C12.7332 14.6243 13.3609 14.3632 13.8832 13.841C14.4054 13.3188 14.6665 12.691 14.6665 11.9577C14.6665 11.2243 14.4054 10.5966 13.8832 10.0743C13.3609 9.55212 12.7332 9.29101 11.9998 9.29101C11.2665 9.29101 10.6387 9.55212 10.1165 10.0743C9.59428 10.5966 9.33317 11.2243 9.33317 11.9577C9.33317 12.691 9.59428 13.3188 10.1165 13.841C10.6387 14.3632 11.2665 14.6243 11.9998 14.6243Z" fill="white"/>
</g>
</g>
</svg>
