<svg width="24" height="25" viewBox="0 0 24 25" fill="none" xmlns="http://www.w3.org/2000/svg">
<g id="icon/arrow/left">
<mask id="mask0_41_35955" style="mask-type:alpha" maskUnits="userSpaceOnUse" x="0" y="0" width="24" height="25">
<rect id="Bounding box" y="0.778198" width="24" height="24" fill="#D9D9D9"/>
</mask>
<g mask="url(#mask0_41_35955)">
<path id="arrow_back" d="M4.75636 13.2781L10.1948 18.7166C10.2923 18.814 10.3432 18.9288 10.3477 19.0608C10.3522 19.1929 10.2993 19.314 10.1891 19.4243C10.0788 19.5307 9.96086 19.5849 9.83521 19.5868C9.70956 19.5887 9.59161 19.5346 9.48136 19.4243L3.40059 13.3435C3.3134 13.2564 3.25219 13.1673 3.21694 13.0762C3.18169 12.9852 3.16406 12.8858 3.16406 12.7781C3.16406 12.6704 3.18169 12.5711 3.21694 12.4801C3.25219 12.389 3.3134 12.2999 3.40059 12.2128L9.48136 6.13199C9.57495 6.03839 9.68873 5.98839 9.82271 5.98199C9.9567 5.97558 10.0788 6.02558 10.1891 6.13199C10.2993 6.24224 10.3544 6.36115 10.3544 6.48872C10.3544 6.61628 10.2993 6.73519 10.1891 6.84544L4.75636 12.2781H20.3352C20.4775 12.2781 20.5964 12.3259 20.6919 12.4214C20.7875 12.5169 20.8352 12.6358 20.8352 12.7781C20.8352 12.9205 20.7875 13.0394 20.6919 13.1349C20.5964 13.2304 20.4775 13.2781 20.3352 13.2781H4.75636Z" fill="black"/>
</g>
</g>
</svg>
