<svg width="24" height="24" viewBox="0 0 24 24" fill="none" xmlns="http://www.w3.org/2000/svg">
    <mask id="3p3lv3repa" style="mask-type:alpha" maskUnits="userSpaceOnUse" x="0" y="0" width="24" height="24">
        <path fill="#D9D9D9" d="M0 0h24v24H0z"/>
    </mask>
    <g mask="url(#3p3lv3repa)">
        <path d="m4.757 12.5 5.438 5.438a.48.48 0 0 1-.006.708.516.516 0 0 1-.353.162.485.485 0 0 1-.354-.162l-6.08-6.08a.785.785 0 0 1-.185-.268.819.819 0 0 1-.052-.298c0-.108.017-.207.052-.298a.785.785 0 0 1 .184-.268l6.08-6.08a.5.5 0 0 1 .342-.15.481.481 0 0 1 .367.15c.11.11.165.229.165.356a.499.499 0 0 1-.165.357L4.757 11.5h15.579c.142 0 .26.048.356.143a.484.484 0 0 1 .144.357.484.484 0 0 1-.144.357.484.484 0 0 1-.356.143H4.756z" fill="#fff"/>
    </g>
</svg>
