<svg width="24" height="25" viewBox="0 0 24 25" fill="none" xmlns="http://www.w3.org/2000/svg">
<g id="icon/filled/cancel">
<mask id="mask0_72_7405" style="mask-type:alpha" maskUnits="userSpaceOnUse" x="0" y="0" width="24" height="25">
<rect id="Bounding box" y="0.778198" width="24" height="24" fill="#D9D9D9"/>
</mask>
<g mask="url(#mask0_72_7405)">
<path id="cancel" d="M12 13.4859L15.2462 16.732C15.3397 16.8256 15.4545 16.8756 15.5904 16.882C15.7263 16.8885 15.8474 16.8385 15.9538 16.732C16.0603 16.6256 16.1135 16.5077 16.1135 16.3782C16.1135 16.2487 16.0603 16.1308 15.9538 16.0243L12.7077 12.7782L15.9538 9.53205C16.0474 9.43847 16.0974 9.32372 16.1039 9.18782C16.1103 9.05192 16.0603 8.93077 15.9538 8.82435C15.8474 8.71793 15.7295 8.66472 15.6 8.66472C15.4705 8.66472 15.3526 8.71793 15.2462 8.82435L12 12.0705L8.75385 8.82435C8.66027 8.73077 8.54553 8.68077 8.40963 8.67435C8.27373 8.66793 8.15257 8.71793 8.04615 8.82435C7.93973 8.93077 7.88653 9.04872 7.88653 9.1782C7.88653 9.30768 7.93973 9.42563 8.04615 9.53205L11.2923 12.7782L8.04615 16.0243C7.95257 16.1179 7.90257 16.2327 7.89615 16.3686C7.88973 16.5045 7.93973 16.6256 8.04615 16.732C8.15257 16.8385 8.27052 16.8917 8.4 16.8917C8.52948 16.8917 8.64743 16.8385 8.75385 16.732L12 13.4859ZM12.0034 21.7782C10.7588 21.7782 9.58872 21.542 8.4931 21.0697C7.39748 20.5974 6.44444 19.9564 5.63397 19.1467C4.82352 18.337 4.18192 17.3848 3.70915 16.2902C3.23638 15.1956 3 14.0261 3 12.7815C3 11.537 3.23616 10.3669 3.70848 9.2713C4.18081 8.17568 4.82183 7.22264 5.63153 6.41217C6.44123 5.60172 7.39337 4.96012 8.48795 4.48735C9.58255 4.01458 10.7521 3.7782 11.9966 3.7782C13.2412 3.7782 14.4113 4.01436 15.5069 4.48667C16.6025 4.95901 17.5556 5.60002 18.366 6.40972C19.1765 7.21942 19.8181 8.17157 20.2908 9.26615C20.7636 10.3607 21 11.5303 21 12.7748C21 14.0194 20.7638 15.1895 20.2915 16.2851C19.8192 17.3807 19.1782 18.3338 18.3685 19.1442C17.5588 19.9547 16.6066 20.5963 15.512 21.069C14.4174 21.5418 13.2479 21.7782 12.0034 21.7782Z" fill="#A8000B"/>
</g>
</g>
</svg>
