<svg width="24" height="25" viewBox="0 0 24 25" fill="none" xmlns="http://www.w3.org/2000/svg">
<g id="icon/outline/card">
<mask id="mask0_381_25867" style="mask-type:alpha" maskUnits="userSpaceOnUse" x="0" y="0" width="24" height="25">
<rect id="Bounding box" y="0.778198" width="24" height="24" fill="#D9D9D9"/>
</mask>
<g mask="url(#mask0_381_25867)">
<path id="credit_card" d="M21 7.39357V18.1628C21 18.6231 20.8458 19.0074 20.5375 19.3157C20.2292 19.624 19.8449 19.7782 19.3846 19.7782H4.61538C4.15513 19.7782 3.77083 19.624 3.4625 19.3157C3.15417 19.0074 3 18.6231 3 18.1628V7.39357C3 6.93332 3.15417 6.54903 3.4625 6.2407C3.77083 5.93236 4.15513 5.7782 4.61538 5.7782H19.3846C19.8449 5.7782 20.2292 5.93236 20.5375 6.2407C20.8458 6.54903 21 6.93332 21 7.39357ZM4 9.58587H20V7.39357C20 7.23974 19.9359 7.09872 19.8077 6.9705C19.6795 6.8423 19.5385 6.7782 19.3846 6.7782H4.61538C4.46154 6.7782 4.32052 6.8423 4.1923 6.9705C4.0641 7.09872 4 7.23974 4 7.39357V9.58587ZM4 11.9705V18.1628C4 18.3167 4.0641 18.4577 4.1923 18.5859C4.32052 18.7141 4.46154 18.7782 4.61538 18.7782H19.3846C19.5385 18.7782 19.6795 18.7141 19.8077 18.5859C19.9359 18.4577 20 18.3167 20 18.1628V11.9705H4Z" fill="#DB0011"/>
</g>
</g>
</svg>
