<svg width="24" height="25" viewBox="0 0 24 25" fill="none" xmlns="http://www.w3.org/2000/svg">
<g id="icon/outline/close">
<mask id="mask0_2417_10" style="mask-type:alpha" maskUnits="userSpaceOnUse" x="0" y="0" width="24" height="25">
<rect id="Bounding box" y="0.778198" width="24" height="24" fill="#D9D9D9"/>
</mask>
<g mask="url(#mask0_2417_10)">
<path id="close" d="M12 13.4859L6.75386 18.7321C6.66028 18.8256 6.54554 18.8756 6.40964 18.8821C6.27374 18.8885 6.15258 18.8385 6.04616 18.7321C5.93974 18.6256 5.88654 18.5077 5.88654 18.3782C5.88654 18.2487 5.93974 18.1308 6.04616 18.0244L11.2923 12.7782L6.04616 7.53206C5.95258 7.43848 5.90258 7.32373 5.89616 7.18783C5.88974 7.05193 5.93974 6.93078 6.04616 6.82436C6.15258 6.71794 6.27053 6.66473 6.40001 6.66473C6.52949 6.66473 6.64744 6.71794 6.75386 6.82436L12 12.0705L17.2462 6.82436C17.3397 6.73078 17.4545 6.68078 17.5904 6.67436C17.7263 6.66794 17.8474 6.71794 17.9539 6.82436C18.0603 6.93078 18.1135 7.04873 18.1135 7.17821C18.1135 7.30769 18.0603 7.42564 17.9539 7.53206L12.7077 12.7782L17.9539 18.0244C18.0474 18.1179 18.0974 18.2327 18.1039 18.3686C18.1103 18.5045 18.0603 18.6256 17.9539 18.7321C17.8474 18.8385 17.7295 18.8917 17.6 18.8917C17.4705 18.8917 17.3526 18.8385 17.2462 18.7321L12 13.4859Z" fill="black"/>
</g>
</g>
</svg>
