<svg width="18" height="12" viewBox="0 0 18 12" fill="none" xmlns="http://www.w3.org/2000/svg">
<path id="Combined Shape" fill-rule="evenodd" clip-rule="evenodd" d="M15.9213 3.88158L15.9093 3.85807L14.7713 1.39108C14.4231 0.647726 13.6435 0.166626 12.7843 0.166626L5.07315 0.171148C4.21574 0.225407 3.46574 0.763479 3.16481 1.54391L2.08056 3.88158L2.0537 3.8843C1.04259 3.98558 0.25 4.83745 0.25 5.82407V8.47464L0.258333 8.613C0.298148 8.95483 0.487037 9.27044 0.776852 9.47663L0.796296 9.49019L0.800926 10.3466C0.858333 11.1795 1.57963 11.8333 2.44352 11.8333C3.35185 11.8333 4.09167 11.1171 4.09167 10.2363V9.71446H13.9093L13.913 10.3466C13.9713 11.1795 14.6935 11.8333 15.5565 11.8333C16.4657 11.8333 17.2037 11.1171 17.2037 10.2363L17.2046 9.48929L17.2241 9.47572C17.5528 9.2415 17.75 8.8653 17.75 8.47102V5.82226L17.7435 5.66219C17.6639 4.72803 16.9093 3.97925 15.9472 3.8843L15.9213 3.88158ZM4.17398 7.65762C4.78466 7.59123 5.25 7.16584 5.25 6.66843C5.25 6.30043 4.87549 6.00108 4.41434 5.99996L4.29416 6.00671C4.20053 6.01684 4.1111 6.03935 4.03284 6.07311L4.0007 6.08661L3.96856 6.07311C3.85117 6.02584 3.71982 5.99996 3.58846 5.99996C3.12591 5.99996 2.75 6.30043 2.75 6.66843C2.75 7.21986 3.31316 7.66663 4.00489 7.66663L4.17398 7.65762ZM15.25 6.66843C15.25 7.21986 14.6882 7.66663 14.0007 7.66663C13.3118 7.66663 12.75 7.21986 12.75 6.66843C12.75 6.30043 13.1259 5.99996 13.5871 5.99996C13.7212 5.99996 13.854 6.02584 13.97 6.07311L14.0007 6.08661L14.0314 6.07311C14.1195 6.03822 14.2061 6.01571 14.2942 6.00671L14.4157 5.99996C14.8755 6.00108 15.25 6.30043 15.25 6.66843Z" fill="#A15A4F"/>
</svg>
