<svg width="24" height="25" viewBox="0 0 24 25" fill="none" xmlns="http://www.w3.org/2000/svg">
<g id="icon/outline/copy">
<mask id="mask0_1_4388" style="mask-type:alpha" maskUnits="userSpaceOnUse" x="0" y="0" width="24" height="25">
<rect id="Bounding box" y="0.779175" width="24" height="24" fill="#D9D9D9"/>
</mask>
<g mask="url(#mask0_1_4388)">
<path id="content_copy" d="M9.11538 17.7792C8.65513 17.7792 8.27083 17.625 7.9625 17.3167C7.65417 17.0083 7.5 16.6241 7.5 16.1638V5.39455C7.5 4.9343 7.65417 4.55001 7.9625 4.24167C8.27083 3.93334 8.65513 3.77917 9.11538 3.77917H16.8846C17.3449 3.77917 17.7292 3.93334 18.0375 4.24167C18.3458 4.55001 18.5 4.9343 18.5 5.39455V16.1638C18.5 16.6241 18.3458 17.0083 18.0375 17.3167C17.7292 17.625 17.3449 17.7792 16.8846 17.7792H9.11538ZM9.11538 16.7792H16.8846C17.0385 16.7792 17.1795 16.7151 17.3077 16.5869C17.4359 16.4587 17.5 16.3176 17.5 16.1638V5.39455C17.5 5.24072 17.4359 5.09969 17.3077 4.97148C17.1795 4.84328 17.0385 4.77917 16.8846 4.77917H9.11538C8.96154 4.77917 8.82052 4.84328 8.6923 4.97148C8.5641 5.09969 8.5 5.24072 8.5 5.39455V16.1638C8.5 16.3176 8.5641 16.4587 8.6923 16.5869C8.82052 16.7151 8.96154 16.7792 9.11538 16.7792ZM6.11538 20.7792C5.65513 20.7792 5.27083 20.625 4.9625 20.3167C4.65417 20.0083 4.5 19.6241 4.5 19.1638V7.89455C4.5 7.75225 4.54775 7.63334 4.64325 7.53783C4.73877 7.44231 4.85768 7.39455 5 7.39455C5.1423 7.39455 5.26121 7.44231 5.35672 7.53783C5.45224 7.63334 5.5 7.75225 5.5 7.89455V19.1638C5.5 19.3176 5.5641 19.4587 5.6923 19.5869C5.8205 19.7151 5.96153 19.7792 6.11538 19.7792H14.3846C14.5269 19.7792 14.6458 19.8269 14.7414 19.9225C14.8369 20.018 14.8846 20.1369 14.8846 20.2792C14.8846 20.4215 14.8369 20.5404 14.7414 20.6359C14.6458 20.7314 14.5269 20.7792 14.3846 20.7792H6.11538Z" fill="#FFFFFF"/>
</g>
</g>
</svg>
