<svg width="24" height="25" viewBox="0 0 24 25" fill="none" xmlns="http://www.w3.org/2000/svg">
<g id="icon/outline/home">
<mask id="mask0_758_4615" style="mask-type:alpha" maskUnits="userSpaceOnUse" x="0" y="0" width="24" height="25">
<rect id="Bounding box" y="0.778198" width="24" height="24" fill="#ffffff"/>
</mask>
<g mask="url(#mask0_758_4615)">
<path id="home" d="M6 19.7782H9.6923V14.7013C9.6923 14.4724 9.76971 14.2806 9.92452 14.1258C10.0793 13.971 10.2712 13.8936 10.5 13.8936H13.5C13.7289 13.8936 13.9207 13.971 14.0755 14.1258C14.2303 14.2806 14.3077 14.4724 14.3077 14.7013V19.7782H18V11.0859C18 10.9833 17.9776 10.8904 17.9327 10.8071C17.8878 10.7237 17.8269 10.65 17.75 10.5859L12.3654 6.52821C12.2628 6.43846 12.141 6.39359 12 6.39359C11.859 6.39359 11.7372 6.43846 11.6346 6.52821L6.25 10.5859C6.17308 10.65 6.11218 10.7237 6.0673 10.8071C6.02243 10.8904 6 10.9833 6 11.0859V19.7782ZM5 19.7782V11.0859C5 10.8301 5.05721 10.5878 5.17163 10.359C5.28606 10.1301 5.44423 9.94167 5.64615 9.79359L11.0308 5.71666C11.3126 5.50128 11.6346 5.39359 11.9969 5.39359C12.3592 5.39359 12.6833 5.50128 12.9692 5.71666L18.3539 9.79359C18.5558 9.94167 18.7139 10.1301 18.8284 10.359C18.9428 10.5878 19 10.8301 19 11.0859V19.7782C19 20.0462 18.9003 20.2798 18.701 20.4792C18.5016 20.6785 18.268 20.7782 18 20.7782H14.1154C13.8865 20.7782 13.6947 20.7008 13.5399 20.546C13.3851 20.3912 13.3077 20.1994 13.3077 19.9705V14.8936H10.6923V19.9705C10.6923 20.1994 10.6149 20.3912 10.4601 20.546C10.3053 20.7008 10.1135 20.7782 9.88463 20.7782H6C5.73205 20.7782 5.49839 20.6785 5.29902 20.4792C5.09967 20.2798 5 20.0462 5 19.7782Z" fill="#ffffff"/>
</g>
</g>
</svg>
