<svg width="24" height="25" viewBox="0 0 24 25" fill="none" xmlns="http://www.w3.org/2000/svg">
<g id="icon/outline/delete">
<mask id="mask0_381_26304" style="mask-type:alpha" maskUnits="userSpaceOnUse" x="0" y="0" width="24" height="25">
<rect id="Bounding box" y="0.778198" width="24" height="24" fill="#D9D9D9"/>
</mask>
<g mask="url(#mask0_381_26304)">
<path id="delete" d="M7.61537 20.7782C7.17114 20.7782 6.79086 20.62 6.47452 20.3037C6.15817 19.9874 6 19.6071 6 19.1629V6.77822H5.5C5.35833 6.77822 5.23958 6.73024 5.14375 6.63427C5.04792 6.53831 5 6.4194 5 6.27755C5 6.13568 5.04792 6.017 5.14375 5.9215C5.23958 5.82598 5.35833 5.77822 5.5 5.77822H9C9 5.57181 9.0766 5.392 9.2298 5.2388C9.38302 5.08558 9.56283 5.00897 9.76923 5.00897H14.2308C14.4372 5.00897 14.617 5.08558 14.7702 5.2388C14.9234 5.392 15 5.57181 15 5.77822H18.5C18.6417 5.77822 18.7604 5.82621 18.8562 5.92217C18.9521 6.01812 19 6.13703 19 6.2789C19 6.42075 18.9521 6.53943 18.8562 6.63495C18.7604 6.73046 18.6417 6.77822 18.5 6.77822H18V19.1629C18 19.6071 17.8418 19.9874 17.5255 20.3037C17.2091 20.62 16.8289 20.7782 16.3846 20.7782H7.61537ZM17 6.77822H7V19.1629C7 19.3423 7.05769 19.4898 7.17308 19.6052C7.28846 19.7205 7.43589 19.7782 7.61537 19.7782H16.3846C16.5641 19.7782 16.7115 19.7205 16.8269 19.6052C16.9423 19.4898 17 19.3423 17 19.1629V6.77822ZM10.3084 17.7782C10.4502 17.7782 10.5689 17.7303 10.6644 17.6345C10.7599 17.5386 10.8077 17.4199 10.8077 17.2782V9.27822C10.8077 9.13656 10.7597 9.01781 10.6637 8.92197C10.5678 8.82614 10.4489 8.77822 10.307 8.77822C10.1652 8.77822 10.0465 8.82614 9.95095 8.92197C9.85543 9.01781 9.80768 9.13656 9.80768 9.27822V17.2782C9.80768 17.4199 9.85566 17.5386 9.95163 17.6345C10.0476 17.7303 10.1665 17.7782 10.3084 17.7782ZM13.693 17.7782C13.8348 17.7782 13.9535 17.7303 14.049 17.6345C14.1446 17.5386 14.1923 17.4199 14.1923 17.2782V9.27822C14.1923 9.13656 14.1443 9.01781 14.0484 8.92197C13.9524 8.82614 13.8335 8.77822 13.6916 8.77822C13.5498 8.77822 13.4311 8.82614 13.3356 8.92197C13.2401 9.01781 13.1923 9.13656 13.1923 9.27822V17.2782C13.1923 17.4199 13.2403 17.5386 13.3363 17.6345C13.4322 17.7303 13.5511 17.7782 13.693 17.7782Z" fill="#DB0011"/>
</g>
</g>
</svg>
