<svg width="24" height="25" viewBox="0 0 24 25" fill="none" xmlns="http://www.w3.org/2000/svg">
<g id="icon/outline/delete">
<mask id="mask0_1_2699" style="mask-type:alpha" maskUnits="userSpaceOnUse" x="0" y="0" width="24" height="25">
<rect id="Bounding box" y="0.778198" width="24" height="24" fill="#D9D9D9"/>
</mask>
<g mask="url(#mask0_1_2699)">
<path id="delete" d="M7.61537 20.7782C7.17114 20.7782 6.79086 20.62 6.47452 20.3036C6.15817 19.9873 6 19.607 6 19.1628V6.77816H5.5C5.35833 6.77816 5.23958 6.73018 5.14375 6.63421C5.04792 6.53825 5 6.41934 5 6.27749C5 6.13562 5.04792 6.01694 5.14375 5.92144C5.23958 5.82592 5.35833 5.77816 5.5 5.77816H9C9 5.57175 9.0766 5.39194 9.2298 5.23874C9.38302 5.08552 9.56283 5.00891 9.76923 5.00891H14.2308C14.4372 5.00891 14.617 5.08552 14.7702 5.23874C14.9234 5.39194 15 5.57175 15 5.77816H18.5C18.6417 5.77816 18.7604 5.82614 18.8562 5.92211C18.9521 6.01806 19 6.13697 19 6.27884C19 6.42069 18.9521 6.53937 18.8562 6.63489C18.7604 6.7304 18.6417 6.77816 18.5 6.77816H18V19.1628C18 19.607 17.8418 19.9873 17.5255 20.3036C17.2091 20.62 16.8289 20.7782 16.3846 20.7782H7.61537ZM17 6.77816H7V19.1628C7 19.3423 7.05769 19.4897 7.17308 19.6051C7.28846 19.7205 7.43589 19.7782 7.61537 19.7782H16.3846C16.5641 19.7782 16.7115 19.7205 16.8269 19.6051C16.9423 19.4897 17 19.3423 17 19.1628V6.77816ZM10.3084 17.7782C10.4502 17.7782 10.5689 17.7302 10.6644 17.6344C10.7599 17.5386 10.8077 17.4198 10.8077 17.2782V9.27816C10.8077 9.1365 10.7597 9.01775 10.6637 8.92191C10.5678 8.82608 10.4489 8.77816 10.307 8.77816C10.1652 8.77816 10.0465 8.82608 9.95095 8.92191C9.85543 9.01775 9.80768 9.1365 9.80768 9.27816V17.2782C9.80768 17.4198 9.85566 17.5386 9.95163 17.6344C10.0476 17.7302 10.1665 17.7782 10.3084 17.7782ZM13.693 17.7782C13.8348 17.7782 13.9535 17.7302 14.049 17.6344C14.1446 17.5386 14.1923 17.4198 14.1923 17.2782V9.27816C14.1923 9.1365 14.1443 9.01775 14.0484 8.92191C13.9524 8.82608 13.8335 8.77816 13.6916 8.77816C13.5498 8.77816 13.4311 8.82608 13.3356 8.92191C13.2401 9.01775 13.1923 9.1365 13.1923 9.27816V17.2782C13.1923 17.4198 13.2403 17.5386 13.3363 17.6344C13.4322 17.7302 13.5511 17.7782 13.693 17.7782Z" fill="black"/>
</g>
</g>
</svg>
