<svg width="164" height="95" viewBox="0 0 164 95" fill="none" xmlns="http://www.w3.org/2000/svg">
<g clip-path="url(#clip0_1_73)">
<path d="M164.401 0H0V95H164.401V0Z" fill="#E1E2E1"/>
<path d="M65.0364 66.1365H64.4314C64.1289 66.0159 63.9474 65.7746 63.9474 65.473V65.3524C63.9474 65.0508 64.1289 64.7492 64.4314 64.6889C64.4314 64.6889 64.4919 64.6889 64.5524 64.6889H65.6415V64.2063H64.3709C63.7054 64.2063 63.1609 64.6889 63.1004 65.3524V65.6539C63.1004 66.2571 63.5239 66.7397 64.1289 66.8H64.5524C64.8549 66.8 65.0969 67.1016 65.0969 67.4635V67.7047C65.0969 68.2476 64.7339 68.4285 64.4919 68.4285H63.2819V68.9111H64.7944C65.3995 68.9111 65.8835 68.3682 65.8835 67.7047V67.4032C65.8835 66.8 65.5205 66.3174 64.9759 66.1968L65.0364 66.1365ZM67.396 64.6889H66.549V67.8857C66.549 68.4286 66.9725 68.8508 67.517 68.8508H68.0615V68.3682H67.6985C67.517 68.3682 67.396 68.2476 67.396 68.0063V65.8349H68.3035V65.292H67.396V64.6889ZM56.0822 66.9809V67.7651C56.0217 68.3079 56.3847 68.7905 56.9292 68.8508H57.7762V68.3682H57.2317C57.1107 68.3682 56.8687 68.3682 56.8687 67.8857V66.8603C56.8687 65.8349 57.2317 65.7746 57.4737 65.7746H58.1392V68.8508H58.9863V65.292H57.5947C57.0502 65.292 56.0822 65.3524 56.0822 66.9809ZM54.6301 64.146V68.8508H55.4771V64.146H54.6301ZM68.6061 66.9809V67.7651C68.6061 68.3079 68.9086 68.7905 69.4531 68.8508H70.3001V68.3682H69.7556C69.6346 68.3682 69.3926 68.3682 69.3926 67.8857V66.8603C69.3926 65.8349 69.7556 65.7746 69.9976 65.7746H70.6631V68.8508H71.5102V65.292H70.0581C69.5136 65.292 68.5456 65.3524 68.5456 66.9809H68.6061ZM61.1643 67.6444L60.3778 65.292H59.5308L60.7408 68.8508L60.0753 70.6H60.8013L62.9189 65.292H62.1324L61.2248 67.6444H61.1643ZM53.0571 64.146H51V68.8508H51.847V64.6286H52.8151C53.1176 64.6286 53.2991 64.9905 53.2991 65.5936C53.2991 66.1968 53.1176 66.5587 52.8151 66.5587H52.21V67.0412H53.0571C53.4201 67.0412 54.1461 66.7397 54.1461 65.5936C54.1461 64.4476 53.4806 64.0857 53.0571 64.0857V64.146ZM80.9484 65.292H79.4359V68.8508H80.2829V65.7746H80.9484C81.493 65.7746 81.493 66.3778 81.493 66.9206V68.8508H82.34V66.8603C82.34 65.8952 81.9165 65.2317 80.8879 65.2317L80.9484 65.292ZM77.4393 65.292C76.6528 65.2317 75.9873 65.7746 75.9268 66.5587C75.9268 66.6793 75.9268 66.7397 75.9268 66.8603V67.3428C75.9268 68.1873 76.5923 68.8508 77.4393 68.8508C78.2864 68.8508 78.9519 68.1873 78.9519 67.3428V66.9206C79.0729 66.1365 78.4679 65.4127 77.6813 65.292C77.6208 65.292 77.4998 65.292 77.4393 65.292ZM78.1049 67.2222C78.1049 67.946 77.9839 68.3682 77.4393 68.3682C76.8948 68.3682 76.7133 68.127 76.7133 67.2222V66.9206C76.7133 66.3174 76.7738 65.7746 77.3788 65.7746C77.9839 65.7746 78.0444 66.2571 78.0444 66.9206V67.2222H78.1049ZM73.0832 64.6889H72.2362V67.8857C72.2362 68.4286 72.6597 68.8508 73.2042 68.8508H73.7487V68.3682H73.3857C73.2042 68.3682 73.0832 68.2476 73.0832 68.0063V65.8349H73.9907V65.292H73.0832V64.6889ZM74.4747 68.8508H75.3218V65.2317H74.4747V68.8508ZM74.4747 64.8698H75.3218V64.146H74.4747V64.8698Z" fill="#231F20"/>
<path d="M82.8845 68.1873H83.066V68.7302H83.1265V68.1873H83.308C83.308 68.127 82.824 68.127 82.824 68.127" fill="#231F20"/>
<path d="M83.913 68.127L83.7315 68.6699L83.55 68.127H83.429V68.7302H83.4895V68.2477L83.671 68.7302H83.7315L83.913 68.2477V68.7302H83.9735V68.127" fill="#231F20"/>
<path d="M98.3125 67.1619H95.8319C95.8319 67.7048 96.1949 68.2476 96.7394 68.3683C97.163 68.4286 97.526 68.3683 97.889 68.2476H97.9495L98.0705 68.6699C97.889 68.7302 97.647 68.7905 97.4655 68.8508C97.163 68.8508 96.8 68.8508 96.4974 68.8508C96.0134 68.7302 95.5899 68.3683 95.4084 67.8857C95.1664 67.2826 95.2269 66.6191 95.5294 66.0762C95.8319 65.473 96.4369 65.1714 97.042 65.2921C97.7075 65.2921 98.252 65.8953 98.252 66.5587V66.8V67.2826L98.3125 67.1619ZM97.768 66.6794C97.768 66.4381 97.7075 66.1365 97.526 65.8953C97.284 65.654 96.9815 65.5334 96.6184 65.5937C96.1344 65.7143 95.7714 66.1365 95.7714 66.6794H97.768Z" fill="#231F20"/>
<path d="M84.5181 68.4888L84.6391 68.0063C84.7601 68.0063 84.9416 68.1269 85.0626 68.1873C85.4256 68.3079 85.8491 68.3682 86.2121 68.3079C86.4541 68.3079 86.6961 68.1269 86.8171 67.8857C86.9381 67.5841 86.8776 67.2222 86.6356 66.9809C86.4541 66.8 86.2121 66.6793 85.9701 66.619C85.6676 66.4984 85.4256 66.3777 85.1836 66.1968C84.8811 66.0158 84.6996 65.7746 84.5786 65.473C84.3971 64.8698 84.7601 64.2063 85.4256 64.0254C85.8491 63.9047 86.3331 63.9047 86.8171 64.0254C86.9986 64.0254 87.1196 64.0857 87.3012 64.146L87.1802 64.6285H87.0591C86.6961 64.4476 86.3331 64.3873 85.9096 64.4476C85.7886 64.4476 85.6676 64.4476 85.5466 64.5682C85.1836 64.7492 85.0626 65.1714 85.2441 65.473C85.2441 65.473 85.3046 65.5936 85.3651 65.5936C85.5466 65.7746 85.7281 65.8952 85.9701 65.9555C86.2726 66.0761 86.5751 66.1968 86.8776 66.3777C87.1802 66.4984 87.3617 66.7396 87.4827 67.0412C87.7247 67.7047 87.4222 68.4285 86.7566 68.6698C86.7566 68.6698 86.6356 68.6698 86.5751 68.6698C86.2726 68.7301 85.9096 68.7904 85.6071 68.7301C85.2441 68.7301 84.9416 68.6095 84.6391 68.4888H84.5786H84.5181Z" fill="#231F20"/>
<path d="M93.1093 66.981C93.1093 67.2826 93.1093 67.5238 92.9883 67.7651C92.8068 68.3683 92.2623 68.7905 91.5968 68.7905C91.1128 68.7905 90.5683 68.6096 90.2657 68.2477C90.0842 68.0064 89.9027 67.7048 89.9027 67.4032C89.8422 66.981 89.9027 66.5588 89.9632 66.1969C90.1447 65.5937 90.6893 65.1111 91.3548 65.1111C91.7178 65.1111 92.0808 65.1111 92.3833 65.2921C92.8068 65.5334 93.0488 65.9556 93.1093 66.4381C93.1093 66.6191 93.1093 66.8 93.1093 66.981ZM92.5648 66.981C92.5648 66.8604 92.5648 66.7397 92.5648 66.6191C92.5648 66.3778 92.3833 66.0762 92.2018 65.8953C91.7783 65.4731 91.1733 65.4731 90.7498 65.8953C90.6288 66.0159 90.5683 66.1365 90.5078 66.3175C90.3867 66.7397 90.3867 67.2223 90.5078 67.6445C90.6893 68.1873 91.2338 68.4889 91.7783 68.308C92.0808 68.1873 92.3228 67.9461 92.4438 67.6445C92.5043 67.4032 92.5648 67.2223 92.5648 66.981Z" fill="#231F20"/>
<path d="M88.2692 65.6539H87.6642V65.2317H88.2692V64.327H88.8137V65.1714H89.6002V65.5936H88.8137V67.6444C88.8137 67.7651 88.8137 67.8857 88.8137 68.0063C88.8137 68.127 88.9347 68.1873 89.0557 68.1873C89.1767 68.1873 89.2977 68.1873 89.4187 68.1873H89.6002V68.5492C89.3582 68.5492 89.0557 68.5492 88.8137 68.5492C88.5112 68.5492 88.2692 68.2476 88.2692 67.946V65.5333V65.6539Z" fill="#231F20"/>
<path d="M94.1379 65.2317V65.6539C94.3799 65.2317 94.8639 65.0508 95.2874 65.1714V65.5936H95.1664C94.9849 65.5936 94.8034 65.5936 94.6824 65.5936C94.3799 65.7142 94.1984 65.9555 94.1984 66.2571C94.1984 66.3777 94.1984 66.5587 94.1984 66.6793V68.6698H93.6539V65.292C93.6539 65.2317 93.6539 65.1714 93.7749 65.1714C93.8959 65.1714 94.0169 65.1714 94.1379 65.1714V65.2317Z" fill="#231F20"/>
<path d="M75.8663 28.1206H75.9873C76.4108 28.181 76.8343 28.3619 77.1973 28.6635C77.5603 28.9651 77.8629 29.2667 78.1049 29.6286C78.4679 30.1111 78.7099 30.5936 78.9519 31.1365C79.3149 31.981 79.6174 32.8857 79.7989 33.7302C79.9199 34.273 80.0409 34.8762 80.1014 35.4794C80.1014 35.6 80.1014 35.7206 80.1014 35.8413H79.0729V35.6603C78.9519 34.8762 78.7704 34.0921 78.5889 33.3079C78.4074 32.5841 78.1049 31.8603 77.8024 31.1365C77.6208 30.7143 77.3183 30.2921 77.0158 29.8698C76.8343 29.6889 76.6528 29.4476 76.4108 29.327C76.1688 29.2063 75.9268 29.0857 75.6243 29.0857C75.3823 29.0857 75.1403 29.146 74.9588 29.2667L75.2008 29.5079C75.5638 29.9905 75.8663 30.473 76.1083 31.0159C76.5318 31.8603 76.8343 32.7048 77.0763 33.6095C77.2578 34.3333 77.4393 35.0571 77.5603 35.781H76.5318C76.5318 35.6603 76.5318 35.6 76.5318 35.4794C76.4108 34.6349 76.1688 33.8508 75.9268 33.0667C75.6848 32.4032 75.4428 31.6794 75.0798 31.0762C74.8983 30.7143 74.6562 30.3524 74.3537 30.0508C74.2932 29.9905 74.3537 29.9905 74.2327 30.0508C74.0512 30.2921 73.8697 30.5937 73.7487 30.8952C73.5672 31.3778 73.3857 31.8603 73.2647 32.4032C73.0832 33.0667 72.9622 33.7302 72.9017 34.3333C72.9017 34.8159 72.7807 35.2984 72.7807 35.781H71.7522C71.7522 35.6603 71.7522 35.5397 71.7522 35.419C71.7522 34.9968 71.7522 34.5746 71.8732 34.0921C71.8732 33.6698 71.9942 33.127 72.1152 32.6444C72.2362 32.0413 72.4177 31.4381 72.5992 30.8952C72.7807 30.3524 73.0832 29.8095 73.3857 29.327L73.2647 29.2063C72.9622 29.146 72.5992 29.146 72.3572 29.2667C72.0547 29.3873 71.8127 29.5683 71.6312 29.8095C71.3891 30.1111 71.2076 30.473 71.0866 30.7746C70.8446 31.3175 70.6631 31.9206 70.5421 32.5238C70.4816 32.946 70.4211 33.3079 70.3606 33.7302C70.3001 34.1524 70.3001 34.3936 70.2396 34.7556C70.1791 35.1175 70.2396 35.3587 70.2396 35.6603H69.2716C69.2716 35.419 69.2716 35.1778 69.2716 34.9968C69.2716 34.7556 69.2716 34.5143 69.2716 34.3333C69.2716 33.9111 69.3321 33.4889 69.3926 33.0667C69.4531 32.5238 69.5741 32.0413 69.6951 31.4984C69.8161 30.9556 70.0581 30.4127 70.3001 29.8698C70.4816 29.5079 70.7236 29.2063 70.9656 28.9048C71.3286 28.5429 71.7522 28.3016 72.2362 28.181C72.7202 28.0603 73.2647 28.181 73.7487 28.3619C73.8092 28.3619 73.9302 28.4222 73.9907 28.4825C73.9907 28.4825 74.0512 28.4825 74.1117 28.4825C74.2932 28.3619 74.4747 28.2413 74.6562 28.181C74.8983 28.0603 75.1403 28 75.3823 28H75.8058L75.8663 28.1206Z" fill="#F58357"/>
<path d="M88.0877 57.8127L86.9986 36.6413V36.5206C86.9986 36.5206 86.9381 36.4603 86.8776 36.4603L84.1551 36.0381H62.7374C62.6769 36.1587 62.6164 36.1587 62.5559 36.219C62.5559 36.219 62.4954 36.3397 62.4954 36.4C62.0718 43.6984 61.6483 50.9968 61.2853 58.3555L61.5273 58.5968L66.912 59.3809L82.461 61.7333H82.582L87.8457 58.4159L88.0877 58.1746V58.054V57.8127Z" fill="url(#paint0_linear_1_73)"/>
<path d="M73.0832 54.254C73.0832 54.254 73.0832 54.1936 73.0832 54.1333V44C73.0832 43.9397 73.0832 43.819 73.0832 43.7587C73.0832 43.6381 73.0832 43.5175 73.2042 43.3968C73.2647 43.2762 73.4462 43.2159 73.6277 43.2762C73.8697 43.2762 74.0512 43.5174 74.1117 43.7587C74.1117 43.9397 74.1722 44.1206 74.1117 44.3016V48.2825C74.1117 48.2825 74.1117 48.2825 74.1117 48.3428L74.3537 48.4635C74.7168 48.5841 75.0798 48.7048 75.5033 48.6444C75.8058 48.6444 76.1083 48.5238 76.3503 48.2825C76.5923 48.1016 76.7738 47.8603 76.8343 47.619C77.0158 47.2571 77.0763 46.8349 77.1368 46.473C77.1368 45.9301 77.1368 45.4476 77.0763 44.9048C77.0158 44.5428 76.8948 44.1809 76.7133 43.819C76.4713 43.3968 76.1688 43.0952 75.7453 42.854C75.2008 42.4921 74.5957 42.2508 73.9907 42.0698C73.4462 41.8889 72.9622 41.7682 72.4177 41.5873C71.7522 41.4063 71.0866 41.2254 70.4211 41.0444C70.3606 41.0444 70.2396 41.0444 70.1791 41.0444C70.1791 41.0444 70.1791 41.0444 70.1791 41.1048V53.2889C70.1791 53.4095 70.1791 53.3492 70.2396 53.4095L72.8412 54.254C72.8412 54.254 72.8412 54.254 72.9017 54.254H73.0832Z" fill="#00A4DF"/>
<path d="M69.7556 48.5238C69.7556 48.5238 69.7556 48.5238 69.6951 48.5238L66.065 49.8508C65.702 49.9714 65.3995 50.0921 65.0969 50.2127C64.7944 50.3333 64.5524 50.5143 64.3104 50.6952C64.2499 50.6952 64.1894 50.8159 64.1289 50.8762C64.0079 51.0571 64.0079 51.2984 64.1289 51.4794C64.1289 51.6 64.2499 51.6603 64.3104 51.7206C64.4919 51.9016 64.6734 52.0222 64.8549 52.0825C65.0364 52.1428 65.2785 52.2635 65.46 52.3238C66.2465 52.5651 67.0935 52.746 67.88 52.8063C68.5456 52.8063 69.2111 52.8063 69.8766 52.6857C69.9169 52.6857 69.9371 52.6656 69.9371 52.6254V51.2984C69.9371 51.2984 69.9371 51.2984 69.8766 51.2984L68.6061 51.7809C68.1825 51.9619 67.6985 52.0222 67.2145 51.9619C67.0935 51.9619 66.9725 51.9619 66.8515 51.9016C66.8515 51.9016 66.7305 51.9016 66.7305 51.8413C66.67 51.8413 66.6095 51.7206 66.7305 51.6603C66.7305 51.6603 66.791 51.6 66.8515 51.5397C66.912 51.5397 67.033 51.419 67.154 51.419L69.9371 50.3936C69.9976 50.3936 69.9976 50.3936 69.9976 50.273V48.8254C69.9976 48.8254 69.9976 48.8254 69.9976 48.7651L69.7556 48.5238Z" fill="#00A4DF"/>
<path d="M66.7305 51.7206C67.275 51.8412 67.88 51.8413 68.4246 51.6603L69.8161 51.1778V52.6254H69.5741C68.122 52.927 66.67 52.8063 65.2785 52.3238C63.9474 51.9619 63.7054 51.1778 64.3104 50.6952C64.7944 50.3936 65.2785 50.1524 65.823 49.9714L69.8161 48.5841V50.2127L66.9725 51.2381C66.4885 51.419 66.3675 51.6603 66.791 51.7809L66.7305 51.7206Z" fill="white"/>
<path d="M80.8274 51.1175C80.5249 51.4191 80.1014 51.7206 79.6779 51.8413L73.6277 54.0127V52.3841L78.1049 50.8159C78.5889 50.6349 78.7099 50.3937 78.2864 50.273C77.7418 50.1524 77.1368 50.1524 76.6528 50.3333L73.6882 51.3587V49.6698H73.8697C74.5352 49.3683 75.2613 49.2476 75.9268 49.1873C77.1973 49.0667 78.5284 49.1873 79.7989 49.6698C81.13 50.0921 81.251 50.6952 80.9484 51.1175H80.8274Z" fill="white"/>
<path d="M74.1722 48.4032V44.3016C74.1722 43.819 74.1117 43.3968 73.6277 43.2762C73.2647 43.1555 73.0832 43.4571 73.0832 43.9397V54.1936L70.3001 53.2889V41.0444C71.5706 41.346 72.8412 41.7079 74.1117 42.1301C76.4713 42.9143 77.2578 43.9397 77.2578 46.1714C77.2578 48.4032 75.9268 49.1873 74.1722 48.3428V48.4032Z" fill="white"/>
<path d="M75.9268 53.8921H76.2898V54.9175H76.4108V53.8921H76.7738V53.7714H75.8663" fill="white"/>
<path d="M77.8629 53.7714L77.4998 54.7365L77.1973 53.7714H76.9553V54.9175H77.1368V53.9524L77.4393 54.9175H77.6208L77.9234 53.9524V54.9175H78.0444V53.7714" fill="white"/>
<path d="M113.498 25H91.7178V36.4603H113.498V25Z" fill="white"/>
<path d="M113.498 25H91.7178V25.9048H113.498V25Z" fill="#B12335"/>
<path d="M113.498 26.7492H91.7178V27.654H113.498V26.7492Z" fill="#B12335"/>
<path d="M113.498 28.4984H91.7178V29.4031H113.498V28.4984Z" fill="#B12335"/>
<path d="M113.498 30.308H91.7178V31.2127H113.498V30.308Z" fill="#B12335"/>
<path d="M113.498 32.0571H91.7178V32.9619H113.498V32.0571Z" fill="#B12335"/>
<path d="M113.498 33.8063H91.7178V34.7111H113.498V33.8063Z" fill="#B12335"/>
<path d="M113.498 35.5556H91.7178V36.4603H113.498V35.5556Z" fill="#B12335"/>
<path d="M100.43 25H91.7178V31.1524H100.43V25Z" fill="#3D3B6E"/>
<path d="M92.0808 25.4825L92.2623 25.6032V25.8444C92.2018 25.8444 92.3833 25.7238 92.3833 25.7238L92.5648 25.8444V25.6032C92.5043 25.6032 92.6858 25.4825 92.6858 25.4825H92.4438V25.2413C92.3833 25.2413 92.2623 25.4825 92.2623 25.4825H92.0203H92.0808Z" fill="white"/>
<path d="M93.5328 25.4825L93.7143 25.6032V25.8444C93.6538 25.8444 93.8354 25.7238 93.8354 25.7238L94.0169 25.8444V25.6032C93.9564 25.6032 94.1379 25.4825 94.1379 25.4825H93.8959V25.2413C93.8354 25.2413 93.7143 25.4825 93.7143 25.4825H93.4723H93.5328Z" fill="white"/>
<path d="M94.9849 25.4825L95.1664 25.6032V25.8444C95.1059 25.8444 95.2874 25.7238 95.2874 25.7238L95.4689 25.8444V25.6032C95.4084 25.6032 95.5899 25.4825 95.5899 25.4825H95.3479V25.2413C95.2874 25.2413 95.1664 25.4825 95.1664 25.4825H94.9244H94.9849Z" fill="white"/>
<path d="M96.4369 25.4825L96.6184 25.6032V25.8444C96.5579 25.8444 96.7394 25.7238 96.7394 25.7238L96.921 25.8444V25.6032C96.8605 25.6032 97.042 25.4825 97.042 25.4825H96.7999V25.2413C96.7394 25.2413 96.6184 25.4825 96.6184 25.4825H96.3764H96.4369Z" fill="white"/>
<path d="M97.889 25.4825L98.0705 25.6032V25.8444C98.01 25.8444 98.1915 25.7238 98.1915 25.7238L98.373 25.8444V25.6032C98.3125 25.6032 98.494 25.4825 98.494 25.4825H98.252V25.2413C98.1915 25.2413 98.0705 25.4825 98.0705 25.4825H97.8285H97.889Z" fill="white"/>
<path d="M99.341 25.4825L99.5225 25.6032V25.8444C99.462 25.8444 99.6435 25.7238 99.6435 25.7238L99.825 25.8444V25.6032C99.7645 25.6032 99.946 25.4825 99.946 25.4825H99.704V25.2413C99.6435 25.2413 99.5225 25.4825 99.5225 25.4825H99.2805H99.341Z" fill="white"/>
<path d="M92.8068 26.1461L92.9883 26.2667V26.508C92.9278 26.508 93.1093 26.3873 93.1093 26.3873L93.2908 26.508V26.2667C93.2303 26.2667 93.4118 26.1461 93.4118 26.1461H93.1698V25.9048C93.1093 25.9048 92.9883 26.1461 92.9883 26.1461H92.7463H92.8068Z" fill="white"/>
<path d="M94.2589 26.1461L94.4404 26.2667V26.508C94.3799 26.508 94.5614 26.3873 94.5614 26.3873L94.7429 26.508V26.2667C94.6824 26.2667 94.8639 26.1461 94.8639 26.1461H94.6219V25.9048C94.5614 25.9048 94.4404 26.1461 94.4404 26.1461H94.1984H94.2589Z" fill="white"/>
<path d="M95.7109 26.1461L95.8924 26.2667V26.508C95.8319 26.508 96.0134 26.3873 96.0134 26.3873L96.1949 26.508V26.2667C96.1344 26.2667 96.3159 26.1461 96.3159 26.1461H96.0739V25.9048C96.0134 25.9048 95.8924 26.1461 95.8924 26.1461H95.6504H95.7109Z" fill="white"/>
<path d="M97.163 26.1461L97.3445 26.2667V26.508C97.284 26.508 97.4655 26.3873 97.4655 26.3873L97.647 26.508V26.2667C97.5865 26.2667 97.768 26.1461 97.768 26.1461H97.526V25.9048C97.4655 25.9048 97.3445 26.1461 97.3445 26.1461H97.1025H97.163Z" fill="white"/>
<path d="M98.615 26.1461L98.7965 26.2667V26.508C98.736 26.508 98.9175 26.3873 98.9175 26.3873L99.099 26.508V26.2667C99.0385 26.2667 99.22 26.1461 99.22 26.1461H98.978V25.9048C98.9175 25.9048 98.7965 26.1461 98.7965 26.1461H98.5545H98.615Z" fill="white"/>
<path d="M92.0808 26.7492L92.2623 26.8698V27.1111C92.2018 27.1111 92.3833 26.9905 92.3833 26.9905L92.5648 27.1111V26.8698C92.5043 26.8698 92.6858 26.7492 92.6858 26.7492H92.4438V26.5079C92.3833 26.5079 92.2623 26.7492 92.2623 26.7492H92.0203H92.0808Z" fill="white"/>
<path d="M93.5328 26.7492L93.7143 26.8698V27.1111C93.6538 27.1111 93.8354 26.9905 93.8354 26.9905L94.0169 27.1111V26.8698C93.9564 26.8698 94.1379 26.7492 94.1379 26.7492H93.8959V26.5079C93.8354 26.5079 93.7143 26.7492 93.7143 26.7492H93.4723H93.5328Z" fill="white"/>
<path d="M94.9849 26.7492L95.1664 26.8698V27.1111C95.1059 27.1111 95.2874 26.9905 95.2874 26.9905L95.4689 27.1111V26.8698C95.4084 26.8698 95.5899 26.7492 95.5899 26.7492H95.3479V26.5079C95.2874 26.5079 95.1664 26.7492 95.1664 26.7492H94.9244H94.9849Z" fill="white"/>
<path d="M96.4369 26.7492L96.6184 26.8698V27.1111C96.5579 27.1111 96.7394 26.9905 96.7394 26.9905L96.921 27.1111V26.8698C96.8605 26.8698 97.042 26.7492 97.042 26.7492H96.7999V26.5079C96.7394 26.5079 96.6184 26.7492 96.6184 26.7492H96.3764H96.4369Z" fill="white"/>
<path d="M97.889 26.7492L98.0705 26.8698V27.1111C98.01 27.1111 98.1915 26.9905 98.1915 26.9905L98.373 27.1111V26.8698C98.3125 26.8698 98.494 26.7492 98.494 26.7492H98.252V26.5079C98.1915 26.5079 98.0705 26.7492 98.0705 26.7492H97.8285H97.889Z" fill="white"/>
<path d="M99.341 26.7492L99.5225 26.8698V27.1111C99.462 27.1111 99.6435 26.9905 99.6435 26.9905L99.825 27.1111V26.8698C99.7645 26.8698 99.946 26.7492 99.946 26.7492H99.704V26.5079C99.6435 26.5079 99.5225 26.7492 99.5225 26.7492H99.2805H99.341Z" fill="white"/>
<path d="M92.8673 27.3524L93.0488 27.473V27.7143C92.9883 27.7143 93.1698 27.5334 93.1698 27.5334L93.3513 27.7143V27.473C93.2908 27.473 93.4723 27.3524 93.4723 27.3524H93.2303V27.1111C93.1698 27.1111 93.0488 27.3524 93.0488 27.3524H92.8068H92.8673Z" fill="white"/>
<path d="M94.3194 27.3524L94.5009 27.473V27.7143C94.4404 27.7143 94.6219 27.5334 94.6219 27.5334L94.8034 27.7143V27.473C94.7429 27.473 94.9244 27.3524 94.9244 27.3524H94.6824V27.1111C94.6219 27.1111 94.5009 27.3524 94.5009 27.3524H94.2589H94.3194Z" fill="white"/>
<path d="M95.7109 27.3524L95.8924 27.473V27.7143C95.8319 27.7143 96.0134 27.5334 96.0134 27.5334L96.1949 27.7143V27.473C96.1344 27.473 96.3159 27.3524 96.3159 27.3524H96.0739V27.1111C96.0134 27.1111 95.8924 27.3524 95.8924 27.3524H95.6504H95.7109Z" fill="white"/>
<path d="M97.163 27.3524L97.3445 27.473V27.7143C97.284 27.7143 97.4655 27.5334 97.4655 27.5334L97.647 27.7143V27.473C97.5865 27.473 97.768 27.3524 97.768 27.3524H97.526V27.1111C97.4655 27.1111 97.3445 27.3524 97.3445 27.3524H97.1025H97.163Z" fill="white"/>
<path d="M98.615 27.3524L98.7965 27.473V27.7143C98.736 27.7143 98.9175 27.5334 98.9175 27.5334L99.099 27.7143V27.473C99.0385 27.473 99.22 27.3524 99.22 27.3524H98.978V27.1111C98.9175 27.1111 98.7965 27.3524 98.7965 27.3524H98.5545H98.615Z" fill="white"/>
<path d="M92.1413 27.9556L92.3228 28.0762V28.3175C92.2623 28.3175 92.4438 28.1968 92.4438 28.1968L92.6253 28.3175V28.0762C92.5648 28.0762 92.7463 27.9556 92.7463 27.9556H92.5043V27.7143C92.4438 27.7143 92.3228 27.9556 92.3228 27.9556H92.0808H92.1413Z" fill="white"/>
<path d="M93.5933 27.9556L93.7748 28.0762V28.3175C93.7143 28.3175 93.8958 28.1968 93.8958 28.1968L94.0774 28.3175V28.0762C94.0168 28.0762 94.1984 27.9556 94.1984 27.9556H93.9563V27.7143C93.8958 27.7143 93.7748 27.9556 93.7748 27.9556H93.5328H93.5933Z" fill="white"/>
<path d="M95.0454 27.9556L95.2269 28.0762V28.3175C95.1664 28.3175 95.3479 28.1968 95.3479 28.1968L95.5294 28.3175V28.0762C95.4689 28.0762 95.6504 27.9556 95.6504 27.9556H95.4084V27.7143C95.3479 27.7143 95.2269 27.9556 95.2269 27.9556H94.9849H95.0454Z" fill="white"/>
<path d="M96.4974 27.9556L96.6789 28.0762V28.3175C96.6184 28.3175 96.7999 28.1968 96.7999 28.1968L96.9815 28.3175V28.0762C96.921 28.0762 97.1025 27.9556 97.1025 27.9556H96.8605V27.7143C96.7999 27.7143 96.6789 27.9556 96.6789 27.9556H96.4369H96.4974Z" fill="white"/>
<path d="M97.889 27.9556L98.0705 28.0762V28.3175C98.01 28.3175 98.1915 28.1968 98.1915 28.1968L98.373 28.3175V28.0762C98.3125 28.0762 98.494 27.9556 98.494 27.9556H98.252V27.7143C98.1915 27.7143 98.0705 27.9556 98.0705 27.9556H97.8285H97.889Z" fill="white"/>
<path d="M99.341 27.9556L99.5225 28.0762V28.3175C99.462 28.3175 99.6435 28.1968 99.6435 28.1968L99.825 28.3175V28.0762C99.7645 28.0762 99.946 27.9556 99.946 27.9556H99.704V27.7143C99.6435 27.7143 99.5225 27.9556 99.5225 27.9556H99.2805H99.341Z" fill="white"/>
<path d="M92.1413 29.1619L92.3228 29.2826V29.5238C92.2623 29.5238 92.4438 29.4032 92.4438 29.4032L92.6253 29.5238V29.2826C92.5648 29.2826 92.7463 29.1619 92.7463 29.1619H92.5043V28.9207C92.4438 28.9207 92.3228 29.1619 92.3228 29.1619H92.0808H92.1413Z" fill="white"/>
<path d="M93.5933 29.1619L93.7748 29.2826V29.5238C93.7143 29.5238 93.8958 29.4032 93.8958 29.4032L94.0774 29.5238V29.2826C94.0168 29.2826 94.1984 29.1619 94.1984 29.1619H93.9563V28.9207C93.8958 28.9207 93.7748 29.1619 93.7748 29.1619H93.5328H93.5933Z" fill="white"/>
<path d="M95.0454 29.1619L95.2269 29.2826V29.5238C95.1664 29.5238 95.3479 29.4032 95.3479 29.4032L95.5294 29.5238V29.2826C95.4689 29.2826 95.6504 29.1619 95.6504 29.1619H95.4084V28.9207C95.3479 28.9207 95.2269 29.1619 95.2269 29.1619H94.9849H95.0454Z" fill="white"/>
<path d="M96.4974 29.1619L96.6789 29.2826V29.5238C96.6184 29.5238 96.7999 29.4032 96.7999 29.4032L96.9815 29.5238V29.2826C96.921 29.2826 97.1025 29.1619 97.1025 29.1619H96.8605V28.9207C96.7999 28.9207 96.6789 29.1619 96.6789 29.1619H96.4369H96.4974Z" fill="white"/>
<path d="M97.9495 29.1619L98.131 29.2826V29.5238C98.0705 29.5238 98.252 29.4032 98.252 29.4032L98.4335 29.5238V29.2826C98.373 29.2826 98.5545 29.1619 98.5545 29.1619H98.3125V28.9207C98.252 28.9207 98.131 29.1619 98.131 29.1619H97.889H97.9495Z" fill="white"/>
<path d="M99.341 29.1619L99.5225 29.2826V29.5238C99.462 29.5238 99.6435 29.4032 99.6435 29.4032L99.825 29.5238V29.2826C99.7645 29.2826 99.946 29.1619 99.946 29.1619H99.704V28.9207C99.6435 28.9207 99.5225 29.1619 99.5225 29.1619H99.2805H99.341Z" fill="white"/>
<path d="M92.1413 30.4286L92.3228 30.5492V30.7905C92.2623 30.7905 92.4438 30.6698 92.4438 30.6698L92.6253 30.7905V30.5492C92.5648 30.5492 92.7463 30.4286 92.7463 30.4286H92.5043V30.1873C92.4438 30.1873 92.3228 30.4286 92.3228 30.4286H92.0808H92.1413Z" fill="white"/>
<path d="M93.5933 30.4286L93.7748 30.5492V30.7905C93.7143 30.7905 93.8958 30.6698 93.8958 30.6698L94.0774 30.7905V30.5492C94.0168 30.5492 94.1984 30.4286 94.1984 30.4286H93.9563V30.1873C93.8958 30.1873 93.7748 30.4286 93.7748 30.4286H93.5328H93.5933Z" fill="white"/>
<path d="M94.9849 30.4286L95.1664 30.5492V30.7905C95.1059 30.7905 95.2874 30.6698 95.2874 30.6698L95.4689 30.7905V30.5492C95.4084 30.5492 95.5899 30.4286 95.5899 30.4286H95.3479V30.1873C95.2874 30.1873 95.1664 30.4286 95.1664 30.4286H94.9244H94.9849Z" fill="white"/>
<path d="M96.4369 30.4286L96.6184 30.5492V30.7905C96.5579 30.7905 96.7394 30.6698 96.7394 30.6698L96.921 30.7905V30.5492C96.8605 30.5492 97.042 30.4286 97.042 30.4286H96.7999V30.1873C96.7394 30.1873 96.6184 30.4286 96.6184 30.4286H96.3764H96.4369Z" fill="white"/>
<path d="M97.889 30.4286L98.0705 30.5492V30.7905C98.01 30.7905 98.1915 30.6698 98.1915 30.6698L98.373 30.7905V30.5492C98.3125 30.5492 98.494 30.4286 98.494 30.4286H98.252V30.1873C98.1915 30.1873 98.0705 30.4286 98.0705 30.4286H97.8285H97.889Z" fill="white"/>
<path d="M99.341 30.4286L99.5225 30.5492V30.7905C99.462 30.7905 99.6435 30.6698 99.6435 30.6698L99.825 30.7905V30.5492C99.7645 30.5492 99.946 30.4286 99.946 30.4286H99.704V30.1873C99.6435 30.1873 99.5225 30.4286 99.5225 30.4286H99.2805H99.341Z" fill="white"/>
<path d="M92.8673 28.5587L93.0488 28.6793V28.9206C92.9883 28.9206 93.1698 28.8 93.1698 28.8L93.3513 28.9206V28.6793C93.2908 28.6793 93.4723 28.5587 93.4723 28.5587H93.2303V28.3174C93.1698 28.3174 93.0488 28.5587 93.0488 28.5587H92.8068H92.8673Z" fill="white"/>
<path d="M94.3194 28.5587L94.5009 28.6793V28.9206C94.4404 28.9206 94.6219 28.8 94.6219 28.8L94.8034 28.9206V28.6793C94.7429 28.6793 94.9244 28.5587 94.9244 28.5587H94.6824V28.3174C94.6219 28.3174 94.5009 28.5587 94.5009 28.5587H94.2589H94.3194Z" fill="white"/>
<path d="M95.7714 28.5587L95.9529 28.6793V28.9206C95.8924 28.9206 96.0739 28.8 96.0739 28.8L96.2554 28.9206V28.6793C96.1949 28.6793 96.3764 28.5587 96.3764 28.5587H96.1344V28.3174C96.0739 28.3174 95.9529 28.5587 95.9529 28.5587H95.7109H95.7714Z" fill="white"/>
<path d="M97.163 28.5587L97.3445 28.6793V28.9206C97.284 28.9206 97.4655 28.8 97.4655 28.8L97.647 28.9206V28.6793C97.5865 28.6793 97.768 28.5587 97.768 28.5587H97.526V28.3174C97.4655 28.3174 97.3445 28.5587 97.3445 28.5587H97.1025H97.163Z" fill="white"/>
<path d="M98.615 28.5587L98.7965 28.6793V28.9206C98.736 28.9206 98.9175 28.8 98.9175 28.8L99.099 28.9206V28.6793C99.0385 28.6793 99.22 28.5587 99.22 28.5587H98.978V28.3174C98.9175 28.3174 98.7965 28.5587 98.7965 28.5587H98.5545H98.615Z" fill="white"/>
<path d="M92.8673 29.8254L93.0488 29.946V30.1873C92.9883 30.1873 93.1698 30.0666 93.1698 30.0666L93.3513 30.1873V29.946C93.2908 29.946 93.4723 29.8254 93.4723 29.8254H93.2303V29.5841C93.1698 29.5841 93.0488 29.8254 93.0488 29.8254H92.8068H92.8673Z" fill="white"/>
<path d="M94.3194 29.8254L94.5009 29.946V30.1873C94.4404 30.1873 94.6219 30.0666 94.6219 30.0666L94.8034 30.1873V29.946C94.7429 29.946 94.9244 29.8254 94.9244 29.8254H94.6824V29.5841C94.6219 29.5841 94.5009 29.8254 94.5009 29.8254H94.2589H94.3194Z" fill="white"/>
<path d="M95.7109 29.8254L95.8924 29.946V30.1873C95.8319 30.1873 96.0134 30.0666 96.0134 30.0666L96.1949 30.1873V29.946C96.1344 29.946 96.3159 29.8254 96.3159 29.8254H96.0739V29.5841C96.0134 29.5841 95.8924 29.8254 95.8924 29.8254H95.6504H95.7109Z" fill="white"/>
<path d="M97.163 29.8254L97.3445 29.946V30.1873C97.284 30.1873 97.4655 30.0666 97.4655 30.0666L97.647 30.1873V29.946C97.5865 29.946 97.768 29.8254 97.768 29.8254H97.526V29.5841C97.4655 29.5841 97.3445 29.8254 97.3445 29.8254H97.1025H97.163Z" fill="white"/>
<path d="M98.615 29.8254L98.7965 29.946V30.1873C98.736 30.1873 98.9175 30.0666 98.9175 30.0666L99.099 30.1873V29.946C99.0385 29.946 99.22 29.8254 99.22 29.8254H98.978V29.5841C98.9175 29.5841 98.7965 29.8254 98.7965 29.8254H98.5545H98.615Z" fill="white"/>
</g>
<defs>
<linearGradient id="paint0_linear_1_73" x1="61.1401" y1="38.5714" x2="90.0933" y2="53.688" gradientUnits="userSpaceOnUse">
<stop stop-color="#00BEF2"/>
<stop offset="0.5" stop-color="#009BD9"/>
<stop offset="1" stop-color="#007FC6"/>
</linearGradient>
<clipPath id="clip0_1_73">
<rect width="164" height="95" fill="white"/>
</clipPath>
</defs>
</svg>
