<svg width="24" height="25" viewBox="0 0 24 25" fill="none" xmlns="http://www.w3.org/2000/svg">
<g id="icon/outline/document_edit">
<mask id="mask0_776_9862" style="mask-type:alpha" maskUnits="userSpaceOnUse" x="0" y="0" width="24" height="25">
<rect id="Bounding box" y="0.778198" width="24" height="24" fill="#D9D9D9"/>
</mask>
<g mask="url(#mask0_776_9862)">
<path id="edit_square" d="M5.61538 20.7782C5.15513 20.7782 4.77083 20.624 4.4625 20.3157C4.15417 20.0074 4 19.6231 4 19.1628V6.39357C4 5.93332 4.15417 5.54903 4.4625 5.2407C4.77083 4.93236 5.15513 4.7782 5.61538 4.7782H12.7942C12.9609 4.7782 13.0859 4.83108 13.1692 4.93685C13.2526 5.04261 13.2942 5.1564 13.2942 5.2782C13.2942 5.4 13.2516 5.51378 13.1664 5.61955C13.0811 5.72531 12.9551 5.7782 12.7885 5.7782H5.61538C5.46154 5.7782 5.32052 5.8423 5.1923 5.9705C5.0641 6.09871 5 6.23974 5 6.39357V19.1628C5 19.3167 5.0641 19.4577 5.1923 19.5859C5.32052 19.7141 5.46154 19.7782 5.61538 19.7782H18.3846C18.5385 19.7782 18.6795 19.7141 18.8077 19.5859C18.9359 19.4577 19 19.3167 19 19.1628V11.8878C19 11.7212 19.0529 11.5962 19.1587 11.5128C19.2644 11.4295 19.3782 11.3878 19.5 11.3878C19.6218 11.3878 19.7356 11.4295 19.8413 11.5128C19.9471 11.5962 20 11.7212 20 11.8878V19.1628C20 19.6231 19.8458 20.0074 19.5375 20.3157C19.2292 20.624 18.8449 20.7782 18.3846 20.7782H5.61538ZM10 13.9705V12.834C10 12.6186 10.0436 12.4093 10.1308 12.2061C10.2179 12.0029 10.334 11.8288 10.4788 11.684L18.9442 3.21857C19.0545 3.10832 19.1705 3.03204 19.2923 2.98972C19.4141 2.94742 19.5423 2.92627 19.6769 2.92627C19.8026 2.92627 19.9253 2.94742 20.0452 2.98972C20.1651 3.03204 20.2737 3.10191 20.3712 3.19935L21.4827 4.2782C21.5891 4.38845 21.6699 4.50992 21.725 4.64262C21.7801 4.7753 21.8077 4.90895 21.8077 5.04357C21.8077 5.17819 21.7875 5.30544 21.7471 5.42532C21.7067 5.54519 21.6314 5.66025 21.5212 5.77052L12.9981 14.2936C12.8532 14.4385 12.6792 14.5554 12.476 14.6445C12.2728 14.7336 12.0635 14.7782 11.8481 14.7782H10.8077C10.5756 14.7782 10.383 14.7016 10.2298 14.5484C10.0766 14.3952 10 14.2026 10 13.9705ZM11 13.7782H12.0923L18.7577 7.11282L18.2115 6.56667L17.6019 5.98205L11 12.584V13.7782Z" fill="#DB0011"/>
</g>
</g>
</svg>
