<svg width="25" height="24" viewBox="0 0 25 24" fill="none" xmlns="http://www.w3.org/2000/svg">
    <mask id="fuklfturha" style="mask-type:alpha" maskUnits="userSpaceOnUse" x="0" y="0" width="25" height="24">
        <path fill="#D9D9D9" d="M.812 0h24v24h-24z"/>
    </mask>
    <g mask="url(#fuklfturha)">
        <path d="M12.812 14.373a.82.82 0 0 1-.298-.053.786.786 0 0 1-.267-.183L7.858 9.748a.504.504 0 0 1-.15-.344.467.467 0 0 1 .15-.364.49.49 0 0 1 .354-.16.49.49 0 0 1 .354.16l4.246 4.247 4.246-4.247a.503.503 0 0 1 .344-.15.468.468 0 0 1 .364.15.49.49 0 0 1 .16.354.49.49 0 0 1-.16.354l-4.389 4.389a.786.786 0 0 1-.267.183.82.82 0 0 1-.298.053z" fill="#767676"/>
    </g>
</svg>
