<svg width="24" height="25" viewBox="0 0 24 25" fill="none" xmlns="http://www.w3.org/2000/svg">
<g id="icon/outline/edit">
<mask id="mask0_1_4385" style="mask-type:alpha" maskUnits="userSpaceOnUse" x="0" y="0" width="24" height="25">
<rect id="Bounding box" y="0.779175" width="24" height="24" fill="#D9D9D9"/>
</mask>
<g mask="url(#mask0_1_4385)">
<g id="Vector">
<path d="M5 19.7792H6.09808L16.7962 9.0811L15.6981 7.98302L5 18.6811V19.7792ZM4.80768 20.7792C4.57884 20.7792 4.38702 20.7018 4.2322 20.547C4.0774 20.3922 4 20.2003 4 19.9715V18.9311C4 18.71 4.04359 18.4993 4.13078 18.2989C4.21794 18.0986 4.33397 17.926 4.47885 17.7811L17.1808 5.0657C17.2832 4.97435 17.3963 4.90376 17.5201 4.85392C17.6439 4.80409 17.7729 4.77917 17.9072 4.77917C18.0416 4.77917 18.1717 4.80033 18.2977 4.84263C18.4236 4.88494 18.5398 4.96123 18.6462 5.07148L19.7135 6.14455C19.8237 6.25097 19.899 6.3677 19.9394 6.49475C19.9798 6.6218 20 6.74885 20 6.8759C20 7.01142 19.9772 7.14107 19.9315 7.26485C19.8858 7.38863 19.8131 7.50174 19.7135 7.60417L6.99808 20.3003C6.85321 20.4452 6.6806 20.5612 6.48025 20.6484C6.27988 20.7356 6.06916 20.7792 5.84808 20.7792H4.80768ZM16.2375 8.5417L15.6981 7.98302L16.7962 9.0811L16.2375 8.5417Z" fill="#DB0011"/>
<path fill-rule="evenodd" clip-rule="evenodd" d="M8.6875 20.251C8.6875 19.9748 8.91136 19.751 9.1875 19.751H19.5625C19.8386 19.751 20.0625 19.9748 20.0625 20.251C20.0625 20.5271 19.8386 20.751 19.5625 20.751H9.1875C8.91136 20.751 8.6875 20.5271 8.6875 20.251Z" fill="#FFFFFF"/>
</g>
</g>
</g>
</svg>
