<svg width="24" height="24" viewBox="0 0 24 24" fill="none" xmlns="http://www.w3.org/2000/svg">
<mask id="mask0_248_1088" style="mask-type:alpha" maskUnits="userSpaceOnUse" x="0" y="0" width="24" height="24">
<rect width="24" height="24" fill="#FFFFFF"/>
</mask>
<g mask="url(#mask0_248_1088)">
<path d="M15.4464 12.6461L14.6502 11.85C14.8079 10.9538 14.5691 10.19 13.9339 9.55863C13.2986 8.92723 12.5374 8.69101 11.6502 8.84998L10.8541 8.05383C11.0348 7.97178 11.2207 7.91664 11.4117 7.88843C11.6028 7.86023 11.7989 7.84613 12.0002 7.84613C13.0195 7.84613 13.8832 8.20029 14.5916 8.90863C15.2999 9.61696 15.6541 10.4807 15.6541 11.5C15.6541 11.7013 15.6432 11.8974 15.6214 12.0885C15.5996 12.2795 15.5413 12.4654 15.4464 12.6461ZM18.6079 15.7192L17.8502 15.05C18.4836 14.5666 19.0502 14.0291 19.5502 13.4375C20.0502 12.8458 20.4669 12.2 20.8002 11.5C19.9669 9.81664 18.7627 8.47914 17.1877 7.48748C15.6127 6.49581 13.8836 5.99998 12.0002 5.99998C11.5169 5.99998 11.0461 6.03331 10.5877 6.09998C10.1294 6.16664 9.66689 6.26664 9.20022 6.39998L8.41945 5.6192C8.99125 5.39997 9.57555 5.24195 10.1723 5.14515C10.7691 5.04837 11.3784 4.99998 12.0002 4.99998C14.0143 4.99998 15.8743 5.51664 17.58 6.54998C19.2858 7.58331 20.6066 8.98843 21.5425 10.7654C21.6092 10.8859 21.656 11.0041 21.6829 11.1202C21.7098 11.2362 21.7233 11.3628 21.7233 11.5C21.7233 11.6372 21.7108 11.7638 21.6858 11.8798C21.6608 11.9958 21.615 12.1141 21.5483 12.2346C21.2073 12.9231 20.7855 13.5586 20.2829 14.1413C19.7804 14.724 19.222 15.25 18.6079 15.7192ZM12.0002 18C10.0233 18 8.206 17.4791 6.5483 16.4375C4.8906 15.3958 3.56046 14.0199 2.5579 12.3096C2.47456 12.1891 2.41527 12.0593 2.38002 11.9202C2.34477 11.7811 2.32715 11.641 2.32715 11.5C2.32715 11.3589 2.34382 11.2198 2.37715 11.0827C2.41048 10.9455 2.46882 10.8147 2.55215 10.6904C2.9624 9.99805 3.41721 9.34133 3.91657 8.72018C4.41592 8.09901 4.99381 7.55125 5.65022 7.0769L3.20982 4.63075C3.11624 4.53332 3.06721 4.41761 3.06272 4.28363C3.05822 4.14966 3.10918 4.02947 3.2156 3.92305C3.32202 3.81663 3.43997 3.76343 3.56945 3.76343C3.69893 3.76343 3.81688 3.81663 3.9233 3.92305L20.0771 20.0769C20.1707 20.1705 20.2217 20.2843 20.23 20.4183C20.2384 20.5522 20.1874 20.6743 20.0771 20.7846C19.9707 20.891 19.8528 20.9442 19.7233 20.9442C19.5938 20.9442 19.4759 20.891 19.3694 20.7846L15.831 17.2577C15.2348 17.5308 14.6143 17.7227 13.9694 17.8336C13.3246 17.9445 12.6682 18 12.0002 18ZM6.3579 7.7846C5.66945 8.25639 5.05792 8.8051 4.5233 9.43075C3.98868 10.0564 3.54766 10.7461 3.20022 11.5C4.03356 13.1833 5.23772 14.5208 6.81272 15.5125C8.38772 16.5041 10.1169 17 12.0002 17C12.5259 17 13.0464 16.9631 13.5617 16.8894C14.0771 16.8157 14.5784 16.6833 15.0656 16.4923L13.4348 14.85C13.213 14.9769 12.9836 15.0593 12.7464 15.0971C12.5092 15.1349 12.2605 15.1538 12.0002 15.1538C10.981 15.1538 10.1172 14.7997 9.40887 14.0913C8.70054 13.383 8.34637 12.5192 8.34637 11.5C8.34637 11.2397 8.36849 10.991 8.41272 10.7538C8.45696 10.5166 8.53612 10.2872 8.65022 10.0654L6.3579 7.7846Z" fill="black"/>
</g>
</svg>
