<svg width="24" height="24" viewBox="0 0 24 24" fill="none" xmlns="http://www.w3.org/2000/svg">
<mask id="mask0_247_1066" style="mask-type:alpha" maskUnits="userSpaceOnUse" x="0" y="0" width="24" height="24">
<rect width="24" height="24" fill="#D9D9D9"/>
</mask>
<g mask="url(#mask0_247_1066)">
<path d="M12.0044 15.1538C13.0206 15.1538 13.8829 14.7982 14.5912 14.0868C15.2995 13.3755 15.6537 12.5117 15.6537 11.4955C15.6537 10.4793 15.298 9.61698 14.5867 8.90865C13.8753 8.20032 13.0115 7.84615 11.9953 7.84615C10.9791 7.84615 10.1168 8.20182 9.40849 8.91317C8.70016 9.62452 8.34599 10.4883 8.34599 11.5045C8.34599 12.5207 8.70167 13.383 9.41302 14.0913C10.1244 14.7997 10.9882 15.1538 12.0044 15.1538ZM11.9998 14.2C11.2498 14.2 10.6123 13.9375 10.0873 13.4125C9.56234 12.8875 9.29984 12.25 9.29984 11.5C9.29984 10.75 9.56234 10.1125 10.0873 9.5875C10.6123 9.0625 11.2498 8.8 11.9998 8.8C12.7498 8.8 13.3873 9.0625 13.9123 9.5875C14.4373 10.1125 14.6998 10.75 14.6998 11.5C14.6998 12.25 14.4373 12.8875 13.9123 13.4125C13.3873 13.9375 12.7498 14.2 11.9998 14.2ZM11.9998 18C10.0229 18 8.20979 17.4769 6.56042 16.4308C4.91105 15.3846 3.57868 14.0128 2.56329 12.3154C2.47996 12.1782 2.42067 12.043 2.38542 11.9096C2.35015 11.7763 2.33252 11.6394 2.33252 11.499C2.33252 11.3586 2.35015 11.2221 2.38542 11.0894C2.42067 10.9567 2.47996 10.8218 2.56329 10.6846C3.57868 8.98717 4.91105 7.61537 6.56042 6.56922C8.20979 5.52307 10.0229 5 11.9998 5C13.9768 5 15.7899 5.52307 17.4393 6.56922C19.0886 7.61537 20.421 8.98717 21.4364 10.6846C21.5197 10.8218 21.579 10.9571 21.6143 11.0904C21.6495 11.2238 21.6672 11.3606 21.6672 11.501C21.6672 11.6414 21.6495 11.7779 21.6143 11.9106C21.579 12.0433 21.5197 12.1782 21.4364 12.3154C20.421 14.0128 19.0886 15.3846 17.4393 16.4308C15.7899 17.4769 13.9768 18 11.9998 18ZM11.9998 17C13.8832 17 15.6123 16.5042 17.1873 15.5125C18.7623 14.5208 19.9665 13.1833 20.7998 11.5C19.9665 9.81667 18.7623 8.47917 17.1873 7.4875C15.6123 6.49583 13.8832 6 11.9998 6C10.1165 6 8.38734 6.49583 6.81234 7.4875C5.23734 8.47917 4.03318 9.81667 3.19984 11.5C4.03318 13.1833 5.23734 14.5208 6.81234 15.5125C8.38734 16.5042 10.1165 17 11.9998 17Z" fill="black"/>
</g>
</svg>
