<svg width="24" height="25" viewBox="0 0 24 25" fill="none" xmlns="http://www.w3.org/2000/svg">
<g id="icon/outline/filter">
<mask id="mask0_381_26268" style="mask-type:alpha" maskUnits="userSpaceOnUse" x="0" y="0" width="24" height="25">
<rect id="Bounding box" y="0.778198" width="24" height="24" fill="#D9D9D9"/>
</mask>
<g mask="url(#mask0_381_26268)">
<g id="Union">
<path fill-rule="evenodd" clip-rule="evenodd" d="M17.4868 7.2782C17.2489 8.11693 16.4775 8.73132 15.5625 8.73132C14.4579 8.73132 13.5625 7.83589 13.5625 6.73132C13.5625 5.62675 14.4579 4.73132 15.5625 4.73132C16.5112 4.73132 17.3057 5.3919 17.511 6.2782H20C20.1417 6.2782 20.2604 6.32618 20.3563 6.42215C20.4521 6.5181 20.5 6.63701 20.5 6.77887C20.5 6.92074 20.4521 7.03942 20.3563 7.13492C20.2604 7.23044 20.1417 7.2782 20 7.2782H17.4868ZM16.5625 6.73132C16.5625 7.28361 16.1148 7.73132 15.5625 7.73132C15.0102 7.73132 14.5625 7.28361 14.5625 6.73132C14.5625 6.17904 15.0102 5.73132 15.5625 5.73132C16.1148 5.73132 16.5625 6.17904 16.5625 6.73132Z" fill="black"/>
<path d="M4 19.2782C3.85833 19.2782 3.73958 19.2302 3.64375 19.1342C3.54792 19.0383 3.5 18.9194 3.5 18.7775C3.5 18.6357 3.54792 18.517 3.64375 18.4215C3.73958 18.326 3.85833 18.2782 4 18.2782H9C9.14167 18.2782 9.26042 18.3262 9.35625 18.4221C9.45208 18.5181 9.5 18.637 9.5 18.7789C9.5 18.9207 9.45208 19.0394 9.35625 19.1349C9.26042 19.2304 9.14167 19.2782 9 19.2782H4Z" fill="black"/>
<path d="M12 13.2782C11.8583 13.2782 11.7396 13.2302 11.6438 13.1342C11.5479 13.0383 11.5 12.9194 11.5 12.7775C11.5 12.6357 11.5479 12.517 11.6438 12.4215C11.7396 12.326 11.8583 12.2782 12 12.2782H20C20.1417 12.2782 20.2604 12.3262 20.3563 12.4221C20.4521 12.5181 20.5 12.637 20.5 12.7789C20.5 12.9207 20.4521 13.0394 20.3563 13.1349C20.2604 13.2304 20.1417 13.2782 20 13.2782H12Z" fill="black"/>
<path d="M4 7.2782C3.85833 7.2782 3.73958 7.23022 3.64375 7.13425C3.54792 7.0383 3.5 6.91939 3.5 6.77752C3.5 6.63566 3.54792 6.51697 3.64375 6.42147C3.73958 6.32596 3.85833 6.2782 4 6.2782H12C12.1417 6.2782 12.2604 6.32618 12.3562 6.42215C12.4521 6.5181 12.5 6.63701 12.5 6.77887C12.5 6.92074 12.4521 7.03942 12.3562 7.13492C12.2604 7.23044 12.1417 7.2782 12 7.2782H4Z" fill="black"/>
<path fill-rule="evenodd" clip-rule="evenodd" d="M4 13.2782C3.85833 13.2782 3.73958 13.2302 3.64375 13.1342C3.54792 13.0383 3.5 12.9194 3.5 12.7775C3.5 12.6357 3.54792 12.517 3.64375 12.4215C3.73958 12.326 3.85833 12.2782 4 12.2782H6.37551C6.59753 11.4156 7.38058 10.7782 8.3125 10.7782C9.41707 10.7782 10.3125 11.6736 10.3125 12.7782C10.3125 13.8828 9.41707 14.7782 8.3125 14.7782C7.38058 14.7782 6.59753 14.1408 6.37551 13.2782H4ZM7.34375 12.7789C7.34375 12.8319 7.33706 12.8817 7.32368 12.9282C7.39605 13.4093 7.8112 13.7782 8.3125 13.7782C8.86478 13.7782 9.3125 13.3305 9.3125 12.7782C9.3125 12.2259 8.86478 11.7782 8.3125 11.7782C7.81091 11.7782 7.39558 12.1475 7.32355 12.629C7.33702 12.6757 7.34375 12.7257 7.34375 12.7789Z" fill="black"/>
<path fill-rule="evenodd" clip-rule="evenodd" d="M14.5556 18.2782C14.374 17.3606 13.5646 16.6688 12.5938 16.6688C11.4892 16.6688 10.5938 17.5643 10.5938 18.6688C10.5938 19.7734 11.4892 20.6688 12.5938 20.6688C13.4858 20.6688 14.2415 20.0848 14.4992 19.2782H20C20.1417 19.2782 20.2604 19.2304 20.3563 19.1349C20.4521 19.0394 20.5 18.9207 20.5 18.7789C20.5 18.637 20.4521 18.5181 20.3563 18.4221C20.2604 18.3262 20.1417 18.2782 20 18.2782H14.5556ZM13.5938 18.6688C13.5938 19.2211 13.146 19.6688 12.5938 19.6688C12.0415 19.6688 11.5938 19.2211 11.5938 18.6688C11.5938 18.1165 12.0415 17.6688 12.5938 17.6688C13.146 17.6688 13.5938 18.1165 13.5938 18.6688Z" fill="black"/>
</g>
</g>
</g>
</svg>
