<svg width="25" height="25" viewBox="0 0 25 25" fill="none" xmlns="http://www.w3.org/2000/svg">
<g id="icon/outline/tick">
<mask id="mask0_2021_11307" style="mask-type:alpha" maskUnits="userSpaceOnUse" x="0" y="0" width="25" height="25">
<rect id="Bounding box" x="0.5" y="0.778198" width="24" height="24" fill="#D9D9D9"/>
</mask>
<g mask="url(#mask0_2021_11307)">
<path id="check" d="M10.05 16.659L18.852 7.85705C18.9494 7.75962 19.0651 7.70769 19.1991 7.70127C19.333 7.69486 19.4552 7.74678 19.5654 7.85705C19.6757 7.9673 19.7308 8.08621 19.7308 8.21377C19.7308 8.34134 19.6757 8.46025 19.5654 8.5705L10.6154 17.5205C10.4539 17.682 10.2654 17.7628 10.05 17.7628C9.83465 17.7628 9.64619 17.682 9.48466 17.5205L5.43466 13.4705C5.33721 13.3731 5.28624 13.2574 5.28176 13.1234C5.27727 12.9894 5.33016 12.8673 5.44041 12.757C5.55067 12.6468 5.66959 12.5916 5.79716 12.5916C5.92472 12.5916 6.04363 12.6468 6.15388 12.757L10.05 16.659Z" fill="#00847F"/>
</g>
</g>
</svg>
