<svg width="38" height="35" viewBox="0 0 38 35" fill="none" xmlns="http://www.w3.org/2000/svg">
<g id="Group 3">
<path id="Rectangle 1 (Stroke)" fill-rule="evenodd" clip-rule="evenodd" d="M4.93417 9C4.95604 9 4.97799 9 5 9L33.0658 9C33.9523 8.99995 34.7161 8.99991 35.3278 9.08215C35.9833 9.17028 36.6117 9.36902 37.1213 9.87868C37.631 10.3883 37.8297 11.0167 37.9179 11.6722C38.0001 12.2839 38.0001 13.0477 38 13.9341V17.032C38 17.4706 38 17.8491 37.9787 18.1624C37.9562 18.4922 37.9066 18.8221 37.7716 19.1481C37.4672 19.8831 36.8831 20.4672 36.1481 20.7716C35.8221 20.9066 35.4922 20.9562 35.1624 20.9787C34.8491 21 34.4706 21 34.032 21H34C33.5204 21 33.2107 21.0005 32.9738 21.0167C32.7458 21.0323 32.6589 21.0589 32.6173 21.0761C32.3723 21.1776 32.1776 21.3723 32.0761 21.6173C32.0589 21.6589 32.0323 21.7458 32.0167 21.9738C32.0005 22.2107 32 22.5204 32 23L32 30.0658C32.0001 30.9523 32.0001 31.7161 31.9179 32.3278C31.8297 32.9833 31.631 33.6117 31.1213 34.1213C30.6117 34.631 29.9833 34.8297 29.3278 34.9179C28.7161 35.0001 27.9523 35.0001 27.0658 35H10.9342C10.0477 35.0001 9.28388 35.0001 8.67221 34.9179C8.0167 34.8297 7.38835 34.631 6.87868 34.1213C6.36902 33.6117 6.17028 32.9833 6.08215 32.3278C5.99991 31.7161 5.99995 30.9523 6 30.0658L6 23C6 22.5204 5.99946 22.2107 5.98329 21.9738C5.96774 21.7458 5.94112 21.6589 5.92388 21.6173C5.82239 21.3723 5.62772 21.1776 5.38269 21.0761C5.34107 21.0589 5.25424 21.0323 5.02625 21.0167C4.78926 21.0005 4.47963 21 4 21H3.96802C3.52937 21 3.15088 21 2.83762 20.9787C2.50779 20.9562 2.17788 20.9066 1.85195 20.7716C1.11687 20.4672 0.532848 19.8831 0.228366 19.1481C0.0933623 18.8221 0.0438585 18.4922 0.0213545 18.1624C-1.90176e-05 17.8491 -8.16971e-06 17.4706 4.10885e-06 17.032L4.82411e-06 14C4.82411e-06 13.978 3.63201e-06 13.956 2.43992e-06 13.9342C-4.73896e-05 13.0477 -9.01893e-05 12.2839 0.0821453 11.6722C0.170277 11.0167 0.369022 10.3883 0.878684 9.87868C1.38835 9.36902 2.0167 9.17028 2.67221 9.08215C3.28387 8.99991 4.04769 8.99995 4.93417 9ZM2.93871 11.0643C2.50497 11.1226 2.36902 11.2168 2.2929 11.2929C2.21677 11.369 2.12263 11.505 2.06431 11.9387C2.00213 12.4012 2 13.0289 2 14V17C2 17.4796 2.00055 17.7893 2.01672 18.0262C2.03227 18.2542 2.05889 18.3411 2.07613 18.3827C2.17762 18.6277 2.37229 18.8224 2.61732 18.9239C2.65894 18.9411 2.74577 18.9677 2.97376 18.9833C3.21074 18.9995 3.52038 19 4 19H4.03199C4.47064 19 4.84913 19 5.16239 19.0214C5.49222 19.0439 5.82213 19.0934 6.14806 19.2284C6.88314 19.5328 7.46716 20.1169 7.77164 20.852C7.90665 21.1779 7.95615 21.5078 7.97866 21.8376C8.00003 22.1509 8.00002 22.5294 8.00001 22.968L8 30C8 30.9711 8.00213 31.5988 8.06431 32.0613C8.12263 32.495 8.21677 32.631 8.2929 32.7071C8.36902 32.7832 8.50497 32.8774 8.93871 32.9357C9.40122 32.9979 10.0289 33 11 33H27C27.9711 33 28.5988 32.9979 29.0613 32.9357C29.495 32.8774 29.631 32.7832 29.7071 32.7071C29.7832 32.631 29.8774 32.495 29.9357 32.0613C29.9979 31.5988 30 30.9711 30 30V22.968C30 22.5294 30 22.1509 30.0214 21.8376C30.0439 21.5078 30.0934 21.1779 30.2284 20.852C30.5328 20.1169 31.1169 19.5328 31.852 19.2284C32.1779 19.0934 32.5078 19.0439 32.8376 19.0214C33.1509 19 33.5294 19 33.968 19H34C34.4796 19 34.7893 18.9995 35.0262 18.9833C35.2542 18.9677 35.3411 18.9411 35.3827 18.9239C35.6277 18.8224 35.8224 18.6277 35.9239 18.3827C35.9411 18.3411 35.9677 18.2542 35.9833 18.0262C35.9995 17.7893 36 17.4796 36 17V14C36 13.0289 35.9979 12.4012 35.9357 11.9387C35.8774 11.505 35.7832 11.369 35.7071 11.2929C35.631 11.2168 35.495 11.1226 35.0613 11.0643C34.5988 11.0021 33.9711 11 33 11H5C4.02893 11 3.40122 11.0021 2.93871 11.0643Z" fill="white"/>
<path id="Vector 3 (Stroke)" fill-rule="evenodd" clip-rule="evenodd" d="M4 20C4 19.4477 4.44772 19 5 19H33C33.5523 19 34 19.4477 34 20C34 20.5523 33.5523 21 33 21H5C4.44772 21 4 20.5523 4 20Z" fill="white"/>
<path id="Vector 4 (Stroke)" fill-rule="evenodd" clip-rule="evenodd" d="M19 7C19.5523 7 20 7.44772 20 8L20 34C20 34.5523 19.5523 35 19 35C18.4477 35 18 34.5523 18 34L18 8C18 7.44772 18.4477 7 19 7Z" fill="white"/>
<path id="Vector 208 (Stroke)" fill-rule="evenodd" clip-rule="evenodd" d="M9.33298 2.49841C7.69329 1.95185 6 3.1723 6 4.90068V5.2649C6 6.46784 6.76975 7.53582 7.91096 7.91622L11.3162 9.05131C11.8402 9.22596 12.1233 9.79228 11.9487 10.3162C11.774 10.8402 11.2077 11.1233 10.6838 10.9487L7.27851 9.81359C5.32061 9.16096 4 7.3287 4 5.2649V4.90068C4 1.80718 7.03068 -0.377208 9.96543 0.601043C12.9739 1.60387 15.7076 3.29338 17.95 5.53577L19.7071 7.29289C20.0976 7.68341 20.0976 8.31657 19.7071 8.7071C19.3166 9.09762 18.6834 9.09762 18.2929 8.7071L16.5358 6.94999C14.5129 4.92714 12.0469 3.40305 9.33298 2.49841Z" fill="white"/>
<path id="Vector 209 (Stroke)" fill-rule="evenodd" clip-rule="evenodd" d="M28.667 2.49841C30.3067 1.95185 32 3.1723 32 4.90068V5.2649C32 6.46784 31.2302 7.53582 30.089 7.91622L26.6838 9.05131C26.1598 9.22596 25.8767 9.79228 26.0513 10.3162C26.226 10.8402 26.7923 11.1233 27.3162 10.9487L30.7215 9.81359C32.6794 9.16096 34 7.3287 34 5.2649V4.90068C34 1.80718 30.9693 -0.377208 28.0346 0.601043C25.0261 1.60387 22.2924 3.29338 20.05 5.53577L18.2929 7.29289C17.9024 7.68341 17.9024 8.31657 18.2929 8.7071C18.6834 9.09762 19.3166 9.09762 19.7071 8.7071L21.4642 6.94999C23.4871 4.92714 25.9531 3.40305 28.667 2.49841Z" fill="white"/>
</g>
</svg>
