<svg width="32" height="32" viewBox="0 0 32 32" fill="none" xmlns="http://www.w3.org/2000/svg">
<g id="icon/outline/hash">
<mask id="mask0_2702_9003" style="mask-type:alpha" maskUnits="userSpaceOnUse" x="0" y="0" width="32" height="32">
<rect id="Bounding box" width="32" height="32" fill="#D9D9D9"/>
</mask>
<g mask="url(#mask0_2702_9003)">
<path id="tag" d="M12.1283 20.1026L10.9001 24.9821C10.8676 25.1342 10.8 25.2479 10.6975 25.3231C10.5949 25.3983 10.465 25.4359 10.3078 25.4359C10.1078 25.4359 9.94279 25.3547 9.81285 25.1923C9.68294 25.0299 9.64791 24.8513 9.70775 24.6564L10.8462 20.1026H6.87952C6.6573 20.1026 6.47696 20.0201 6.33852 19.8551C6.20005 19.6902 6.16073 19.4991 6.22055 19.2821C6.27013 19.1248 6.35304 19 6.46929 18.9077C6.58551 18.8154 6.72225 18.7692 6.87952 18.7692H11.1795L12.5642 13.2308H8.59749C8.37526 13.2308 8.19492 13.1483 8.05645 12.9833C7.91799 12.8184 7.87868 12.6273 7.93852 12.4103C7.98808 12.253 8.07098 12.1282 8.18722 12.0359C8.30346 11.9436 8.44022 11.8974 8.59749 11.8974H12.8975L14.1257 7.01792C14.1582 6.86579 14.2257 6.75211 14.3283 6.67689C14.4308 6.60169 14.5607 6.56409 14.718 6.56409C14.918 6.56409 15.083 6.64529 15.2129 6.80769C15.3428 6.97007 15.3778 7.1487 15.318 7.34359L14.1796 11.8974H19.8719L21.1001 7.01792C21.1325 6.86579 21.2001 6.75211 21.3026 6.67689C21.4052 6.60169 21.5351 6.56409 21.6924 6.56409C21.8924 6.56409 22.0573 6.64529 22.1873 6.80769C22.3172 6.97007 22.3522 7.1487 22.2924 7.34359L21.1539 11.8974H25.1206C25.3428 11.8974 25.5231 11.9799 25.6616 12.1449C25.8001 12.3098 25.8394 12.5008 25.7796 12.7179C25.73 12.8752 25.6471 13 25.5308 13.0923C25.4146 13.1846 25.2779 13.2308 25.1206 13.2308H20.8206L19.436 18.7692H23.4026C23.6248 18.7692 23.8052 18.8517 23.9437 19.0167C24.0821 19.1816 24.1214 19.3726 24.0616 19.5897C24.012 19.747 23.9291 19.8718 23.8129 19.9641C23.6966 20.0564 23.5599 20.1026 23.4026 20.1026H19.1026L17.8744 24.9821C17.8419 25.1342 17.7744 25.2479 17.6719 25.3231C17.5693 25.3983 17.4394 25.4359 17.2821 25.4359C17.0821 25.4359 16.9172 25.3547 16.7872 25.1923C16.6573 25.0299 16.6223 24.8513 16.6821 24.6564L17.8206 20.1026H12.1283ZM12.4616 18.7692H18.1539L19.5385 13.2308H13.8462L12.4616 18.7692Z" fill="#7878B0"/>
</g>
</g>
</svg>
