<svg width="24" height="24" viewBox="0 0 24 24" fill="none" xmlns="http://www.w3.org/2000/svg">
<g id="icon/outline/help">
<mask id="mask0_485_10230" style="mask-type:alpha" maskUnits="userSpaceOnUse" x="0" y="0" width="24" height="24">
<rect id="Bounding box" width="24" height="24" fill="#D9D9D9"/>
</mask>
<g mask="url(#mask0_485_10230)">
<path id="help" d="M12.028 17.2308C12.2491 17.2308 12.4356 17.1545 12.5875 17.0018C12.7394 16.8492 12.8154 16.6623 12.8154 16.4412C12.8154 16.2202 12.7391 16.0337 12.5864 15.8817C12.4338 15.7298 12.2469 15.6538 12.0259 15.6538C11.8048 15.6538 11.6183 15.7302 11.4663 15.8828C11.3144 16.0355 11.2385 16.2223 11.2385 16.4434C11.2385 16.6645 11.3148 16.851 11.4674 17.0029C11.6201 17.1548 11.8069 17.2308 12.028 17.2308ZM12.0034 21C10.7588 21 9.58872 20.7638 8.4931 20.2915C7.39748 19.8192 6.44444 19.1782 5.63397 18.3685C4.82352 17.5588 4.18192 16.6066 3.70915 15.512C3.23638 14.4174 3 13.2479 3 12.0034C3 10.7588 3.23616 9.58872 3.70848 8.4931C4.18081 7.39748 4.82183 6.44444 5.63153 5.63398C6.44123 4.82353 7.39337 4.18192 8.48795 3.70915C9.58255 3.23638 10.7521 3 11.9966 3C13.2412 3 14.4113 3.23616 15.5069 3.70847C16.6025 4.18081 17.5556 4.82182 18.366 5.63152C19.1765 6.44122 19.8181 7.39337 20.2908 8.48795C20.7636 9.58255 21 10.7521 21 11.9966C21 13.2412 20.7638 14.4113 20.2915 15.5069C19.8192 16.6025 19.1782 17.5556 18.3685 18.366C17.5588 19.1765 16.6066 19.8181 15.512 20.2909C14.4174 20.7636 13.2479 21 12.0034 21ZM12 20C14.2333 20 16.125 19.225 17.675 17.675C19.225 16.125 20 14.2333 20 12C20 9.76667 19.225 7.875 17.675 6.325C16.125 4.775 14.2333 4 12 4C9.76667 4 7.875 4.775 6.325 6.325C4.775 7.875 4 9.76667 4 12C4 14.2333 4.775 16.125 6.325 17.675C7.875 19.225 9.76667 20 12 20ZM12.062 7.73845C12.5681 7.73845 13.0042 7.8956 13.3702 8.2099C13.7362 8.52418 13.9192 8.91703 13.9192 9.38845C13.9192 9.75512 13.8163 10.0865 13.6106 10.3827C13.4048 10.6788 13.1667 10.9519 12.8962 11.2019C12.5535 11.5126 12.2518 11.8544 11.9911 12.2273C11.7304 12.6001 11.5808 13.0109 11.5423 13.4596C11.5295 13.5904 11.5702 13.6997 11.6644 13.7875C11.7587 13.8753 11.8686 13.9192 11.9942 13.9192C12.1288 13.9192 12.242 13.8744 12.3337 13.7846C12.4253 13.6949 12.4833 13.5891 12.5077 13.4673C12.5744 13.1301 12.7083 12.8304 12.9096 12.5683C13.1109 12.3061 13.3317 12.0578 13.5721 11.8234C13.9176 11.4796 14.2247 11.1049 14.4933 10.6993C14.7619 10.2938 14.8962 9.84145 14.8962 9.3423C14.8962 8.60768 14.6176 8.00159 14.0606 7.52402C13.5035 7.04646 12.85 6.80768 12.1 6.80768C11.5436 6.80768 11.026 6.93781 10.5471 7.19807C10.0683 7.45832 9.68526 7.81858 9.39808 8.27885C9.33269 8.3891 9.31175 8.50316 9.33525 8.62103C9.35875 8.73887 9.42222 8.82836 9.52565 8.88947C9.65727 8.95931 9.79038 8.97563 9.925 8.93845C10.0596 8.90128 10.1782 8.82373 10.2808 8.70578C10.5026 8.43013 10.7638 8.19999 11.0644 8.01537C11.3651 7.83076 11.6976 7.73845 12.062 7.73845Z" fill="black"/>
</g>
</g>
</svg>
