<svg width="25" height="25" viewBox="0 0 25 25" fill="none" xmlns="http://www.w3.org/2000/svg">
    <mask id="jui4my40ja" style="mask-type:alpha" maskUnits="userSpaceOnUse" x="0" y="0" width="25" height="25">
        <path fill="#D9D9D9" d="M.5.5h24v24H.5z"/>
    </mask>
    <g mask="url(#jui4my40ja)">
        <path d="M5.5 19.5v-8.692a1.604 1.604 0 0 1 .646-1.293l5.385-4.077c.282-.215.604-.323.966-.323s.686.108.972.323l5.385 4.077a1.605 1.605 0 0 1 .646 1.292V19.5a.96.96 0 0 1-.299.7c-.2.2-.433.3-.701.3h-3.385a.781.781 0 0 1-.575-.232.782.782 0 0 1-.232-.576v-4.77a.781.781 0 0 0-.232-.575.781.781 0 0 0-.576-.232h-2a.781.781 0 0 0-.575.232.781.781 0 0 0-.233.576v4.77c0 .228-.077.42-.232.575a.781.781 0 0 1-.575.232H6.5a.96.96 0 0 1-.701-.3.96.96 0 0 1-.299-.7z" fill=""/>
    </g>
</svg>
