<svg width="24" height="24" viewBox="0 0 24 24" fill="none" xmlns="http://www.w3.org/2000/svg">
    <mask id="sc5wwjuwla" style="mask-type:alpha" maskUnits="userSpaceOnUse" x="0" y="0" width="24" height="24">
        <path fill="#D9D9D9" d="M0 0h24v24H0z"/>
    </mask>
    <g mask="url(#sc5wwjuwla)">
        <path d="M6 19h3.692v-5.077c0-.229.078-.42.233-.575a.781.781 0 0 1 .575-.233h3c.229 0 .42.078.575.232a.781.781 0 0 1 .233.576V19H18v-8.692a.578.578 0 0 0-.067-.28.75.75 0 0 0-.183-.22L12.365 5.75A.537.537 0 0 0 12 5.615a.537.537 0 0 0-.365.135L6.25 9.808a.75.75 0 0 0-.183.22.579.579 0 0 0-.067.28V19zm-1 0v-8.692a1.604 1.604 0 0 1 .646-1.293l5.385-4.077c.282-.215.604-.323.966-.323s.686.108.972.323l5.385 4.077A1.604 1.604 0 0 1 19 10.307V19a.96.96 0 0 1-.299.7c-.2.2-.433.3-.701.3h-3.885a.781.781 0 0 1-.575-.232.782.782 0 0 1-.232-.576v-5.077h-2.616v5.077c0 .229-.077.42-.232.576a.781.781 0 0 1-.575.232H6a.96.96 0 0 1-.701-.3A.96.96 0 0 1 5 19z" fill=""/>
    </g>
</svg>
