<svg width="24" height="25" viewBox="0 0 24 25" fill="none" xmlns="http://www.w3.org/2000/svg">
    <mask id="9mixth6dca" style="mask-type:alpha" maskUnits="userSpaceOnUse" x="0" y="0" width="24" height="25">
        <path fill="#D9D9D9" d="M0 .932h24v24H0z"/>
    </mask>
    <g mask="url(#9mixth6dca)">
        <path d="M12 21.932a8.719 8.719 0 0 1-3.5-.71 9.126 9.126 0 0 1-2.86-1.93 9.126 9.126 0 0 1-1.93-2.86 8.718 8.718 0 0 1-.71-3.5c0-1.243.237-2.41.71-3.503A9.135 9.135 0 0 1 5.64 6.57 9.126 9.126 0 0 1 8.5 4.642a8.719 8.719 0 0 1 3.5-.71c1.242 0 2.41.236 3.503.71a9.136 9.136 0 0 1 2.858 1.93 9.135 9.135 0 0 1 1.928 2.857c.474 1.093.711 2.26.711 3.503a8.719 8.719 0 0 1-.71 3.5 9.126 9.126 0 0 1-1.93 2.86 9.136 9.136 0 0 1-2.857 1.93 8.713 8.713 0 0 1-3.503.71zm0-.993a14.851 14.851 0 0 0 1.452-2.22c.38-.728.69-1.541.929-2.441H9.619c.264.951.58 1.79.948 2.517.368.727.846 1.442 1.433 2.144zm-1.273-.15c-.467-.55-.893-1.23-1.278-2.04a11.727 11.727 0 0 1-.86-2.471H4.753c.573 1.243 1.385 2.263 2.437 3.06a7.353 7.353 0 0 0 3.536 1.451zm2.546 0a7.354 7.354 0 0 0 3.536-1.452c1.052-.796 1.864-1.816 2.437-3.06h-3.834a17.114 17.114 0 0 1-.957 2.492c-.385.81-.78 1.483-1.182 2.02zm-8.927-5.511h4.035c-.076-.41-.13-.81-.16-1.2a14.253 14.253 0 0 1 0-2.293c.03-.39.084-.79.16-1.2H4.346a8.224 8.224 0 0 0-.255 3.56c.061.41.146.787.255 1.133zm5.035 0h5.238c.076-.41.13-.804.16-1.18a14.03 14.03 0 0 0 0-2.333c-.03-.376-.084-.77-.16-1.18H9.381c-.076.41-.13.804-.16 1.18a14.02 14.02 0 0 0-.048 1.167c0 .4.016.79.047 1.166.032.376.085.77.16 1.18zm6.238 0h4.035a8.225 8.225 0 0 0 .255-3.56 7.419 7.419 0 0 0-.255-1.133h-4.035c.076.41.13.81.16 1.2a14.26 14.26 0 0 1 0 2.294c-.03.389-.084.788-.16 1.199zm-.207-5.693h3.834c-.586-1.269-1.389-2.289-2.409-3.06-1.02-.77-2.207-1.26-3.564-1.47.467.614.886 1.316 1.259 2.106.372.79.665 1.599.88 2.424zm-5.793 0h4.762a13.85 13.85 0 0 0-.977-2.546A11.1 11.1 0 0 0 12 4.924a11.1 11.1 0 0 0-1.404 2.115 13.85 13.85 0 0 0-.977 2.546zm-4.865 0h3.834c.215-.825.508-1.633.88-2.424.373-.79.792-1.492 1.259-2.106-1.37.21-2.56.704-3.574 1.48-1.014.777-1.813 1.794-2.4 3.05z" fill="#1E2E42"/>
    </g>
</svg>
