<svg width="24" height="25" viewBox="0 0 24 25" fill="none" xmlns="http://www.w3.org/2000/svg">
<g id="icon/outline/international">
<mask id="mask0_419_32587" style="mask-type:alpha" maskUnits="userSpaceOnUse" x="0" y="0" width="24" height="25">
<rect id="Bounding box" y="0.77832" width="24" height="24" fill="#D9D9D9"/>
</mask>
<g mask="url(#mask0_419_32587)">
<path id="language" d="M12 21.7783C10.7615 21.7783 9.59487 21.5415 8.5 21.0677C7.40513 20.594 6.45161 19.9511 5.63943 19.1389C4.82724 18.3267 4.18429 17.3732 3.71058 16.2783C3.23686 15.1835 3 14.0168 3 12.7783C3 11.536 3.23686 10.3684 3.71058 9.27545C4.18429 8.1825 4.82724 7.22993 5.63943 6.41775C6.45161 5.60556 7.40513 4.96261 8.5 4.48889C9.59487 4.01518 10.7615 3.77832 12 3.77832C13.2423 3.77832 14.4099 4.01518 15.5029 4.48889C16.5958 4.96261 17.5484 5.60556 18.3606 6.41775C19.1728 7.22993 19.8157 8.1825 20.2894 9.27545C20.7631 10.3684 21 11.536 21 12.7783C21 14.0168 20.7631 15.1835 20.2894 16.2783C19.8157 17.3732 19.1728 18.3267 18.3606 19.1389C17.5484 19.9511 16.5958 20.594 15.5029 21.0677C14.4099 21.5415 13.2423 21.7783 12 21.7783ZM12 20.786C12.5872 20.0322 13.0712 19.2918 13.4519 18.5649C13.8327 17.8379 14.1423 17.0245 14.3808 16.1245H9.61923C9.88333 17.0758 10.1993 17.9149 10.5673 18.6418C10.9352 19.3687 11.4128 20.0835 12 20.786ZM10.7269 20.636C10.2603 20.086 9.83429 19.4062 9.44903 18.5966C9.06378 17.787 8.77692 16.9629 8.58845 16.1245H4.75385C5.32693 17.3681 6.13943 18.3879 7.19135 19.1841C8.24327 19.9802 9.42179 20.4642 10.7269 20.636ZM13.2731 20.636C14.5782 20.4642 15.7567 19.9802 16.8087 19.1841C17.8606 18.3879 18.6731 17.3681 19.2462 16.1245H15.4115C15.159 16.9758 14.8401 17.8062 14.4548 18.6158C14.0696 19.4254 13.6756 20.0988 13.2731 20.636ZM4.34615 15.1245H8.38077C8.30512 14.7142 8.2516 14.3145 8.2202 13.9254C8.18878 13.5363 8.17308 13.154 8.17308 12.7783C8.17308 12.4027 8.18878 12.0203 8.2202 11.6312C8.2516 11.2421 8.30512 10.8424 8.38077 10.4322H4.34615C4.23718 10.7783 4.15225 11.1556 4.09135 11.5639C4.03045 11.9722 4 12.377 4 12.7783C4 13.1796 4.03045 13.5844 4.09135 13.9927C4.15225 14.4011 4.23718 14.7783 4.34615 15.1245ZM9.38077 15.1245H14.6192C14.6949 14.7142 14.7484 14.321 14.7798 13.9447C14.8112 13.5684 14.8269 13.1796 14.8269 12.7783C14.8269 12.377 14.8112 11.9883 14.7798 11.612C14.7484 11.2357 14.6949 10.8424 14.6192 10.4322H9.38077C9.30512 10.8424 9.2516 11.2357 9.2202 11.612C9.18878 11.9883 9.17308 12.377 9.17308 12.7783C9.17308 13.1796 9.18878 13.5684 9.2202 13.9447C9.2516 14.321 9.30512 14.7142 9.38077 15.1245ZM15.6192 15.1245H19.6539C19.7628 14.7783 19.8478 14.4011 19.9087 13.9927C19.9696 13.5844 20 13.1796 20 12.7783C20 12.377 19.9696 11.9722 19.9087 11.5639C19.8478 11.1556 19.7628 10.7783 19.6539 10.4322H15.6192C15.6949 10.8424 15.7484 11.2421 15.7798 11.6312C15.8112 12.0203 15.8269 12.4027 15.8269 12.7783C15.8269 13.154 15.8112 13.5363 15.7798 13.9254C15.7484 14.3145 15.6949 14.7142 15.6192 15.1245ZM15.4115 9.43217H19.2462C18.6603 8.16294 17.8574 7.14306 16.8375 6.37255C15.8176 5.60205 14.6295 5.11166 13.2731 4.90139C13.7397 5.51549 14.1593 6.21774 14.5317 7.00812C14.9042 7.7985 15.1974 8.60652 15.4115 9.43217ZM9.61923 9.43217H14.3808C14.1167 8.4937 13.791 7.64499 13.4038 6.88602C13.0167 6.12704 12.5487 5.4219 12 4.77062C11.4513 5.4219 10.9833 6.12704 10.5962 6.88602C10.209 7.64499 9.88333 8.4937 9.61923 9.43217ZM4.75385 9.43217H8.58845C8.80255 8.60652 9.09582 7.7985 9.46827 7.00812C9.84071 6.21774 10.2603 5.51549 10.7269 4.90139C9.35769 5.11166 8.16634 5.60525 7.15287 6.38217C6.13942 7.15909 5.33975 8.17575 4.75385 9.43217Z" fill="black"/>
</g>
</g>
</svg>
