<svg width="25" height="24" viewBox="0 0 25 24" fill="none" xmlns="http://www.w3.org/2000/svg">
    <mask id="y44ih91wka" style="mask-type:alpha" maskUnits="userSpaceOnUse" x="0" y="0" width="25" height="24">
        <path fill="#D9D9D9" d="M.5 0h24v24H.5z"/>
    </mask>
    <g mask="url(#y44ih91wka)">
        <path d="M16.238 11.396 13.142 8.3a.778.778 0 0 1-.183-.27.833.833 0 0 1-.053-.298c0-.106.017-.204.053-.295a.786.786 0 0 1 .183-.267l3.096-3.097a.777.777 0 0 1 .27-.183.832.832 0 0 1 .298-.053.81.81 0 0 1 .296.053c.09.035.18.096.267.183l3.096 3.097a.776.776 0 0 1 .184.27.83.83 0 0 1 .053.298.81.81 0 0 1-.053.295.784.784 0 0 1-.184.267l-3.096 3.096a.778.778 0 0 1-.27.184.83.83 0 0 1-.298.053.81.81 0 0 1-.295-.053.784.784 0 0 1-.268-.184zM5.115 9.808V5.423c0-.228.078-.42.233-.575a.782.782 0 0 1 .575-.232h4.385c.229 0 .42.077.575.232a.782.782 0 0 1 .232.575v4.385c0 .229-.077.42-.232.576a.782.782 0 0 1-.575.232H5.923a.782.782 0 0 1-.575-.232.782.782 0 0 1-.233-.576zm8.77 8.77v-4.385c0-.23.077-.421.232-.576a.781.781 0 0 1 .575-.232h4.385c.229 0 .42.077.575.232a.781.781 0 0 1 .233.576v4.384c0 .23-.078.421-.233.576a.781.781 0 0 1-.575.232h-4.385a.781.781 0 0 1-.575-.232.781.781 0 0 1-.232-.576zm-8.77 0v-4.385c0-.23.078-.421.233-.576a.782.782 0 0 1 .575-.232h4.385c.229 0 .42.077.575.232a.781.781 0 0 1 .232.576v4.384c0 .23-.077.421-.232.576a.782.782 0 0 1-.575.232H5.923a.782.782 0 0 1-.575-.232.781.781 0 0 1-.233-.576zm1-8.962h4v-4h-4v4zm10.714.969 2.825-2.825-2.825-2.825-2.825 2.825 2.825 2.825zm-1.944 7.8h4v-4h-4v4zm-8.77 0h4v-4h-4v4z" fill=""/>
    </g>
</svg>
