<svg width="25" height="24" viewBox="0 0 25 24" fill="none" xmlns="http://www.w3.org/2000/svg">
    <mask id="lopqupa9oa" style="mask-type:alpha" maskUnits="userSpaceOnUse" x="0" y="0" width="25" height="24">
        <path fill="#D9D9D9" d="M.375 0h24v24h-24z"/>
    </mask>
    <g mask="url(#lopqupa9oa)">
        <path d="m12.375 12.708-5.246 5.246a.503.503 0 0 1-.344.15.467.467 0 0 1-.364-.15.49.49 0 0 1-.16-.354c0-.13.054-.247.16-.354L11.667 12 6.421 6.754a.504.504 0 0 1-.15-.344.467.467 0 0 1 .15-.364.49.49 0 0 1 .354-.16.49.49 0 0 1 .354.16l5.246 5.247 5.246-5.247a.504.504 0 0 1 .344-.15.467.467 0 0 1 .364.15.49.49 0 0 1 .16.354.49.49 0 0 1-.16.354L13.083 12l5.246 5.246a.504.504 0 0 1 .15.345.467.467 0 0 1-.15.363.49.49 0 0 1-.354.16.49.49 0 0 1-.354-.16l-5.246-5.246z" fill="#fff"/>
    </g>
</svg>
