<svg width="24" height="24" viewBox="0 0 24 24" fill="none" xmlns="http://www.w3.org/2000/svg">
<mask id="mask0_1284_12821" style="mask-type:alpha" maskUnits="userSpaceOnUse" x="0" y="0" width="24" height="24">
<rect width="24" height="24" fill="#D9D9D9"/>
</mask>
<g mask="url(#mask0_1284_12821)">
<path d="M13.2925 12.0002L9.04634 7.75404C8.95276 7.66046 8.90276 7.54572 8.89634 7.40982C8.88993 7.27392 8.93993 7.15276 9.04634 7.04634C9.15276 6.93993 9.27071 6.88672 9.40019 6.88672C9.52968 6.88672 9.64763 6.93993 9.75404 7.04634L14.1425 11.4348C14.2297 11.522 14.2909 11.6111 14.3262 11.7021C14.3614 11.7931 14.379 11.8925 14.379 12.0002C14.379 12.1079 14.3614 12.2073 14.3262 12.2983C14.2909 12.3893 14.2297 12.4784 14.1425 12.5656L9.75404 16.954C9.66046 17.0476 9.54572 17.0976 9.40982 17.104C9.27392 17.1105 9.15276 17.0605 9.04634 16.954C8.93993 16.8476 8.88672 16.7297 8.88672 16.6002C8.88672 16.4707 8.93993 16.3528 9.04634 16.2463L13.2925 12.0002Z" fill="#1C1B1F"/>
</g>
</svg>
