<svg width="25" height="25" viewBox="0 0 25 25" fill="none" xmlns="http://www.w3.org/2000/svg">
    <mask id="x0hvybjwha" style="mask-type:alpha" maskUnits="userSpaceOnUse" x="0" y="0" width="25" height="25">
        <path fill="#D9D9D9" d="M.375.5h24v24h-24z"/>
    </mask>
    <g mask="url(#x0hvybjwha)">
        <path d="M18.625 11h-2.5a.484.484 0 0 1-.356-.144.485.485 0 0 1-.143-.357c0-.141.047-.26.143-.356a.485.485 0 0 1 .356-.143h2.5V7.5c0-.141.049-.26.144-.356A.485.485 0 0 1 19.126 7c.142 0 .26.048.356.144a.485.485 0 0 1 .143.356V10h2.5c.142 0 .26.048.357.144a.485.485 0 0 1 .143.357c0 .142-.047.26-.143.356a.484.484 0 0 1-.357.143h-2.5v2.5c0 .142-.047.26-.143.356a.485.485 0 0 1-.357.144.483.483 0 0 1-.356-.144.484.484 0 0 1-.143-.356V11zm-9.25.885a2.889 2.889 0 0 1-2.118-.881 2.889 2.889 0 0 1-.882-2.12c0-.824.294-1.53.882-2.118a2.889 2.889 0 0 1 2.118-.881c.825 0 1.532.294 2.12.881.587.588.88 1.294.88 2.119 0 .825-.293 1.531-.88 2.119a2.889 2.889 0 0 1-2.12.88zm-7 6.192v-.608c0-.412.12-.799.361-1.158.24-.36.564-.639.97-.838a14.189 14.189 0 0 1 2.833-1.018 12.14 12.14 0 0 1 2.836-.34c.947 0 1.892.114 2.837.34.945.226 1.89.566 2.833 1.018.406.199.73.478.97.838s.36.746.36 1.158v.608c0 .294-.1.54-.299.74-.199.199-.445.299-.739.299H3.414c-.294 0-.54-.1-.74-.3-.199-.199-.299-.445-.299-.739zm1 .038h12v-.646c0-.221-.071-.43-.214-.625a1.725 1.725 0 0 0-.593-.494 12.689 12.689 0 0 0-2.546-.916 11.18 11.18 0 0 0-5.293 0c-.874.212-1.723.517-2.546.916-.252.135-.45.3-.593.494a1.037 1.037 0 0 0-.215.625v.646zm6-7.23c.55 0 1.021-.196 1.413-.588.392-.391.588-.862.588-1.412 0-.55-.196-1.021-.588-1.413a1.926 1.926 0 0 0-1.413-.587c-.55 0-1.02.196-1.412.587a1.926 1.926 0 0 0-.588 1.413c0 .55.196 1.02.588 1.412.392.392.862.588 1.412.588z" fill="#fff"/>
    </g>
</svg>
