<svg width="18" height="19" viewBox="0 0 18 19" fill="none" xmlns="http://www.w3.org/2000/svg">
<path id="info" d="M9.00068 14.2782C9.14254 14.2782 9.26123 14.2303 9.35673 14.1344C9.45224 14.0386 9.5 13.9199 9.5 13.7782V9.2782C9.5 9.13653 9.45202 9.01778 9.35605 8.92195C9.2601 8.82611 9.14119 8.7782 8.99932 8.7782C8.85746 8.7782 8.73878 8.82611 8.64328 8.92195C8.54776 9.01778 8.5 9.13653 8.5 9.2782V13.7782C8.5 13.9199 8.54798 14.0386 8.64395 14.1344C8.7399 14.2303 8.85881 14.2782 9.00068 14.2782ZM9 7.35512C9.17437 7.35512 9.32053 7.29615 9.43848 7.1782C9.55641 7.06025 9.61537 6.91409 9.61537 6.73972C9.61537 6.56537 9.55641 6.41922 9.43848 6.30127C9.32053 6.18332 9.17437 6.12435 9 6.12435C8.82563 6.12435 8.67948 6.18332 8.56153 6.30127C8.44359 6.41922 8.38463 6.56537 8.38463 6.73972C8.38463 6.91409 8.44359 7.06025 8.56153 7.1782C8.67948 7.29615 8.82563 7.35512 9 7.35512ZM9.00335 18.7782C7.7588 18.7782 6.58872 18.542 5.4931 18.0697C4.39748 17.5974 3.44444 16.9564 2.63397 16.1467C1.82352 15.337 1.18192 14.3848 0.70915 13.2902C0.236383 12.1956 0 11.0261 0 9.78155C0 8.537 0.236158 7.36692 0.708475 6.2713C1.18081 5.17568 1.82183 4.22264 2.63153 3.41217C3.44123 2.60172 4.39337 1.96012 5.48795 1.48735C6.58255 1.01458 7.75212 0.778198 8.99665 0.778198C10.2412 0.778198 11.4113 1.01436 12.5069 1.48667C13.6025 1.95901 14.5556 2.60002 15.366 3.40972C16.1765 4.21942 16.8181 5.17157 17.2908 6.26615C17.7636 7.36075 18 8.53031 18 9.77485C18 11.0194 17.7638 12.1895 17.2915 13.2851C16.8192 14.3807 16.1782 15.3338 15.3685 16.1442C14.5588 16.9547 13.6066 17.5963 12.512 18.069C11.4174 18.5418 10.2479 18.7782 9.00335 18.7782ZM9 17.7782C11.2333 17.7782 13.125 17.0032 14.675 15.4532C16.225 13.9032 17 12.0115 17 9.7782C17 7.54486 16.225 5.6532 14.675 4.1032C13.125 2.5532 11.2333 1.7782 9 1.7782C6.76667 1.7782 4.875 2.5532 3.325 4.1032C1.775 5.6532 1 7.54486 1 9.7782C1 12.0115 1.775 13.9032 3.325 15.4532C4.875 17.0032 6.76667 17.7782 9 17.7782Z" fill="#DB0011"/>
</svg>
