<svg width="17" height="16" viewBox="0 0 17 16" fill="none" xmlns="http://www.w3.org/2000/svg">
<path d="M8.63428 15C10.0187 15 11.3721 14.5895 12.5233 13.8203C13.6744 13.0511 14.5716 11.9579 15.1014 10.6788C15.6312 9.3997 15.7699 7.99224 15.4998 6.63437C15.2297 5.2765 14.563 4.02922 13.584 3.05025C12.6051 2.07129 11.3578 1.4046 9.99991 1.13451C8.64204 0.864409 7.23457 1.00303 5.95549 1.53285C4.67641 2.06266 3.58316 2.95987 2.81399 4.11101C2.04482 5.26215 1.63428 6.61553 1.63428 8C1.63624 9.85591 2.37436 11.6353 3.68669 12.9476C4.99902 14.2599 6.77836 14.998 8.63428 15ZM9.17274 11.2308C9.17274 11.3736 9.11601 11.5105 9.01503 11.6115C8.91404 11.7125 8.77708 11.7692 8.63428 11.7692C8.49147 11.7692 8.35451 11.7125 8.25353 11.6115C8.15254 11.5105 8.09581 11.3736 8.09581 11.2308V7.46154C8.09581 7.31873 8.15254 7.18177 8.25353 7.08079C8.35451 6.97981 8.49147 6.92308 8.63428 6.92308C8.77708 6.92308 8.91404 6.97981 9.01503 7.08079C9.11601 7.18177 9.17274 7.31873 9.17274 7.46154V11.2308ZM8.63428 4.23077C8.79402 4.23077 8.95018 4.27814 9.083 4.36689C9.21583 4.45564 9.31935 4.58179 9.38049 4.72937C9.44162 4.87696 9.45761 5.03936 9.42645 5.19604C9.39528 5.35271 9.31836 5.49663 9.2054 5.60959C9.09244 5.72255 8.94853 5.79947 8.79185 5.83064C8.63517 5.8618 8.47277 5.84581 8.32519 5.78467C8.1776 5.72354 8.05145 5.62002 7.9627 5.48719C7.87395 5.35437 7.82658 5.19821 7.82658 5.03846C7.82658 4.82425 7.91168 4.61881 8.06315 4.46734C8.21462 4.31587 8.42006 4.23077 8.63428 4.23077Z" fill="#305A85"/>
</svg>
