<svg width="24" height="25" viewBox="0 0 24 25" fill="none" xmlns="http://www.w3.org/2000/svg">
<g id="icon/outline/info">
<mask id="mask0_894_7646" style="mask-type:alpha" maskUnits="userSpaceOnUse" x="0" y="0" width="24" height="25">
<rect id="Bounding box" y="0.778198" width="24" height="24" fill="#D9D9D9"/>
</mask>
<g mask="url(#mask0_894_7646)">
<path id="info" d="M12.0007 17.2782C12.1425 17.2782 12.2612 17.2303 12.3567 17.1344C12.4522 17.0386 12.5 16.9199 12.5 16.7782V12.2782C12.5 12.1365 12.452 12.0178 12.3561 11.9219C12.2601 11.8261 12.1412 11.7782 11.9993 11.7782C11.8575 11.7782 11.7388 11.8261 11.6433 11.9219C11.5478 12.0178 11.5 12.1365 11.5 12.2782V16.7782C11.5 16.9199 11.548 17.0386 11.644 17.1344C11.7399 17.2303 11.8588 17.2782 12.0007 17.2782ZM12 10.3551C12.1744 10.3551 12.3205 10.2961 12.4385 10.1782C12.5564 10.0602 12.6154 9.91409 12.6154 9.73972C12.6154 9.56537 12.5564 9.41922 12.4385 9.30127C12.3205 9.18332 12.1744 9.12435 12 9.12435C11.8256 9.12435 11.6795 9.18332 11.5615 9.30127C11.4436 9.41922 11.3846 9.56537 11.3846 9.73972C11.3846 9.91409 11.4436 10.0602 11.5615 10.1782C11.6795 10.2961 11.8256 10.3551 12 10.3551ZM12.0034 21.7782C10.7588 21.7782 9.58872 21.542 8.4931 21.0697C7.39748 20.5974 6.44444 19.9564 5.63397 19.1467C4.82352 18.337 4.18192 17.3848 3.70915 16.2902C3.23638 15.1956 3 14.0261 3 12.7815C3 11.537 3.23616 10.3669 3.70848 9.2713C4.18081 8.17568 4.82183 7.22264 5.63153 6.41217C6.44123 5.60172 7.39337 4.96012 8.48795 4.48735C9.58255 4.01458 10.7521 3.7782 11.9966 3.7782C13.2412 3.7782 14.4113 4.01436 15.5069 4.48667C16.6025 4.95901 17.5556 5.60002 18.366 6.40972C19.1765 7.21942 19.8181 8.17157 20.2908 9.26615C20.7636 10.3607 21 11.5303 21 12.7748C21 14.0194 20.7638 15.1895 20.2915 16.2851C19.8192 17.3807 19.1782 18.3338 18.3685 19.1442C17.5588 19.9547 16.6066 20.5963 15.512 21.069C14.4174 21.5418 13.2479 21.7782 12.0034 21.7782ZM12 20.7782C14.2333 20.7782 16.125 20.0032 17.675 18.4532C19.225 16.9032 20 15.0115 20 12.7782C20 10.5449 19.225 8.6532 17.675 7.1032C16.125 5.5532 14.2333 4.7782 12 4.7782C9.76667 4.7782 7.875 5.5532 6.325 7.1032C4.775 8.6532 4 10.5449 4 12.7782C4 15.0115 4.775 16.9032 6.325 18.4532C7.875 20.0032 9.76667 20.7782 12 20.7782Z" fill="white"/>
</g>
</g>
</svg>
