<svg width="16" height="17" viewBox="0 0 16 17" fill="none" xmlns="http://www.w3.org/2000/svg">
<g id="icon/filled/info">
<mask id="mask0_151_1025" style="mask-type:alpha" maskUnits="userSpaceOnUse" x="0" y="0" width="16" height="17">
<rect id="Bounding box" y="0.778198" width="16" height="16" fill="#D9D9D9"/>
</mask>
<g mask="url(#mask0_151_1025)">
<path id="info" d="M8.00045 11.7782C8.09503 11.7782 8.17415 11.7463 8.23782 11.6824C8.3015 11.6185 8.33333 11.5393 8.33333 11.4449V8.44487C8.33333 8.35042 8.30134 8.27125 8.23737 8.20737C8.1734 8.14348 8.09413 8.11153 7.99955 8.11153C7.90497 8.11153 7.82585 8.14348 7.76218 8.20737C7.69851 8.27125 7.66667 8.35042 7.66667 8.44487V11.4449C7.66667 11.5393 7.69866 11.6185 7.76263 11.6824C7.8266 11.7463 7.90587 11.7782 8.00045 11.7782ZM8 7.16282C8.11624 7.16282 8.21368 7.1235 8.29232 7.04487C8.37094 6.96623 8.41025 6.86879 8.41025 6.75255C8.41025 6.63632 8.37094 6.53888 8.29232 6.46025C8.21368 6.38161 8.11624 6.3423 8 6.3423C7.88376 6.3423 7.78632 6.38161 7.70768 6.46025C7.62906 6.53888 7.58975 6.63632 7.58975 6.75255C7.58975 6.86879 7.62906 6.96623 7.70768 7.04487C7.78632 7.1235 7.88376 7.16282 8 7.16282ZM8.00223 14.7782C7.17253 14.7782 6.39248 14.6208 5.66207 14.3059C4.93166 13.991 4.29629 13.5636 3.75598 13.0238C3.21568 12.484 2.78794 11.8493 2.47277 11.1196C2.15759 10.3898 2 9.61012 2 8.78043C2 7.95073 2.15744 7.17068 2.47232 6.44027C2.78721 5.70985 3.21455 5.07449 3.75435 4.53418C4.29415 3.99388 4.92891 3.56614 5.65863 3.25097C6.38837 2.93579 7.16808 2.7782 7.99777 2.7782C8.82747 2.7782 9.60752 2.93564 10.3379 3.25051C11.0683 3.5654 11.7037 3.99275 12.244 4.53255C12.7843 5.07235 13.2121 5.70711 13.5272 6.43683C13.8424 7.16657 14 7.94628 14 8.77596C14 9.60567 13.8426 10.3857 13.5277 11.1161C13.2128 11.8465 12.7855 12.4819 12.2457 13.0222C11.7059 13.5625 11.0711 13.9903 10.3414 14.3054C9.61163 14.6206 8.83192 14.7782 8.00223 14.7782Z" fill="#767676"/>
</g>
</g>
</svg>
