<svg width="24" height="25" viewBox="0 0 24 25" fill="none" xmlns="http://www.w3.org/2000/svg">
<g id="icon/chevron/right">
<mask id="mask0_1_1693" style="mask-type:alpha" maskUnits="userSpaceOnUse" x="0" y="0" width="24" height="25">
<rect id="Bounding box" y="0.778198" width="24" height="24" fill="#D9D9D9"/>
</mask>
<g mask="url(#mask0_1_1693)">
<path id="chevron_right" d="M13.2923 12.7781L9.04615 8.532C8.95257 8.43841 8.90257 8.32367 8.89615 8.18777C8.88974 8.05187 8.93974 7.93071 9.04615 7.8243C9.15257 7.71788 9.27052 7.66467 9.4 7.66467C9.52949 7.66467 9.64744 7.71788 9.75385 7.8243L14.1423 12.2128C14.2295 12.2999 14.2907 12.389 14.326 12.4801C14.3612 12.5711 14.3789 12.6704 14.3789 12.7781C14.3789 12.8858 14.3612 12.9852 14.326 13.0762C14.2907 13.1673 14.2295 13.2564 14.1423 13.3435L9.75385 17.732C9.66027 17.8256 9.54553 17.8756 9.40963 17.882C9.27373 17.8884 9.15257 17.8384 9.04615 17.732C8.93974 17.6256 8.88653 17.5076 8.88653 17.3781C8.88653 17.2487 8.93974 17.1307 9.04615 17.0243L13.2923 12.7781Z" fill="white"/>
</g>
</g>
</svg>
