<svg width="24" height="24" viewBox="0 0 24 24" fill="none" xmlns="http://www.w3.org/2000/svg">
<mask id="mask0_247_842" style="mask-type:alpha" maskUnits="userSpaceOnUse" x="0" y="0" width="24" height="24">
<rect width="24" height="24" fill="#D9D9D9"/>
</mask>
<g mask="url(#mask0_247_842)">
<path d="M6.46155 20H5.61538C5.15513 20 4.77083 19.8458 4.4625 19.5375C4.15417 19.2292 4 18.8449 4 18.3846V12C4 10.891 4.20865 9.85159 4.62595 8.88172C5.04327 7.91186 5.61442 7.06443 6.33942 6.33943C7.06442 5.61443 7.91186 5.04327 8.88173 4.62595C9.85159 4.20865 10.891 4 12 4C13.109 4 14.1484 4.20865 15.1183 4.62595C16.0881 5.04327 16.9356 5.61443 17.6606 6.33943C18.3856 7.06443 18.9567 7.91186 19.374 8.88172C19.7913 9.85159 20 10.891 20 12V18.3846C20 18.8449 19.8458 19.2292 19.5375 19.5375C19.2292 19.8458 18.8449 20 18.3846 20H17.5385C17.091 20 16.7099 19.8426 16.3952 19.5279C16.0804 19.2132 15.9231 18.8321 15.9231 18.3846V15.4615C15.9231 15.0141 16.0804 14.633 16.3952 14.3183C16.7099 14.0035 17.091 13.8462 17.5385 13.8462H19V12C19 10.05 18.3208 8.39583 16.9625 7.0375C15.6042 5.67917 13.95 5 12 5C10.05 5 8.39583 5.67917 7.0375 7.0375C5.67917 8.39583 5 10.05 5 12V13.8462H6.46155C6.90898 13.8462 7.29007 14.0035 7.60482 14.3183C7.91956 14.633 8.07692 15.0141 8.07692 15.4615V18.3846C8.07692 18.8321 7.91956 19.2132 7.60482 19.5279C7.29007 19.8426 6.90898 20 6.46155 20ZM6.46155 14.8462H5V18.3846C5 18.5385 5.0641 18.6795 5.1923 18.8077C5.32052 18.9359 5.46154 19 5.61538 19H6.46155C6.64103 19 6.78847 18.9423 6.90385 18.8269C7.01923 18.7115 7.07693 18.5641 7.07693 18.3846V15.4615C7.07693 15.282 7.01923 15.1346 6.90385 15.0192C6.78847 14.9038 6.64103 14.8462 6.46155 14.8462ZM16.9231 15.4615V18.3846C16.9231 18.5641 16.9808 18.7115 17.0962 18.8269C17.2115 18.9423 17.359 19 17.5385 19H18.3846C18.5385 19 18.6795 18.9359 18.8077 18.8077C18.9359 18.6795 19 18.5385 19 18.3846V14.8462H17.5385C17.359 14.8462 17.2115 14.9038 17.0962 15.0192C16.9808 15.1346 16.9231 15.282 16.9231 15.4615ZM6.46155 14.8462H7.07693H5H6.46155Z" fill="white"/>
</g>
</svg>
