<svg width="24" height="24" viewBox="0 0 24 24" fill="none" xmlns="http://www.w3.org/2000/svg">
<g id="icon/outline/local">
<mask id="mask0_2098_249" style="mask-type:alpha" maskUnits="userSpaceOnUse" x="0" y="0" width="24" height="24">
<rect id="Bounding box" width="24" height="24" fill="white"/>
</mask>
<g mask="url(#mask0_2098_249)">
<path id="clinical_notes" d="M8.3846 11.9499C7.62164 11.9499 6.97313 11.6829 6.43907 11.1488C5.90501 10.6147 5.63798 9.96623 5.63798 9.20329C5.63798 8.44033 5.90501 7.79182 6.43907 7.25776C6.97313 6.7237 7.62164 6.45667 8.3846 6.45667C9.14756 6.45667 9.79607 6.7237 10.3301 7.25776C10.8642 7.79182 11.1312 8.44033 11.1312 9.20329C11.1312 9.96623 10.8642 10.6147 10.3301 11.1488C9.79607 11.6829 9.14756 11.9499 8.3846 11.9499ZM8.3846 10.7597C8.81337 10.7597 9.17996 10.6075 9.48437 10.3031C9.78881 9.99865 9.94102 9.63206 9.94102 9.20329C9.94102 8.7745 9.78881 8.4079 9.48437 8.10348C9.17996 7.79907 8.81337 7.64686 8.3846 7.64686C7.95583 7.64686 7.58924 7.79907 7.28483 8.10348C6.9804 8.4079 6.82818 8.7745 6.82818 9.20329C6.82818 9.63206 6.9804 9.99865 7.28483 10.3031C7.58924 10.6075 7.95583 10.7597 8.3846 10.7597ZM2.06738 18.9767V16.3491C2.06738 16.0764 2.13244 15.8201 2.26255 15.5799C2.39265 15.3398 2.57479 15.1483 2.80897 15.0055C3.36005 14.675 3.94125 14.401 4.55258 14.1836C5.16392 13.9661 5.78818 13.8052 6.42536 13.7009L8.3846 16.2529L10.321 13.7009C10.9656 13.8052 11.5927 13.9661 12.2025 14.1836C12.8122 14.401 13.3959 14.675 13.9534 15.0055C14.1883 15.1474 14.368 15.337 14.4924 15.5743C14.6168 15.8116 14.6866 16.0622 14.7018 16.3262V18.9767H2.06738ZM3.22783 17.7865H8.05501L5.96757 15.0444C5.48376 15.1581 5.01337 15.306 4.55642 15.4879C4.09948 15.6699 3.65662 15.8806 3.22783 16.1202V17.7865ZM8.7142 17.7865H13.5116V16.1202C13.0874 15.876 12.6468 15.6681 12.1899 15.4965C11.7329 15.3248 11.2626 15.1817 10.7787 15.0673L8.7142 17.7865Z" fill="#DB0011"/>
<path id="arrows_outward" d="M21.0028 8.52423H17.6022H17.5522V8.57423V9.16463V9.21463H17.6022H21.0028L19.5118 10.7056C19.4397 10.7777 19.4014 10.8626 19.4014 10.9587C19.4014 11.0551 19.4401 11.1374 19.5141 11.2028C19.5141 11.2028 19.5141 11.2028 19.5141 11.2028L21.0028 8.52423ZM21.0028 8.52423L19.5118 7.03331L19.5111 7.0326L19.5111 7.03259C19.4483 6.9672 19.4142 6.88694 19.4087 6.79428C19.403 6.6973 19.4389 6.61413 19.5129 6.54822C19.5792 6.48251 19.6608 6.45129 19.7545 6.45563L21.0028 8.52423ZM13.4119 8.52423H16.8125H16.8625V8.57423V9.16463V9.21463H16.8125H13.4008L14.914 10.7278L14.9147 10.7286L14.9147 10.7286C14.9782 10.7946 15.0091 10.8747 15.006 10.9659C15.003 11.0566 14.968 11.1356 14.9028 11.2007C14.838 11.2655 14.761 11.3 14.6737 11.3C14.5863 11.3 14.5093 11.2655 14.4445 11.2007L12.4706 9.23797L12.4705 9.23787C12.4163 9.1837 12.3763 9.12641 12.3528 9.06572L13.4119 8.52423ZM13.4119 8.52423L14.9028 7.03331C14.9028 7.03331 14.9028 7.03331 14.9028 7.03331C14.9683 6.96786 15.0034 6.8871 15.0077 6.7936C15.0121 6.69685 14.9756 6.61397 14.9017 6.54822C14.8366 6.48357 14.758 6.45 14.6681 6.45C14.5777 6.45 14.4987 6.48394 14.4333 6.5493L12.4705 8.51214C12.4163 8.56631 12.3763 8.6236 12.3528 8.68428L12.3528 8.68428C12.33 8.74334 12.3188 8.80708 12.3188 8.875C12.3188 8.94292 12.33 9.00667 12.3528 9.06572L13.4119 8.52423ZM19.9925 6.56046L19.9571 6.59581L19.9925 6.56046ZM19.9925 6.56046C19.9272 6.49514 19.8471 6.45991 19.7545 6.45563L19.9925 6.56046Z" fill="#DB0011" stroke="#DB0011" stroke-width="0.1"/>
</g>
</g>
</svg>
