<svg width="24" height="25" viewBox="0 0 24 25" fill="none" xmlns="http://www.w3.org/2000/svg">
<g id="icon/outline/power_off">
<mask id="mask0_907_2205" style="mask-type:alpha" maskUnits="userSpaceOnUse" x="0" y="0" width="24" height="25">
<rect id="Bounding box" y="0.278198" width="24" height="24" fill="#D9D9D9"/>
</mask>
<g mask="url(#mask0_907_2205)">
<path id="power_settings_new" d="M11.5 12.7782V4.62439C11.5 4.48209 11.5478 4.36318 11.6433 4.26767C11.7388 4.17215 11.8577 4.12439 12 4.12439C12.1423 4.12439 12.2612 4.17215 12.3567 4.26767C12.4522 4.36318 12.5 4.48209 12.5 4.62439V12.7782C12.5 12.9205 12.4522 13.0394 12.3567 13.135C12.2612 13.2305 12.1423 13.2782 12 13.2782C11.8577 13.2782 11.7388 13.2305 11.6433 13.135C11.5478 13.0394 11.5 12.9205 11.5 12.7782ZM12 20.2782C10.8949 20.2782 9.85737 20.0696 8.8875 19.6523C7.91763 19.235 7.06923 18.6629 6.3423 17.9359C5.61538 17.209 5.04327 16.3606 4.62595 15.3907C4.20865 14.4209 4 13.3834 4 12.2782C4 11.1795 4.21891 10.1363 4.65672 9.14844C5.09454 8.16061 5.70319 7.28849 6.48268 6.53209C6.58909 6.42182 6.71025 6.36028 6.84615 6.34746C6.98205 6.33465 7.10512 6.38336 7.21537 6.49361C7.32179 6.60003 7.36346 6.72022 7.34037 6.85419C7.31731 6.98817 7.25257 7.11221 7.14615 7.22631C6.4641 7.87246 5.9359 8.63176 5.56155 9.50421C5.18718 10.3766 5 11.3013 5 12.2782C5 14.2116 5.68333 15.8616 7.05 17.2282C8.41667 18.5949 10.0667 19.2782 12 19.2782C13.95 19.2782 15.6042 18.5949 16.9625 17.2282C18.3208 15.8616 19 14.2116 19 12.2782C19 11.3013 18.816 10.3747 18.4481 9.49844C18.0801 8.62216 17.5468 7.86094 16.8481 7.21479C16.7417 7.10452 16.6779 6.98336 16.6567 6.85131C16.6356 6.71926 16.6782 6.60003 16.7846 6.49361C16.8949 6.38336 17.0179 6.33465 17.1538 6.34746C17.2897 6.36028 17.4109 6.42182 17.5173 6.53209C18.3135 7.28849 18.9263 8.16061 19.3558 9.14844C19.7853 10.1363 20 11.1795 20 12.2782C20 13.3834 19.7913 14.4209 19.374 15.3907C18.9567 16.3606 18.3856 17.209 17.6606 17.9359C16.9356 18.6629 16.0881 19.235 15.1183 19.6523C14.1484 20.0696 13.109 20.2782 12 20.2782Z" fill="#DB0011"/>
</g>
</g>
</svg>
