<svg width="24" height="25" viewBox="0 0 24 25" fill="none" xmlns="http://www.w3.org/2000/svg">
<g id="icon/outline/my_accounts">
<mask id="mask0_1_1683" style="mask-type:alpha" maskUnits="userSpaceOnUse" x="0" y="0" width="24" height="25">
<rect id="Bounding box" y="0.778198" width="24" height="24" fill="#D9D9D9"/>
</mask>
<g mask="url(#mask0_1_1683)">
<path id="account_balance" d="M6.5 17.2782V10.2782C6.5 10.1365 6.54798 10.0178 6.64393 9.92195C6.73989 9.82612 6.85881 9.7782 7.00068 9.7782C7.14253 9.7782 7.26121 9.82612 7.35673 9.92195C7.45224 10.0178 7.5 10.1365 7.5 10.2782V17.2782C7.5 17.4199 7.45202 17.5386 7.35605 17.6344C7.26008 17.7303 7.14118 17.7782 6.99933 17.7782C6.85746 17.7782 6.73877 17.7303 6.64325 17.6344C6.54775 17.5386 6.5 17.4199 6.5 17.2782ZM11.5 17.2782V10.2782C11.5 10.1365 11.548 10.0178 11.644 9.92195C11.7399 9.82612 11.8588 9.7782 12.0007 9.7782C12.1425 9.7782 12.2612 9.82612 12.3567 9.92195C12.4522 10.0178 12.5 10.1365 12.5 10.2782V17.2782C12.5 17.4199 12.452 17.5386 12.3561 17.6344C12.2601 17.7303 12.1412 17.7782 11.9993 17.7782C11.8575 17.7782 11.7388 17.7303 11.6433 17.6344C11.5478 17.5386 11.5 17.4199 11.5 17.2782ZM4.03845 20.7782C3.89678 20.7782 3.77803 20.7302 3.6822 20.6343C3.58637 20.5383 3.53845 20.4194 3.53845 20.2775C3.53845 20.1357 3.58637 20.017 3.6822 19.9215C3.77803 19.826 3.89678 19.7782 4.03845 19.7782H19.9615C20.1032 19.7782 20.222 19.8262 20.3178 19.9221C20.4136 20.0181 20.4615 20.137 20.4615 20.2789C20.4615 20.4207 20.4136 20.5394 20.3178 20.6349C20.222 20.7304 20.1032 20.7782 19.9615 20.7782H4.03845ZM16.5 17.2782V10.2782C16.5 10.1365 16.548 10.0178 16.6439 9.92195C16.7399 9.82612 16.8588 9.7782 17.0007 9.7782C17.1425 9.7782 17.2612 9.82612 17.3568 9.92195C17.4523 10.0178 17.5 10.1365 17.5 10.2782V17.2782C17.5 17.4199 17.452 17.5386 17.3561 17.6344C17.2601 17.7303 17.1412 17.7782 16.9993 17.7782C16.8575 17.7782 16.7388 17.7303 16.6433 17.6344C16.5478 17.5386 16.5 17.4199 16.5 17.2782ZM20.0385 7.7782H3.91923C3.81346 7.7782 3.72355 7.74142 3.6495 7.66787C3.57547 7.59432 3.53845 7.50502 3.53845 7.39995V7.16877C3.53845 7.09172 3.55784 7.02561 3.59663 6.97043C3.63541 6.91523 3.68653 6.87038 3.75 6.8359L11.3115 3.2282C11.5275 3.1205 11.7562 3.06665 11.9976 3.06665C12.2389 3.06665 12.4692 3.1205 12.6885 3.2282L20.2193 6.8109C20.2872 6.85577 20.3445 6.91025 20.3913 6.97435C20.4382 7.03845 20.4615 7.11133 20.4615 7.193V7.36005C20.4615 7.48625 20.4234 7.58749 20.3471 7.66377C20.2708 7.74006 20.168 7.7782 20.0385 7.7782ZM6.18078 6.7782H17.8192L12.2692 4.14357C12.1795 4.10512 12.0898 4.0859 12 4.0859C11.9103 4.0859 11.8205 4.10512 11.7308 4.14357L6.18078 6.7782Z" fill="#DB0011"/>
</g>
</g>
</svg>
