<svg width="24" height="24" viewBox="0 0 24 24" fill="none" xmlns="http://www.w3.org/2000/svg">
<path d="M12 1.5C9.9233 1.5 7.89323 2.11581 6.16652 3.26957C4.4398 4.42332 3.09399 6.0632 2.29927 7.98182C1.50455 9.90045 1.29661 12.0116 1.70176 14.0484C2.1069 16.0852 3.10693 17.9562 4.57538 19.4246C6.04383 20.8931 7.91475 21.8931 9.95155 22.2982C11.9884 22.7034 14.0996 22.4954 16.0182 21.7007C17.9368 20.906 19.5767 19.5602 20.7304 17.8335C21.8842 16.1068 22.5 14.0767 22.5 12C22.4971 9.21613 21.3899 6.54712 19.4214 4.57862C17.4529 2.61013 14.7839 1.50294 12 1.5ZM11.1923 7.15384C11.1923 6.93963 11.2774 6.73419 11.4289 6.58272C11.5803 6.43125 11.7858 6.34615 12 6.34615C12.2142 6.34615 12.4197 6.43125 12.5711 6.58272C12.7226 6.73419 12.8077 6.93963 12.8077 7.15384V12.8077C12.8077 13.0219 12.7226 13.2273 12.5711 13.3788C12.4197 13.5303 12.2142 13.6154 12 13.6154C11.7858 13.6154 11.5803 13.5303 11.4289 13.3788C11.2774 13.2273 11.1923 13.0219 11.1923 12.8077V7.15384ZM12 17.6538C11.7604 17.6538 11.5261 17.5828 11.3269 17.4497C11.1277 17.3165 10.9724 17.1273 10.8807 16.9059C10.789 16.6846 10.765 16.441 10.8117 16.2059C10.8585 15.9709 10.9739 15.7551 11.1433 15.5856C11.3128 15.4162 11.5286 15.3008 11.7636 15.254C11.9987 15.2073 12.2423 15.2313 12.4636 15.323C12.685 15.4147 12.8742 15.57 13.0074 15.7692C13.1405 15.9684 13.2115 16.2027 13.2115 16.4423C13.2115 16.7636 13.0839 17.0718 12.8567 17.299C12.6295 17.5262 12.3213 17.6538 12 17.6538Z" fill="#FFBB33"/>
</svg>
