<svg width="24" height="25" viewBox="0 0 24 25" fill="none" xmlns="http://www.w3.org/2000/svg">
<g id="icon/outline/chat">
<mask id="mask0_381_26376" style="mask-type:alpha" maskUnits="userSpaceOnUse" x="0" y="0" width="24" height="25">
<rect id="Bounding box" y="0.778198" width="24" height="24" fill="#D9D9D9"/>
</mask>
<g mask="url(#mask0_381_26376)">
<path id="headphones" d="M6.46155 20.7782H5.61538C5.15513 20.7782 4.77083 20.624 4.4625 20.3157C4.15417 20.0074 4 19.6231 4 19.1628V12.7782C4 11.6692 4.20865 10.6298 4.62595 9.65992C5.04327 8.69006 5.61442 7.84262 6.33942 7.11762C7.06442 6.39262 7.91186 5.82147 8.88172 5.40415C9.85159 4.98685 10.891 4.7782 12 4.7782C13.109 4.7782 14.1484 4.98685 15.1183 5.40415C16.0881 5.82147 16.9356 6.39262 17.6606 7.11762C18.3856 7.84262 18.9567 8.69006 19.374 9.65992C19.7913 10.6298 20 11.6692 20 12.7782V19.1628C20 19.6231 19.8458 20.0074 19.5375 20.3157C19.2292 20.624 18.8449 20.7782 18.3846 20.7782H17.5385C17.091 20.7782 16.7099 20.6208 16.3952 20.3061C16.0804 19.9913 15.9231 19.6103 15.9231 19.1628V16.2397C15.9231 15.7923 16.0804 15.4112 16.3952 15.0965C16.7099 14.7817 17.091 14.6243 17.5385 14.6243H19V12.7782C19 10.8282 18.3208 9.17403 16.9625 7.8157C15.6042 6.45736 13.95 5.7782 12 5.7782C10.05 5.7782 8.39583 6.45736 7.0375 7.8157C5.67917 9.17403 5 10.8282 5 12.7782V14.6243H6.46155C6.90898 14.6243 7.29007 14.7817 7.60482 15.0965C7.91956 15.4112 8.07692 15.7923 8.07692 16.2397V19.1628C8.07692 19.6103 7.91956 19.9913 7.60482 20.3061C7.29007 20.6208 6.90898 20.7782 6.46155 20.7782ZM6.46155 15.6243H5V19.1628C5 19.3167 5.0641 19.4577 5.1923 19.5859C5.32052 19.7141 5.46154 19.7782 5.61538 19.7782H6.46155C6.64103 19.7782 6.78847 19.7205 6.90385 19.6051C7.01923 19.4897 7.07692 19.3423 7.07692 19.1628V16.2397C7.07692 16.0602 7.01923 15.9128 6.90385 15.7974C6.78847 15.682 6.64103 15.6243 6.46155 15.6243ZM16.9231 16.2397V19.1628C16.9231 19.3423 16.9808 19.4897 17.0961 19.6051C17.2115 19.7205 17.359 19.7782 17.5385 19.7782H18.3846C18.5385 19.7782 18.6795 19.7141 18.8077 19.5859C18.9359 19.4577 19 19.3167 19 19.1628V15.6243H17.5385C17.359 15.6243 17.2115 15.682 17.0961 15.7974C16.9808 15.9128 16.9231 16.0602 16.9231 16.2397ZM6.46155 15.6243H7.07692H5H6.46155Z" fill="#DB0011"/>
</g>
</g>
</svg>
