<svg width="24" height="25" viewBox="0 0 24 25" fill="none" xmlns="http://www.w3.org/2000/svg">
<g id="icon/outline/notifications">
<mask id="mask0_381_26513" style="mask-type:alpha" maskUnits="userSpaceOnUse" x="0" y="0" width="24" height="25">
<rect id="Bounding box" y="0.778198" width="24" height="24" fill="#D9D9D9"/>
</mask>
<g mask="url(#mask0_381_26513)">
<path id="notifications" d="M5.5 19.5474C5.35833 19.5474 5.23958 19.4994 5.14375 19.4035C5.04792 19.3075 5 19.1886 5 19.0468C5 18.9049 5.04792 18.7862 5.14375 18.6907C5.23958 18.5952 5.35833 18.5474 5.5 18.5474H6.61537V10.6243C6.61537 9.31795 7.02884 8.16891 7.85577 7.17725C8.68269 6.18556 9.73077 5.56793 11 5.32435V4.7782C11 4.50042 11.097 4.2643 11.291 4.06985C11.485 3.87542 11.7206 3.7782 11.9978 3.7782C12.2749 3.7782 12.5112 3.87542 12.7067 4.06985C12.9022 4.2643 13 4.50042 13 4.7782V5.32435C14.2692 5.56793 15.3173 6.18556 16.1442 7.17725C16.9712 8.16891 17.3846 9.31795 17.3846 10.6243V18.5474H18.5C18.6417 18.5474 18.7604 18.5954 18.8562 18.6914C18.9521 18.7873 19 18.9062 19 19.0481C19 19.19 18.9521 19.3086 18.8562 19.4041C18.7604 19.4997 18.6417 19.5474 18.5 19.5474H5.5ZM11.9966 22.1628C11.5514 22.1628 11.1715 22.0047 10.8567 21.6883C10.542 21.3719 10.3846 20.9917 10.3846 20.5474H13.6154C13.6154 20.9949 13.4569 21.3759 13.1399 21.6907C12.8229 22.0055 12.4418 22.1628 11.9966 22.1628ZM7.61537 18.5474H16.3846V10.6243C16.3846 9.40897 15.9577 8.37435 15.1039 7.5205C14.25 6.66667 13.2154 6.23975 12 6.23975C10.7846 6.23975 9.75 6.66667 8.89615 7.5205C8.0423 8.37435 7.61537 9.40897 7.61537 10.6243V18.5474Z" fill="white"/>
</g>
</g>
</svg>
