<svg width="14" height="20" viewBox="0 0 14 20" fill="none" xmlns="http://www.w3.org/2000/svg">
<path id="notifications" d="M0.5 16.5474C0.358333 16.5474 0.239583 16.4994 0.14375 16.4035C0.0479167 16.3075 0 16.1886 0 16.0468C0 15.9049 0.0479167 15.7862 0.14375 15.6907C0.239583 15.5952 0.358333 15.5474 0.5 15.5474H1.61537V7.62435C1.61537 6.31795 2.02884 5.16891 2.85577 4.17725C3.68269 3.18556 4.73077 2.56793 6 2.32435V1.7782C6 1.50042 6.097 1.2643 6.291 1.06985C6.485 0.875415 6.72058 0.778198 6.99775 0.778198C7.2749 0.778198 7.51123 0.875415 7.70673 1.06985C7.90224 1.2643 8 1.50042 8 1.7782V2.32435C9.26923 2.56793 10.3173 3.18556 11.1442 4.17725C11.9712 5.16891 12.3846 6.31795 12.3846 7.62435V15.5474H13.5C13.6417 15.5474 13.7604 15.5954 13.8562 15.6914C13.9521 15.7873 14 15.9062 14 16.0481C14 16.19 13.9521 16.3086 13.8562 16.4041C13.7604 16.4997 13.6417 16.5474 13.5 16.5474H0.5ZM6.9966 19.1628C6.55143 19.1628 6.17148 19.0047 5.85673 18.6883C5.54199 18.3719 5.38463 17.9917 5.38463 17.5474H8.61537C8.61537 17.9949 8.45687 18.3759 8.13987 18.6907C7.82286 19.0055 7.44177 19.1628 6.9966 19.1628ZM2.61537 15.5474H11.3846V7.62435C11.3846 6.40897 10.9577 5.37435 10.1039 4.5205C9.25 3.66667 8.21538 3.23975 7 3.23975C5.78462 3.23975 4.75 3.66667 3.89615 4.5205C3.0423 5.37435 2.61537 6.40897 2.61537 7.62435V15.5474Z" />
</svg>
