<svg width="24" height="25" viewBox="0 0 24 25" fill="none" xmlns="http://www.w3.org/2000/svg">
<g id="icon/outline/password">
<mask id="mask0_1_4342" style="mask-type:alpha" maskUnits="userSpaceOnUse" x="0" y="0" width="24" height="25">
<rect id="Bounding box" y="0.77832" width="24" height="24" fill="#ffffff"/>
</mask>
<g mask="url(#mask0_1_4342)">
<path id="visibility" d="M11.6719 16.1538C12.6881 16.1538 13.5503 15.7982 14.2587 15.0868C14.967 14.3755 15.3212 13.5117 15.3212 12.4955C15.3212 11.4793 14.9655 10.617 14.2542 9.90865C13.5428 9.20032 12.679 8.84615 11.6628 8.84615C10.6466 8.84615 9.78431 9.20182 9.07597 9.91317C8.36764 10.6245 8.01347 11.4883 8.01347 12.5045C8.01347 13.5207 8.36915 14.383 9.0805 15.0913C9.79185 15.7997 10.6556 16.1538 11.6719 16.1538ZM11.6673 15.2C10.9173 15.2 10.2798 14.9375 9.75483 14.4125C9.22983 13.8875 8.96732 13.25 8.96732 12.5C8.96732 11.75 9.22983 11.1125 9.75483 10.5875C10.2798 10.0625 10.9173 9.8 11.6673 9.8C12.4173 9.8 13.0548 10.0625 13.5798 10.5875C14.1048 11.1125 14.3673 11.75 14.3673 12.5C14.3673 13.25 14.1048 13.8875 13.5798 14.4125C13.0548 14.9375 12.4173 15.2 11.6673 15.2ZM11.6673 19C9.69041 19 7.87727 18.4769 6.2279 17.4308C4.57853 16.3846 3.24616 15.0128 2.23078 13.3154C2.14744 13.1782 2.08815 13.043 2.0529 12.9096C2.01763 12.7763 2 12.6394 2 12.499C2 12.3586 2.01763 12.2221 2.0529 12.0894C2.08815 11.9567 2.14744 11.8218 2.23078 11.6846C3.24616 9.98717 4.57853 8.61537 6.2279 7.56922C7.87727 6.52307 9.69041 6 11.6673 6C13.6442 6 15.4574 6.52307 17.1068 7.56922C18.7561 8.61537 20.0885 9.98717 21.1039 11.6846C21.1872 11.8218 21.2465 11.9571 21.2818 12.0904C21.317 12.2238 21.3347 12.3606 21.3347 12.501C21.3347 12.6414 21.317 12.7779 21.2818 12.9106C21.2465 13.0433 21.1872 13.1782 21.1039 13.3154C20.0885 15.0128 18.7561 16.3846 17.1068 17.4308C15.4574 18.4769 13.6442 19 11.6673 19ZM11.6673 18C13.5507 18 15.2798 17.5042 16.8548 16.5125C18.4298 15.5208 19.634 14.1833 20.4673 12.5C19.634 10.8167 18.4298 9.47917 16.8548 8.4875C15.2798 7.49583 13.5507 7 11.6673 7C9.78399 7 8.05482 7.49583 6.47983 8.4875C4.90482 9.47917 3.70066 10.8167 2.86733 12.5C3.70066 14.1833 4.90482 15.5208 6.47983 16.5125C8.05482 17.5042 9.78399 18 11.6673 18Z" fill="#ffffff"/>
</g>
</g>
</svg>
