<svg width="25" height="24" viewBox="0 0 25 24" fill="none" xmlns="http://www.w3.org/2000/svg">
    <mask id="shmf966vwa" style="mask-type:alpha" maskUnits="userSpaceOnUse" x="0" y="0" width="25" height="24">
        <path fill="#D9D9D9" d="M.794 0h24v24h-24z"/>
    </mask>
    <g mask="url(#shmf966vwa)">
        <path d="M6.41 20c-.46 0-.845-.154-1.153-.462a1.565 1.565 0 0 1-.463-1.153V5.615c0-.46.154-.844.463-1.152A1.565 1.565 0 0 1 6.41 4h12.769c.46 0 .844.154 1.153.463.308.308.462.692.462 1.152V7H14.41c-.8 0-1.435.236-1.907.709-.473.472-.709 1.108-.709 1.906v4.77c0 .798.236 1.434.709 1.906.472.473 1.108.709 1.907.709h6.384v1.385c0 .46-.154.844-.462 1.152a1.565 1.565 0 0 1-1.153.463H6.409zm8-4c-.46 0-.845-.154-1.153-.463a1.565 1.565 0 0 1-.463-1.152v-4.77c0-.46.154-.844.463-1.152A1.565 1.565 0 0 1 14.41 8h5.769c.46 0 .844.154 1.153.463.308.308.462.692.462 1.152v4.77c0 .46-.154.844-.462 1.152a1.565 1.565 0 0 1-1.153.463h-5.77zm2.384-2.5c.433 0 .792-.142 1.075-.425.284-.283.425-.642.425-1.075 0-.433-.142-.792-.425-1.075-.283-.283-.642-.425-1.075-.425-.433 0-.791.142-1.075.425-.283.283-.425.642-.425 1.075 0 .433.142.792.425 1.075.284.283.642.425 1.075.425z" fill=""/>
    </g>
</svg>
