<svg width="25" height="24" viewBox="0 0 25 24" fill="none" xmlns="http://www.w3.org/2000/svg">
    <mask id="6doi1quzya" style="mask-type:alpha" maskUnits="userSpaceOnUse" x="0" y="0" width="25" height="24">
        <path fill="#D9D9D9" d="M.5 0h24v24H.5z"/>
    </mask>
    <g mask="url(#6doi1quzya)">
        <path d="M6.115 20c-.447 0-.828-.157-1.143-.472a1.557 1.557 0 0 1-.472-1.143V5.615c0-.447.157-.828.472-1.143A1.557 1.557 0 0 1 6.115 4h12.77c.447 0 .828.157 1.143.472.315.315.472.696.472 1.143v2.943h-1V5.615a.599.599 0 0 0-.173-.442.599.599 0 0 0-.442-.173H6.115a.599.599 0 0 0-.442.173.599.599 0 0 0-.173.442v12.77c0 .18.058.326.173.442a.599.599 0 0 0 .442.173h12.77c.18 0 .326-.058.442-.173a.599.599 0 0 0 .173-.442v-2.943h1v2.943c0 .447-.157.828-.472 1.143a1.557 1.557 0 0 1-1.143.472H6.115zm8-4c-.447 0-.828-.157-1.143-.472a1.557 1.557 0 0 1-.472-1.143v-4.77c0-.447.157-.828.472-1.143A1.557 1.557 0 0 1 14.115 8h5.77c.447 0 .828.157 1.143.472.315.315.472.696.472 1.143v4.77c0 .447-.157.828-.472 1.143a1.557 1.557 0 0 1-1.143.472h-5.77zm5.77-1c.18 0 .326-.058.442-.173a.599.599 0 0 0 .173-.442v-4.77a.599.599 0 0 0-.173-.442.599.599 0 0 0-.442-.173h-5.77a.599.599 0 0 0-.442.173.599.599 0 0 0-.173.442v4.77c0 .18.058.326.173.442a.599.599 0 0 0 .442.173h5.77zM16.5 13.5c.417 0 .77-.146 1.063-.438.291-.291.437-.645.437-1.062 0-.417-.146-.77-.438-1.063A1.446 1.446 0 0 0 16.5 10.5c-.417 0-.77.146-1.063.438A1.446 1.446 0 0 0 15 12c0 .417.146.77.438 1.063.291.291.645.437 1.062.437z" fill=""/>
    </g>
</svg>
