<svg width="25" height="24" viewBox="0 0 25 24" fill="none" xmlns="http://www.w3.org/2000/svg">
<mask id="mask0_172_15724" style="mask-type:alpha" maskUnits="userSpaceOnUse" x="0" y="0" width="25" height="24">
<rect x="0.5" width="24" height="24" fill="#D9D9D9"/>
</mask>
<g mask="url(#mask0_172_15724)">
<path d="M18.0577 19.0578C17.2339 19.0578 16.5375 18.7734 15.9686 18.2045C15.3998 17.6357 15.1154 16.9393 15.1154 16.1155C15.1154 15.2916 15.3998 14.5953 15.9686 14.0264C16.5375 13.4576 17.2339 13.1732 18.0577 13.1732C18.8816 13.1732 19.5779 13.4576 20.1467 14.0264C20.7156 14.5953 21 15.2916 21 16.1155C21 16.9393 20.7156 17.6357 20.1467 18.2045C19.5779 18.7734 18.8816 19.0578 18.0577 19.0578ZM12.2308 16.6155H6C5.85833 16.6155 5.73958 16.5675 5.64375 16.4715C5.54792 16.3756 5.5 16.2567 5.5 16.1148C5.5 15.9729 5.54792 15.8542 5.64375 15.7587C5.73958 15.6632 5.85833 15.6155 6 15.6155H12.2308C12.3724 15.6155 12.4912 15.6634 12.587 15.7594C12.6829 15.8554 12.7308 15.9743 12.7308 16.1161C12.7308 16.258 12.6829 16.3767 12.587 16.4722C12.4912 16.5677 12.3724 16.6155 12.2308 16.6155ZM6.9423 10.827C6.11845 10.827 5.42211 10.5426 4.85327 9.97373C4.28442 9.40488 4 8.70854 4 7.88471C4 7.06086 4.28442 6.36451 4.85327 5.79566C5.42211 5.22681 6.11845 4.94238 6.9423 4.94238C7.76615 4.94238 8.4625 5.22681 9.03135 5.79566C9.6002 6.36451 9.88463 7.06086 9.88463 7.88471C9.88463 8.70854 9.6002 9.40488 9.03135 9.97373C8.4625 10.5426 7.76615 10.827 6.9423 10.827ZM19 8.38471H12.7692C12.6276 8.38471 12.5088 8.33672 12.413 8.24076C12.3171 8.14479 12.2692 8.02588 12.2692 7.88403C12.2692 7.74217 12.3171 7.62347 12.413 7.52796C12.5088 7.43244 12.6276 7.38468 12.7692 7.38468H19C19.1417 7.38468 19.2604 7.43267 19.3562 7.52863C19.4521 7.6246 19.5 7.74351 19.5 7.88536C19.5 8.02722 19.4521 8.14592 19.3562 8.24143C19.2604 8.33695 19.1417 8.38471 19 8.38471Z" fill=""/>
</g>
</svg>
