<svg width="25" height="24" viewBox="0 0 25 24" fill="none" xmlns="http://www.w3.org/2000/svg">
    <mask id="gjzg7i16ba" style="mask-type:alpha" maskUnits="userSpaceOnUse" x="0" y="0" width="25" height="24">
        <path fill="#D9D9D9" d="M.5 0h24v24H.5z"/>
    </mask>
    <g mask="url(#gjzg7i16ba)">
        <path d="M18.058 19.058c-.824 0-1.52-.285-2.09-.854-.568-.568-.853-1.265-.853-2.088 0-.824.285-1.52.854-2.09.569-.568 1.265-.853 2.089-.853.823 0 1.52.285 2.089.853.569.57.853 1.266.853 2.09 0 .823-.284 1.52-.853 2.088-.57.57-1.265.854-2.09.854zm-.002-1c.536 0 .994-.19 1.374-.569.38-.378.57-.836.57-1.372 0-.536-.19-.994-.568-1.374a1.866 1.866 0 0 0-1.372-.57c-.536 0-.994.19-1.374.568-.38.38-.57.837-.57 1.372 0 .536.189.994.568 1.375.378.38.836.57 1.372.57zm-5.825-1.442H6a.483.483 0 0 1-.356-.145.485.485 0 0 1-.144-.356c0-.142.048-.26.144-.356A.485.485 0 0 1 6 15.616h6.23c.142 0 .261.047.357.143a.485.485 0 0 1 .144.357c0 .142-.048.26-.144.356a.485.485 0 0 1-.356.143zm-5.289-5.789c-.824 0-1.52-.284-2.089-.853C4.284 9.404 4 8.709 4 7.884c0-.823.284-1.52.853-2.088.57-.57 1.265-.854 2.09-.854.823 0 1.52.285 2.088.854.57.569.854 1.265.854 2.089 0 .824-.285 1.52-.854 2.089s-1.265.853-2.089.853zm-.002-1c.536 0 .994-.19 1.374-.568.38-.38.57-.836.57-1.372 0-.536-.189-.994-.568-1.374a1.866 1.866 0 0 0-1.372-.57c-.536 0-.994.189-1.374.568-.38.378-.57.836-.57 1.372 0 .536.19.994.568 1.374.38.38.836.57 1.372.57zM19 8.385h-6.23a.483.483 0 0 1-.357-.144.485.485 0 0 1-.144-.357c0-.142.048-.26.144-.356a.485.485 0 0 1 .356-.143H19c.142 0 .26.048.356.144a.485.485 0 0 1 .144.356c0 .142-.048.26-.144.356a.484.484 0 0 1-.356.144z" fill=""/>
    </g>
</svg>
