<svg width="24" height="25" viewBox="0 0 24 25" fill="none" xmlns="http://www.w3.org/2000/svg">
<g id="icon/outline/plus">
<mask id="mask0_381_26419" style="mask-type:alpha" maskUnits="userSpaceOnUse" x="0" y="0" width="24" height="25">
<rect id="Bounding box" y="0.778198" width="24" height="24" fill="#D9D9D9"/>
</mask>
<g mask="url(#mask0_381_26419)">
<path id="add" d="M11.5 13.2782H6.5C6.35833 13.2782 6.23958 13.2302 6.14375 13.1342C6.04792 13.0383 6 12.9194 6 12.7775C6 12.6357 6.04792 12.517 6.14375 12.4215C6.23958 12.326 6.35833 12.2782 6.5 12.2782H11.5V7.2782C11.5 7.13653 11.548 7.01778 11.6439 6.92195C11.7399 6.82611 11.8588 6.7782 12.0007 6.7782C12.1425 6.7782 12.2612 6.82611 12.3567 6.92195C12.4522 7.01778 12.5 7.13653 12.5 7.2782V12.2782H17.5C17.6417 12.2782 17.7604 12.3262 17.8562 12.4221C17.9521 12.5181 18 12.637 18 12.7789C18 12.9207 17.9521 13.0394 17.8562 13.1349C17.7604 13.2304 17.6417 13.2782 17.5 13.2782H12.5V18.2782C12.5 18.4199 12.452 18.5386 12.3561 18.6344C12.2601 18.7303 12.1412 18.7782 11.9993 18.7782C11.8575 18.7782 11.7388 18.7303 11.6433 18.6344C11.5478 18.5386 11.5 18.4199 11.5 18.2782V13.2782Z" fill="#DB0011"/>
</g>
</g>
</svg>
