<svg width="24" height="25" viewBox="0 0 24 25" fill="none" xmlns="http://www.w3.org/2000/svg">
<g id="icon/outline/power_off">
<mask id="mask0_9_9224" style="mask-type:alpha" maskUnits="userSpaceOnUse" x="0" y="0" width="24" height="25">
<rect id="Bounding box" y="0.5" width="24" height="24" fill="#D9D9D9"/>
</mask>
<g mask="url(#mask0_9_9224)">
<path id="power_settings_new" d="M11.5 13V4.84616C11.5 4.70386 11.5478 4.58495 11.6433 4.48944C11.7388 4.39392 11.8577 4.34616 12 4.34616C12.1423 4.34616 12.2612 4.39392 12.3567 4.48944C12.4522 4.58495 12.5 4.70386 12.5 4.84616V13C12.5 13.1423 12.4522 13.2612 12.3567 13.3567C12.2612 13.4523 12.1423 13.5 12 13.5C11.8577 13.5 11.7388 13.4523 11.6433 13.3567C11.5478 13.2612 11.5 13.1423 11.5 13ZM12 20.5C10.8949 20.5 9.85737 20.2914 8.8875 19.8741C7.91763 19.4567 7.06923 18.8846 6.3423 18.1577C5.61538 17.4308 5.04327 16.5824 4.62595 15.6125C4.20865 14.6426 4 13.6051 4 12.5C4 11.4013 4.21891 10.358 4.65672 9.37021C5.09454 8.38238 5.70319 7.51026 6.48268 6.75386C6.58909 6.64359 6.71025 6.58205 6.84615 6.56924C6.98205 6.55642 7.10512 6.60514 7.21537 6.71539C7.32179 6.8218 7.36346 6.94199 7.34037 7.07596C7.31731 7.20994 7.25257 7.33399 7.14615 7.44809C6.4641 8.09424 5.9359 8.85354 5.56155 9.72599C5.18718 10.5984 5 11.5231 5 12.5C5 14.4333 5.68333 16.0833 7.05 17.45C8.41667 18.8167 10.0667 19.5 12 19.5C13.95 19.5 15.6042 18.8167 16.9625 17.45C18.3208 16.0833 19 14.4333 19 12.5C19 11.5231 18.816 10.5965 18.4481 9.72021C18.0801 8.84393 17.5468 8.08271 16.8481 7.43656C16.7417 7.32629 16.6779 7.20514 16.6567 7.07309C16.6356 6.94104 16.6782 6.8218 16.7846 6.71539C16.8949 6.60514 17.018 6.55642 17.1538 6.56924C17.2897 6.58205 17.4109 6.64359 17.5173 6.75386C18.3135 7.51026 18.9263 8.38238 19.3558 9.37021C19.7853 10.358 20 11.4013 20 12.5C20 13.6051 19.7913 14.6426 19.374 15.6125C18.9567 16.5824 18.3856 17.4308 17.6606 18.1577C16.9356 18.8846 16.0881 19.4567 15.1183 19.8741C14.1484 20.2914 13.109 20.5 12 20.5Z" fill="white"/>
</g>
</g>
</svg>
