<svg width="16" height="17" viewBox="0 0 16 17" fill="none" xmlns="http://www.w3.org/2000/svg">
<g id="Group 13008">
<path id="Subtract" d="M8.00298 16.2782C6.89671 16.2782 5.85664 16.0683 4.88276 15.6484C3.90887 15.2286 3.06173 14.6588 2.34131 13.9391C1.62091 13.2193 1.05059 12.373 0.630356 11.4C0.210118 10.427 0 9.38743 0 8.28118C0 7.17491 0.209919 6.13484 0.629756 5.16095C1.04961 4.18707 1.6194 3.33992 2.33913 2.61951C3.05887 1.89911 3.90522 1.32879 4.87818 0.908554C5.85116 0.488317 6.89077 0.278198 7.99702 0.278198C9.10329 0.278198 10.1434 0.488117 11.1172 0.907954C12.0911 1.32781 12.9383 1.8976 13.6587 2.61733C14.3791 3.33706 14.9494 4.18341 15.3696 5.15638C15.7899 6.12935 16 7.16897 16 8.27522C16 9.38149 15.7901 10.4216 15.3702 11.3954C14.9504 12.3693 14.3806 13.2165 13.6609 13.9369C12.9411 14.6573 12.0948 15.2276 11.1218 15.6478C10.1488 16.0681 9.10923 16.2782 8.00298 16.2782Z" fill="white"/>
<path id="Subtract_2" fill-rule="evenodd" clip-rule="evenodd" d="M5.27241 14.7272C6.12456 15.0945 7.03462 15.2782 8.00261 15.2782C8.97058 15.2782 9.88024 15.0943 10.7316 14.7266C11.5829 14.3589 12.3235 13.8599 12.9533 13.2296C13.583 12.5992 14.0816 11.8579 14.449 11.0058C14.8163 10.1536 15 9.24358 15 8.27559C15 7.30762 14.8161 6.39796 14.4484 5.5466C14.0807 4.69526 13.5817 3.95471 12.9514 3.32494C12.321 2.69517 11.5797 2.1966 10.7276 1.82923C9.87544 1.46188 8.96538 1.2782 7.99739 1.2782C7.02942 1.2782 6.11976 1.46205 5.26841 1.82976C4.41706 2.19747 3.67651 2.6965 3.04674 3.32685C2.41698 3.95721 1.91841 4.69846 1.55104 5.55061C1.18368 6.40276 1 7.31282 1 8.2808C1 9.24877 1.18385 10.1584 1.55156 11.0098C1.91927 11.8611 2.4183 12.6017 3.04865 13.2315C3.67901 13.8612 4.42026 14.3598 5.27241 14.7272ZM4.5 10.6299V11.3012C4.5 11.4382 4.54541 11.552 4.63623 11.6425C4.72706 11.733 4.84125 11.7782 4.97882 11.7782H5.5956C5.72329 11.7782 5.84737 11.7519 5.96784 11.6993C6.0883 11.6466 6.19148 11.5775 6.27736 11.492L11.3301 6.45807C11.3955 6.39295 11.4401 6.32499 11.4641 6.25419C11.488 6.18339 11.5 6.10823 11.5 6.02872C11.5 5.94921 11.4837 5.87028 11.451 5.79191C11.4183 5.71354 11.3704 5.64179 11.3073 5.57667L10.6484 4.93948C10.5906 4.88194 10.5262 4.84067 10.4551 4.81567C10.3841 4.79069 10.3113 4.7782 10.2368 4.7782C10.157 4.7782 10.081 4.79069 10.0088 4.81567C9.93658 4.84067 9.8678 4.88572 9.80244 4.95084L4.78388 9.95068C4.69799 10.0362 4.6292 10.139 4.57753 10.259C4.52584 10.3791 4.5 10.5027 4.5 10.6299ZM5.74039 11.1876H5.09283V10.4822L9.00668 6.583L9.36807 6.9283L9.69186 7.25086L5.74039 11.1876Z" fill="black"/>
</g>
</svg>
