<svg width="32" height="33" viewBox="0 0 32 33" fill="none" xmlns="http://www.w3.org/2000/svg">
<g id="icon/outline/profile">
<mask id="mask0_87_560" style="mask-type:alpha" maskUnits="userSpaceOnUse" x="0" y="0" width="32" height="33">
<rect id="Bounding box" y="0.778198" width="32" height="32" fill="#D9D9D9"/>
</mask>
<g mask="url(#mask0_87_560)">
<path id="account_circle" d="M8.26153 24.091C9.39487 23.2756 10.5974 22.6308 11.8692 22.1564C13.141 21.682 14.518 21.4449 16 21.4449C17.482 21.4449 18.859 21.682 20.1308 22.1564C21.4026 22.6308 22.6051 23.2756 23.7385 24.091C24.6188 23.1799 25.3269 22.1038 25.8628 20.8628C26.3987 19.6218 26.6667 18.2602 26.6667 16.7782C26.6667 13.8226 25.6278 11.306 23.55 9.2282C21.4722 7.15042 18.9556 6.11153 16 6.11153C13.0444 6.11153 10.5278 7.15042 8.45 9.2282C6.37222 11.306 5.33333 13.8226 5.33333 16.7782C5.33333 18.2602 5.60128 19.6218 6.13717 20.8628C6.67308 22.1038 7.3812 23.1799 8.26153 24.091ZM16.0008 17.4449C14.8772 17.4449 13.9295 17.0592 13.1577 16.288C12.3859 15.5167 12 14.5692 12 13.4456C12 12.322 12.3856 11.3743 13.1569 10.6026C13.9282 9.83077 14.8756 9.44487 15.9992 9.44487C17.1228 9.44487 18.0705 9.83051 18.8423 10.6018C19.6141 11.3731 20 12.3205 20 13.4441C20 14.5677 19.6144 15.5154 18.8431 16.2872C18.0718 17.059 17.1244 17.4449 16.0008 17.4449ZM16 28.7782C14.3265 28.7782 12.7598 28.4667 11.3 27.8436C9.84018 27.2205 8.57009 26.3688 7.48973 25.2885C6.4094 24.2081 5.55769 22.938 4.9346 21.4782C4.31153 20.0184 4 18.4517 4 16.7782C4 15.1047 4.31153 13.538 4.9346 12.0782C5.55769 10.6184 6.4094 9.34829 7.48973 8.26793C8.57009 7.1876 9.84018 6.33589 11.3 5.7128C12.7598 5.08973 14.3265 4.7782 16 4.7782C17.6735 4.7782 19.2402 5.08973 20.7 5.7128C22.1598 6.33589 23.4299 7.1876 24.5103 8.26793C25.5906 9.34829 26.4423 10.6184 27.0654 12.0782C27.6885 13.538 28 15.1047 28 16.7782C28 18.4517 27.6885 20.0184 27.0654 21.4782C26.4423 22.938 25.5906 24.2081 24.5103 25.2885C23.4299 26.3688 22.1598 27.2205 20.7 27.8436C19.2402 28.4667 17.6735 28.7782 16 28.7782ZM16 27.4449C17.2291 27.4449 18.4385 27.2299 19.6282 26.8C20.818 26.3701 21.8462 25.7816 22.7128 25.0346C21.8462 24.3389 20.8436 23.7889 19.7051 23.3846C18.5667 22.9803 17.3316 22.7782 16 22.7782C14.6684 22.7782 13.4291 22.9761 12.2821 23.3718C11.135 23.7675 10.1367 24.3218 9.28717 25.0346C10.1538 25.7816 11.182 26.3701 12.3718 26.8C13.5615 27.2299 14.7709 27.4449 16 27.4449ZM16 16.1115C16.7487 16.1115 17.3803 15.8543 17.8949 15.3397C18.4094 14.8252 18.6667 14.1936 18.6667 13.4449C18.6667 12.6962 18.4094 12.0645 17.8949 11.55C17.3803 11.0355 16.7487 10.7782 16 10.7782C15.2513 10.7782 14.6197 11.0355 14.1051 11.55C13.5906 12.0645 13.3333 12.6962 13.3333 13.4449C13.3333 14.1936 13.5906 14.8252 14.1051 15.3397C14.6197 15.8543 15.2513 16.1115 16 16.1115Z" fill="white"/>
</g>
</g>
</svg>
