<svg width="32" height="32" viewBox="0 0 32 32" fill="none" xmlns="http://www.w3.org/2000/svg">
<g id="icon/filled/profile">
<mask id="mask0_575_4775" style="mask-type:alpha" maskUnits="userSpaceOnUse" x="0" y="0" width="32" height="32">
<rect id="Bounding box" width="32" height="32" fill="#D9D9D9"/>
</mask>
<g mask="url(#mask0_575_4775)">
<path id="account_circle" d="M8.26153 23.3128C9.39487 22.4974 10.5974 21.8526 11.8692 21.3782C13.141 20.9038 14.518 20.6667 16 20.6667C17.482 20.6667 18.859 20.9038 20.1308 21.3782C21.4026 21.8526 22.6051 22.4974 23.7385 23.3128C24.6188 22.4017 25.3269 21.3256 25.8628 20.0846C26.3987 18.8436 26.6667 17.482 26.6667 16C26.6667 13.0444 25.6278 10.5278 23.55 8.45C21.4722 6.37222 18.9556 5.33333 16 5.33333C13.0444 5.33333 10.5278 6.37222 8.45 8.45C6.37222 10.5278 5.33333 13.0444 5.33333 16C5.33333 17.482 5.60128 18.8436 6.13717 20.0846C6.67308 21.3256 7.3812 22.4017 8.26153 23.3128ZM16 16.6667C14.8769 16.6667 13.9295 16.2808 13.1577 15.509C12.3859 14.7372 12 13.7898 12 12.6667C12 11.5436 12.3859 10.5961 13.1577 9.82437C13.9295 9.05257 14.8769 8.66667 16 8.66667C17.1231 8.66667 18.0705 9.05257 18.8423 9.82437C19.6141 10.5961 20 11.5436 20 12.6667C20 13.7898 19.6141 14.7372 18.8423 15.509C18.0705 16.2808 17.1231 16.6667 16 16.6667ZM16 28C14.3265 28 12.7598 27.6885 11.3 27.0654C9.84018 26.4423 8.57009 25.5906 7.48973 24.5103C6.4094 23.4299 5.55769 22.1598 4.9346 20.7C4.31153 19.2402 4 17.6735 4 16C4 14.3265 4.31153 12.7598 4.9346 11.3C5.55769 9.84018 6.4094 8.57009 7.48973 7.48973C8.57009 6.4094 9.84018 5.55769 11.3 4.9346C12.7598 4.31153 14.3265 4 16 4C17.6735 4 19.2402 4.31153 20.7 4.9346C22.1598 5.55769 23.4299 6.4094 24.5103 7.48973C25.5906 8.57009 26.4423 9.84018 27.0654 11.3C27.6885 12.7598 28 14.3265 28 16C28 17.6735 27.6885 19.2402 27.0654 20.7C26.4423 22.1598 25.5906 23.4299 24.5103 24.5103C23.4299 25.5906 22.1598 26.4423 20.7 27.0654C19.2402 27.6885 17.6735 28 16 28Z" fill="white"/>
</g>
</g>
</svg>
