<svg width="48" height="49" viewBox="0 0 48 49" fill="none" xmlns="http://www.w3.org/2000/svg">
<g id="icon/filled/profile">
<mask id="mask0_497_2092" style="mask-type:alpha" maskUnits="userSpaceOnUse" x="0" y="0" width="48" height="49">
<rect id="Bounding box" y="0.278198" width="48" height="48" fill="#D9D9D9"/>
</mask>
<g mask="url(#mask0_497_2092)">
<path id="account_circle" d="M12.3923 35.2474C14.0923 34.0243 15.8962 33.057 17.8039 32.3455C19.7115 31.634 21.7769 31.2782 24 31.2782C26.2231 31.2782 28.2885 31.634 30.1961 32.3455C32.1038 33.057 33.9077 34.0243 35.6077 35.2474C36.9282 33.8808 37.9904 32.2667 38.7943 30.4051C39.5981 28.5436 40 26.5013 40 24.2782C40 19.8449 38.4417 16.0699 35.325 12.9532C32.2083 9.83653 28.4333 8.2782 24 8.2782C19.5667 8.2782 15.7917 9.83653 12.675 12.9532C9.55833 16.0699 8 19.8449 8 24.2782C8 26.5013 8.40192 28.5436 9.20575 30.4051C10.0096 32.2667 11.0718 33.8808 12.3923 35.2474ZM24 25.2782C22.3154 25.2782 20.8942 24.6993 19.7365 23.5416C18.5788 22.384 18 20.9628 18 19.2782C18 17.5936 18.5788 16.1724 19.7365 15.0147C20.8942 13.857 22.3154 13.2782 24 13.2782C25.6846 13.2782 27.1058 13.857 28.2634 15.0147C29.4211 16.1724 30 17.5936 30 19.2782C30 20.9628 29.4211 22.384 28.2634 23.5416C27.1058 24.6993 25.6846 25.2782 24 25.2782ZM24 42.2782C21.4897 42.2782 19.1397 41.8109 16.95 40.8763C14.7603 39.9417 12.8551 38.6641 11.2346 37.0436C9.6141 35.4231 8.33653 33.5179 7.4019 31.3282C6.4673 29.1385 6 26.7885 6 24.2782C6 21.7679 6.4673 19.4179 7.4019 17.2282C8.33653 15.0385 9.6141 13.1333 11.2346 11.5128C12.8551 9.8923 14.7603 8.61473 16.95 7.6801C19.1397 6.7455 21.4897 6.2782 24 6.2782C26.5103 6.2782 28.8603 6.7455 31.05 7.6801C33.2397 8.61473 35.1449 9.8923 36.7654 11.5128C38.3859 13.1333 39.6635 15.0385 40.5981 17.2282C41.5327 19.4179 42 21.7679 42 24.2782C42 26.7885 41.5327 29.1385 40.5981 31.3282C39.6635 33.5179 38.3859 35.4231 36.7654 37.0436C35.1449 38.6641 33.2397 39.9417 31.05 40.8763C28.8603 41.8109 26.5103 42.2782 24 42.2782Z" fill="black"/>
</g>
</g>
</svg>
