<svg width="24" height="25" viewBox="0 0 24 25" fill="none" xmlns="http://www.w3.org/2000/svg">
<g id="icon/functional/arrow/right">
<mask id="mask0_764_6208" style="mask-type:alpha" maskUnits="userSpaceOnUse" x="0" y="0" width="24" height="25">
<rect id="Bounding box" y="0.778198" width="24" height="24" fill="#767676"/>
</mask>
<g mask="url(#mask0_764_6208)">
<path id="arrow" d="M15.1866 12.7782L7.47124 5.06282C7.32381 4.91539 7.25105 4.73814 7.25297 4.53107C7.2549 4.32402 7.32958 4.14678 7.47702 3.99935C7.62445 3.85192 7.80169 3.7782 8.00874 3.7782C8.21579 3.7782 8.39303 3.85192 8.54047 3.99935L16.177 11.6416C16.3386 11.8032 16.4565 11.9833 16.5309 12.182C16.6052 12.3808 16.6424 12.5795 16.6424 12.7782C16.6424 12.9769 16.6052 13.1756 16.5309 13.3743C16.4565 13.5731 16.3386 13.7532 16.177 13.9147L8.53472 21.557C8.38728 21.7045 8.211 21.7772 8.00587 21.7753C7.80073 21.7734 7.62445 21.6987 7.47702 21.5513C7.32958 21.4038 7.25587 21.2266 7.25587 21.0195C7.25587 20.8125 7.32958 20.6353 7.47702 20.4878L15.1866 12.7782Z" fill="#767676"/>
</g>
</g>
</svg>
