<svg width="18" height="19" viewBox="0 0 18 19" fill="none" xmlns="http://www.w3.org/2000/svg">
<g id="icon/functional/arrow/right">
<mask id="mask0_257_2276" style="mask-type:alpha" maskUnits="userSpaceOnUse" x="0" y="0" width="18" height="19">
<rect id="Bounding box" y="0.778198" width="18" height="18" fill="#D9D9D9"/>
</mask>
<g mask="url(#mask0_257_2276)">
<path id="arrow" d="M11.3898 9.7782L5.60331 3.99167C5.49273 3.88109 5.43817 3.74815 5.4396 3.59285C5.44105 3.43757 5.49707 3.30464 5.60764 3.19406C5.71822 3.08349 5.85115 3.0282 6.00643 3.0282C6.16172 3.0282 6.29465 3.08349 6.40523 3.19406L12.1326 8.92579C12.2538 9.04695 12.3423 9.18205 12.398 9.33109C12.4538 9.48012 12.4817 9.62916 12.4817 9.7782C12.4817 9.92724 12.4538 10.0763 12.398 10.2253C12.3423 10.3743 12.2538 10.5094 12.1326 10.6306L6.40092 16.3623C6.29034 16.4729 6.15813 16.5275 6.00428 16.526C5.85043 16.5246 5.71822 16.4686 5.60764 16.358C5.49707 16.2474 5.44178 16.1145 5.44178 15.9592C5.44178 15.8039 5.49707 15.671 5.60764 15.5604L11.3898 9.7782Z" fill="black"/>
</g>
</g>
</svg>
