<svg width="24" height="25" viewBox="0 0 24 25" fill="none" xmlns="http://www.w3.org/2000/svg">
<g id="icon/chevron/right">
<mask id="mask0_784_10057" style="mask-type:alpha" maskUnits="userSpaceOnUse" x="0" y="0" width="24" height="25">
<rect id="Bounding box" y="0.778198" width="24" height="24" fill="#D9D9D9"/>
</mask>
<g mask="url(#mask0_784_10057)">
<path id="chevron_right" d="M13.2923 12.7781L9.0461 8.532C8.95252 8.43841 8.90252 8.32367 8.8961 8.18777C8.88968 8.05187 8.93968 7.93071 9.0461 7.8243C9.15252 7.71788 9.27047 7.66467 9.39995 7.66467C9.52943 7.66467 9.64738 7.71788 9.7538 7.8243L14.1423 12.2128C14.2294 12.2999 14.2907 12.389 14.3259 12.4801C14.3612 12.5711 14.3788 12.6704 14.3788 12.7781C14.3788 12.8858 14.3612 12.9852 14.3259 13.0762C14.2907 13.1673 14.2294 13.2564 14.1423 13.3435L9.7538 17.732C9.66022 17.8256 9.54547 17.8756 9.40957 17.882C9.27367 17.8884 9.15252 17.8384 9.0461 17.732C8.93968 17.6256 8.88647 17.5076 8.88647 17.3781C8.88647 17.2487 8.93968 17.1307 9.0461 17.0243L13.2923 12.7781Z" fill="#767676"/>
</g>
</g>
</svg>
