<svg width="60" height="20" viewBox="0 0 60 20" fill="none" xmlns="http://www.w3.org/2000/svg">
<g id="SAB.logo">
<path id="Combined Shape" fill-rule="evenodd" clip-rule="evenodd" d="M43.3048 15.2855L42.7021 15.0961C41.6766 14.7768 41.1947 14.6174 41.1947 14.0889C41.1947 13.4508 41.7775 13.1416 42.3603 13.1416C43.1037 13.1416 43.486 13.5209 43.5458 14.1788H45.1238C45.1135 12.5831 43.8978 12.0948 42.481 12.0948C41.1041 12.0948 39.5967 12.6329 39.5967 14.2381C39.5967 15.5347 40.7321 15.9733 41.8777 16.3023L42.4001 16.4521C43.2142 16.6816 43.707 16.8607 43.707 17.4192C43.707 18.137 42.9835 18.4564 42.3403 18.4564C41.4755 18.4564 41.0238 17.9974 41.0032 17.2298H39.4258C39.456 18.9549 40.7423 19.5726 42.3101 19.5726C43.7372 19.5726 45.3352 18.9447 45.3352 17.2993C45.3352 16.1028 44.5513 15.6743 43.3048 15.2855ZM48.3004 16.731L49.5167 13.351L50.6823 16.731H48.3004ZM48.6816 12.2342L45.7374 19.4431H47.295L47.9182 17.7881H51.0936L51.7169 19.4431H53.4556L50.4607 12.2342H48.6816ZM56.924 18.3663H55.7681V16.2626H57.0146C57.7581 16.2626 58.3813 16.4621 58.3813 17.3195C58.3813 18.1967 57.6578 18.3663 56.924 18.3663ZM55.7681 13.3108H56.8739C57.5068 13.3108 58.1699 13.5104 58.1699 14.2582C58.1699 15.0958 57.4664 15.2354 56.7731 15.2354H55.7681V13.3108ZM58.2912 15.6844C59.1457 15.4651 59.7382 14.9863 59.7382 14.0588C59.7382 13.0917 59.0751 12.5236 58.1909 12.3241C57.8793 12.254 57.5574 12.2342 56.7638 12.2342H54.2413V19.4431H57.0954C58.3715 19.4431 59.9997 19.0644 59.9997 17.4292C59.9997 16.362 59.2762 15.8635 58.2912 15.6844ZM40.0472 9.81948C40.2622 10.0154 40.5418 10.1652 40.8855 10.2683C41.2291 10.3713 41.6482 10.4229 42.1434 10.4229C42.6187 10.4229 43.0252 10.3767 43.3622 10.2833C43.6998 10.1904 43.9758 10.0442 44.1907 9.84465C44.4063 9.64512 44.5634 9.38867 44.663 9.07649C44.7627 8.76371 44.8128 8.38802 44.8128 7.94942V1.46502H43.4733V7.74929C43.4733 8.05547 43.454 8.31492 43.4153 8.52763C43.3767 8.74034 43.3078 8.91171 43.2082 9.04174C43.1085 9.17116 42.9738 9.26583 42.8035 9.32575C42.6332 9.38567 42.4128 9.41563 42.1434 9.41563C41.8608 9.41563 41.6295 9.38387 41.4495 9.32096C41.2696 9.25744 41.1301 9.16756 41.0304 9.05132C40.9308 8.93508 40.8613 8.79008 40.8233 8.61751C40.7846 8.44435 40.7653 8.24841 40.7653 8.02911V6.23335H39.4258V8.17891C39.4258 8.52464 39.4753 8.83502 39.575 9.11124C39.6746 9.38687 39.8322 9.62355 40.0472 9.81948ZM47.3946 5.95891C47.4586 5.80911 47.5438 5.69467 47.6501 5.61497C47.7564 5.53468 47.8717 5.48195 47.9967 5.45499C48.1223 5.42863 48.2492 5.41544 48.3778 5.41544H48.5946C48.6943 5.41544 48.8018 5.41844 48.9171 5.42503V7.66959H48.3875C47.9955 7.66959 47.7159 7.58151 47.5486 7.40534C47.3819 7.22918 47.2986 6.94157 47.2986 6.54251C47.2986 6.30284 47.3306 6.1087 47.3946 5.95891ZM46.6967 8.2784C46.9183 8.43119 47.1786 8.53605 47.4776 8.59237C47.7759 8.6493 48.0894 8.67746 48.4173 8.67746H48.9083C48.8956 8.9429 48.8328 9.13763 48.7205 9.26107C48.6081 9.3839 48.4233 9.44562 48.1667 9.44562H46.6152V10.4229H48.1956C48.613 10.4229 48.9566 10.3762 49.2265 10.2833C49.4965 10.1898 49.7085 10.0556 49.8625 9.87943C50.0165 9.70327 50.1228 9.48876 50.1807 9.2359C50.2381 8.98304 50.2671 8.69723 50.2671 8.37787V4.43761C50.1771 4.43102 50.0569 4.42263 49.906 4.41304C49.755 4.40286 49.5943 4.39447 49.424 4.38788C49.2537 4.38129 49.0804 4.3747 48.9034 4.36811C48.7271 4.36151 48.5713 4.35792 48.4366 4.35792C48.1987 4.35792 47.9366 4.38309 47.6509 4.43282C47.3652 4.48255 47.0965 4.58561 46.8459 4.742C46.5958 4.89839 46.3869 5.12248 46.2196 5.41548C46.0529 5.70789 45.9696 6.09376 45.9696 6.57251C45.9696 7.01112 46.0354 7.36704 46.1671 7.63967C46.2987 7.9129 46.4751 8.12561 46.6967 8.2784ZM57.2637 1.46502H55.9242V7.6696H54.4017V3.20086H53.0622V7.6696H51.3277V8.67743H57.2637V1.46502ZM54.7294 1.7941H53.8428C53.8102 1.70123 53.7897 1.62273 53.78 1.55982C53.7704 1.49631 53.7655 1.43819 53.7655 1.38546C53.7655 1.21229 53.8169 1.10444 53.9195 1.0607C54.0228 1.01756 54.1418 0.995985 54.2764 0.995985C54.3084 0.995985 54.3568 0.99958 54.4208 1.00617C54.4848 1.01276 54.5331 1.01636 54.5657 1.01636V0.44713C54.5077 0.441138 54.4353 0.435745 54.3489 0.432749C54.2619 0.429154 54.1931 0.427357 54.1418 0.427357C53.7879 0.427357 53.5185 0.50585 53.3319 0.662238C53.1453 0.818027 53.0529 1.02954 53.0529 1.29558C53.0529 1.3555 53.0589 1.42021 53.0716 1.48972C53.0849 1.55982 53.1103 1.66108 53.1489 1.7941H52.7346V2.3825H54.7294V1.7941ZM58.6599 8.67743H59.9994V1.46502H58.6599V8.67743Z" fill="white"/>
<path id="Combined Shape_2" fill-rule="evenodd" clip-rule="evenodd" d="M9.05866 19.4429L9.05887 19.4431V19.4429H27.1762L18.1175 10.4552L27.1762 1.46749H9.05887H9.05849L9.05868 1.46768L0 10.4553L9.05857 19.4428L9.05849 19.4429H9.05866ZM18.1173 10.4552L9.05887 1.46787V19.4425L18.1173 10.4552ZM36.2359 10.4553L27.177 19.4431V1.46749L36.2359 10.4553Z" fill="white"/>
</g>
</svg>
