<svg width="76" height="25" viewBox="0 0 76 25" fill="none" xmlns="http://www.w3.org/2000/svg">
    <path fill-rule="evenodd" clip-rule="evenodd" d="m54.72 19.073-.753-.237c-1.282-.4-1.885-.598-1.885-1.26 0-.797.729-1.183 1.457-1.183.93 0 1.407.474 1.482 1.296h1.973c-.013-1.994-1.533-2.605-3.304-2.605-1.721 0-3.605.673-3.605 2.68 0 1.62 1.419 2.169 2.851 2.58l.653.187c1.018.287 1.634.51 1.634 1.209 0 .897-.905 1.296-1.709 1.296-1.08 0-1.645-.574-1.671-1.533H49.87c.038 2.156 1.646 2.929 3.605 2.929 1.784 0 3.782-.785 3.782-2.842 0-1.496-.98-2.031-2.538-2.517zm6.244 1.806 1.52-4.225 1.458 4.226h-2.978zm.477-5.62-3.68 9.01h1.947l.779-2.068h3.969l.779 2.069h2.173l-3.743-9.011H61.44zm10.303 7.665h-1.445v-2.63h1.558c.93 0 1.709.25 1.709 1.321 0 1.097-.905 1.309-1.822 1.309zm-1.445-6.32h1.382c.791 0 1.62.25 1.62 1.184 0 1.048-.88 1.222-1.746 1.222H70.3v-2.406zm3.154 2.967c1.068-.274 1.809-.872 1.809-2.032 0-1.209-.83-1.919-1.934-2.168-.39-.088-.792-.112-1.784-.112H68.39v9.01h3.568c1.595 0 3.63-.473 3.63-2.517 0-1.334-.904-1.957-2.135-2.18zm-22.805-7.33c.269.244.618.431 1.048.56.43.129.953.193 1.572.193.594 0 1.102-.057 1.524-.174.422-.116.767-.299 1.035-.548.27-.25.466-.57.59-.96.125-.392.188-.861.188-1.41V1.798H54.93v7.855c0 .383-.025.708-.073.973-.048.266-.134.48-.259.643-.124.162-.293.28-.506.355-.213.075-.488.112-.825.112-.353 0-.642-.04-.867-.118-.225-.08-.4-.192-.524-.337a1.223 1.223 0 0 1-.26-.542 3.39 3.39 0 0 1-.072-.736V7.757h-1.674v2.432c0 .433.062.82.187 1.166.124.344.321.64.59.885zm9.184-4.827a1.025 1.025 0 0 1 .753-.63 2.31 2.31 0 0 1 .476-.049h.271c.125 0 .26.004.403.012v2.806h-.662c-.49 0-.84-.11-1.048-.33-.209-.22-.313-.58-.313-1.08 0-.299.04-.541.12-.729zm-.872 2.9c.277.19.602.322.976.392.373.071.765.107 1.175.107h.613c-.016.331-.094.575-.235.73-.14.153-.371.23-.692.23h-1.94v1.221h1.976c.522 0 .952-.058 1.289-.174.337-.117.602-.285.795-.505.192-.22.325-.488.398-.804.072-.316.108-.674.108-1.073V5.513a46.661 46.661 0 0 0-.452-.03c-.188-.014-.39-.024-.602-.032l-.65-.025c-.221-.008-.416-.013-.584-.013-.298 0-.625.032-.982.094a2.79 2.79 0 0 0-1.007.386 2.327 2.327 0 0 0-.783.842c-.208.366-.312.848-.312 1.446 0 .549.082.994.247 1.334.164.342.385.608.662.799zm13.208-8.517h-1.674v7.756h-1.903V3.967h-1.674v5.586h-2.168v1.26h7.42V1.797zm-3.167.411h-1.109a1.455 1.455 0 0 1-.097-.51c0-.217.065-.352.193-.406.13-.054.278-.081.446-.081.04 0 .1.004.18.013.08.008.141.012.182.012V.525a6.6 6.6 0 0 0-.53-.025c-.442 0-.779.098-1.012.294-.234.194-.349.459-.349.791 0 .075.007.156.023.243.017.088.049.214.097.38h-.518v.736h2.494v-.736zm4.913 8.605h1.674V1.797h-1.674v9.016z" fill="#000"/>
    <path fill-rule="evenodd" clip-rule="evenodd" d="M11.912 24.27h22.647L23.235 13.033 34.56 1.8H11.912L.588 13.035l11.324 11.234zm11.323-11.236L11.912 1.8V24.27l11.323-11.235zm22.648 0L34.56 24.27V1.8l11.323 11.236z" fill="#DB0011"/>
</svg>
