<svg width="60" height="20" viewBox="0 0 60 20" fill="none" xmlns="http://www.w3.org/2000/svg">
<g id="SAB.logo">
<path id="Combined Shape" fill-rule="evenodd" clip-rule="evenodd" d="M43.3051 15.2854L42.7024 15.096C41.6769 14.7766 41.195 14.6173 41.195 14.0888C41.195 13.4506 41.7778 13.1415 42.3606 13.1415C43.104 13.1415 43.4863 13.5207 43.5461 14.1787H45.1241C45.1139 12.583 43.8982 12.0947 42.4814 12.0947C41.1044 12.0947 39.597 12.6328 39.597 14.238C39.597 15.5346 40.7324 15.9732 41.8781 16.3022L42.4004 16.452C43.2145 16.6815 43.7073 16.8606 43.7073 17.4191C43.7073 18.1369 42.9838 18.4562 42.3407 18.4562C41.4758 18.4562 41.0241 17.9973 41.0036 17.2297H39.4261C39.4563 18.9548 40.7427 19.5725 42.3105 19.5725C43.7375 19.5725 45.3355 18.9446 45.3355 17.2992C45.3355 16.1026 44.5516 15.6742 43.3051 15.2854ZM48.3008 16.7309L49.5171 13.3509L50.6826 16.7309H48.3008ZM48.6819 12.2341L45.7378 19.4429H47.2953L47.9185 17.788H51.094L51.7172 19.4429H53.4559L50.4611 12.2341H48.6819ZM56.9244 18.3662H55.7685V16.2625H57.015C57.7584 16.2625 58.3817 16.462 58.3817 17.3194C58.3817 18.1966 57.6582 18.3662 56.9244 18.3662ZM55.7685 13.3107H56.8743C57.5072 13.3107 58.1703 13.5103 58.1703 14.2581C58.1703 15.0957 57.4667 15.2353 56.7734 15.2353H55.7685V13.3107ZM58.2915 15.6842C59.1461 15.4649 59.7385 14.9862 59.7385 14.0587C59.7385 13.0916 59.0754 12.5235 58.1913 12.324C57.8796 12.2539 57.5577 12.2341 56.7642 12.2341H54.2416V19.4429H57.0957C58.3718 19.4429 60 19.0643 60 17.4291C60 16.3619 59.2765 15.8634 58.2915 15.6842ZM40.0476 9.81937C40.2626 10.0153 40.5422 10.1651 40.8858 10.2682C41.2294 10.3712 41.6486 10.4228 42.1438 10.4228C42.6191 10.4228 43.0255 10.3766 43.3625 10.2831C43.7001 10.1903 43.9761 10.0441 44.1911 9.84454C44.4067 9.64501 44.5637 9.38855 44.6634 9.07638C44.763 8.7636 44.8131 8.38791 44.8131 7.94931V1.46491H43.4736V7.74918C43.4736 8.05536 43.4543 8.31481 43.4156 8.52752C43.377 8.74023 43.3081 8.9116 43.2085 9.04163C43.1089 9.17105 42.9742 9.26572 42.8039 9.32564C42.6336 9.38556 42.4131 9.41552 42.1438 9.41552C41.8611 9.41552 41.6298 9.38376 41.4499 9.32085C41.2699 9.25733 41.1304 9.16745 41.0307 9.05121C40.9311 8.93497 40.8616 8.78997 40.8236 8.6174C40.7849 8.44424 40.7656 8.2483 40.7656 8.029V6.23324H39.4261V8.1788C39.4261 8.52453 39.4756 8.83491 39.5753 9.11113C39.6749 9.38676 39.8326 9.62344 40.0476 9.81937ZM47.395 5.9588C47.459 5.809 47.5441 5.69455 47.6504 5.61486C47.7567 5.53457 47.8721 5.48184 47.9971 5.45488C48.1227 5.42852 48.2495 5.41533 48.3781 5.41533H48.595C48.6946 5.41533 48.8021 5.41833 48.9174 5.42492V7.66948H48.3878C47.9959 7.66948 47.7162 7.58139 47.549 7.40523C47.3823 7.22907 47.2989 6.94146 47.2989 6.5424C47.2989 6.30273 47.3309 6.10859 47.395 5.9588ZM46.697 8.27829C46.9187 8.43108 47.179 8.53594 47.4779 8.59226C47.7763 8.64919 48.0897 8.67735 48.4176 8.67735H48.9086C48.8959 8.94279 48.8331 9.13752 48.7208 9.26096C48.6085 9.38379 48.4237 9.44551 48.167 9.44551H46.6155V10.4228H48.196C48.6133 10.4228 48.9569 10.376 49.2269 10.2832C49.4968 10.1897 49.7088 10.0555 49.8628 9.87932C50.0168 9.70316 50.1231 9.48865 50.1811 9.23579C50.2385 8.98293 50.2674 8.69712 50.2674 8.37775V4.4375C50.1775 4.43091 50.0573 4.42252 49.9063 4.41293C49.7553 4.40275 49.5947 4.39436 49.4244 4.38777C49.2541 4.38118 49.0807 4.37459 48.9038 4.368C48.7274 4.3614 48.5716 4.35781 48.4369 4.35781C48.199 4.35781 47.9369 4.38297 47.6512 4.43271C47.3656 4.48244 47.0968 4.5855 46.8462 4.74189C46.5962 4.89828 46.3872 5.12237 46.2199 5.41537C46.0533 5.70778 45.9699 6.09365 45.9699 6.5724C45.9699 7.01101 46.0357 7.36693 46.1674 7.63956C46.2991 7.91279 46.4754 8.1255 46.697 8.27829ZM57.264 1.46491H55.9245V7.66949H54.402V3.20075H53.0625V7.66949H51.328V8.67732H57.264V1.46491ZM54.7297 1.79399H53.8432C53.8105 1.70112 53.79 1.62262 53.7804 1.55971C53.7707 1.4962 53.7659 1.43807 53.7659 1.38535C53.7659 1.21218 53.8172 1.10433 53.9199 1.06059C54.0231 1.01745 54.1421 0.995875 54.2768 0.995875C54.3088 0.995875 54.3571 0.99947 54.4211 1.00606C54.4851 1.01265 54.5334 1.01625 54.5661 1.01625V0.447019C54.5081 0.441027 54.4356 0.435635 54.3492 0.432639C54.2623 0.429044 54.1934 0.427246 54.1421 0.427246C53.7882 0.427246 53.5189 0.50574 53.3322 0.662127C53.1456 0.817916 53.0532 1.02943 53.0532 1.29547C53.0532 1.35539 53.0593 1.4201 53.0719 1.4896C53.0852 1.55971 53.1106 1.66097 53.1493 1.79399H52.735V2.38239H54.7297V1.79399ZM58.6602 8.67732H59.9997V1.46491H58.6602V8.67732Z" fill="white"/>
<path id="Combined Shape_2" fill-rule="evenodd" clip-rule="evenodd" d="M9.05866 19.4427L9.05887 19.4429V19.4427H27.1762L18.1175 10.455L27.1762 1.46729H9.05887H9.05849L9.05868 1.46748L0 10.4551L9.05857 19.4426L9.05849 19.4427H9.05866ZM18.1173 10.455L9.05887 1.46767V19.4423L18.1173 10.455ZM36.2359 10.4551L27.177 19.4429V1.46729L36.2359 10.4551Z" fill="white"/>
</g>
</svg>
