<svg width="60" height="20" viewBox="0 0 60 20" fill="none" xmlns="http://www.w3.org/2000/svg">
<g id="logoBrand">
<path id="Combined Shape" fill-rule="evenodd" clip-rule="evenodd" d="M43.3048 15.0637L42.7021 14.8743C41.6766 14.555 41.1947 14.3956 41.1947 13.8671C41.1947 13.229 41.7775 12.9198 42.3603 12.9198C43.1037 12.9198 43.486 13.2991 43.5458 13.957H45.1238C45.1135 12.3613 43.8978 11.873 42.481 11.873C41.1041 11.873 39.5967 12.4111 39.5967 14.0163C39.5967 15.3129 40.7321 15.7515 41.8777 16.0805L42.4001 16.2303C43.2142 16.4598 43.707 16.6389 43.707 17.1974C43.707 17.9152 42.9835 18.2346 42.3403 18.2346C41.4755 18.2346 41.0238 17.7756 41.0032 17.008H39.4258C39.456 18.7331 40.7423 19.3509 42.3101 19.3509C43.7372 19.3509 45.3352 18.7229 45.3352 17.0775C45.3352 15.881 44.5513 15.4525 43.3048 15.0637ZM48.3004 16.5092L49.5167 13.1292L50.6823 16.5092H48.3004ZM48.6816 12.0124L45.7374 19.2213H47.295L47.9182 17.5663H51.0936L51.7169 19.2213H53.4556L50.4607 12.0124H48.6816ZM56.924 18.1445H55.7681V16.0408H57.0146C57.7581 16.0408 58.3813 16.2403 58.3813 17.0977C58.3813 17.975 57.6578 18.1445 56.924 18.1445ZM55.7681 13.0891H56.8739C57.5068 13.0891 58.1699 13.2886 58.1699 14.0364C58.1699 14.874 57.4664 15.0136 56.7731 15.0136H55.7681V13.0891ZM58.2912 15.4626C59.1457 15.2433 59.7382 14.7645 59.7382 13.837C59.7382 12.8699 59.0751 12.3019 58.1909 12.1023C57.8793 12.0322 57.5574 12.0124 56.7638 12.0124H54.2413V19.2213H57.0954C58.3715 19.2213 59.9997 18.8426 59.9997 17.2074C59.9997 16.1402 59.2762 15.6417 58.2912 15.4626ZM40.0472 9.59769C40.2622 9.79362 40.5418 9.94342 40.8855 10.0465C41.2291 10.1495 41.6482 10.2011 42.1434 10.2011C42.6187 10.2011 43.0252 10.1549 43.3622 10.0615C43.6998 9.96859 43.9758 9.82238 44.1907 9.62286C44.4063 9.42333 44.5634 9.16687 44.663 8.8547C44.7627 8.54192 44.8128 8.16623 44.8128 7.72763V1.24323H43.4733V7.5275C43.4733 7.83368 43.454 8.09313 43.4153 8.30584C43.3767 8.51855 43.3078 8.68992 43.2082 8.81995C43.1085 8.94937 42.9738 9.04404 42.8035 9.10396C42.6332 9.16388 42.4128 9.19384 42.1434 9.19384C41.8608 9.19384 41.6295 9.16208 41.4495 9.09917C41.2696 9.03565 41.1301 8.94577 41.0304 8.82953C40.9308 8.71329 40.8613 8.56829 40.8233 8.39572C40.7846 8.22256 40.7653 8.02662 40.7653 7.80732V6.01156H39.4258V7.95712C39.4258 8.30285 39.4753 8.61323 39.575 8.88945C39.6746 9.16508 39.8322 9.40176 40.0472 9.59769ZM47.3946 5.73712C47.4586 5.58732 47.5438 5.47288 47.6501 5.39318C47.7564 5.31289 47.8717 5.26016 47.9967 5.2332C48.1223 5.20684 48.2492 5.19365 48.3778 5.19365H48.5946C48.6943 5.19365 48.8018 5.19665 48.9171 5.20324V7.4478H48.3875C47.9955 7.4478 47.7159 7.35971 47.5486 7.18355C47.3819 7.00739 47.2986 6.71978 47.2986 6.32072C47.2986 6.08105 47.3306 5.88691 47.3946 5.73712ZM46.6967 8.05661C46.9183 8.2094 47.1786 8.31426 47.4776 8.37058C47.7759 8.42751 48.0894 8.45567 48.4173 8.45567H48.9083C48.8956 8.72111 48.8328 8.91584 48.7205 9.03928C48.6081 9.16211 48.4233 9.22383 48.1667 9.22383H46.6152V10.2011H48.1956C48.613 10.2011 48.9566 10.1544 49.2265 10.0615C49.4965 9.96802 49.7085 9.8338 49.8625 9.65764C50.0165 9.48148 50.1228 9.26697 50.1807 9.01411C50.2381 8.76125 50.2671 8.47544 50.2671 8.15608V4.21582C50.1771 4.20923 50.0569 4.20084 49.906 4.19125C49.755 4.18107 49.5943 4.17268 49.424 4.16609C49.2537 4.1595 49.0804 4.15291 48.9034 4.14632C48.7271 4.13972 48.5713 4.13613 48.4366 4.13613C48.1987 4.13613 47.9366 4.1613 47.6509 4.21103C47.3652 4.26076 47.0965 4.36382 46.8459 4.52021C46.5958 4.6766 46.3869 4.90069 46.2196 5.19369C46.0529 5.4861 45.9696 5.87197 45.9696 6.35072C45.9696 6.78933 46.0354 7.14525 46.1671 7.41788C46.2987 7.69111 46.4751 7.90382 46.6967 8.05661ZM57.2637 1.24323H55.9242V7.44781H54.4017V2.97907H53.0622V7.44781H51.3277V8.45564H57.2637V1.24323ZM54.7294 1.57231H53.8428C53.8102 1.47944 53.7897 1.40094 53.78 1.33803C53.7704 1.27452 53.7655 1.21639 53.7655 1.16367C53.7655 0.990501 53.8169 0.882648 53.9195 0.838907C54.0228 0.795766 54.1418 0.774195 54.2764 0.774195C54.3084 0.774195 54.3568 0.77779 54.4208 0.784381C54.4848 0.790972 54.5331 0.794567 54.5657 0.794567V0.22534C54.5077 0.219348 54.4353 0.213955 54.3489 0.210959C54.2619 0.207364 54.1931 0.205566 54.1418 0.205566C53.7879 0.205566 53.5185 0.28406 53.3319 0.440448C53.1453 0.596236 53.0529 0.807749 53.0529 1.07379C53.0529 1.13371 53.0589 1.19842 53.0716 1.26793C53.0849 1.33803 53.1103 1.43929 53.1489 1.57231H52.7346V2.16071H54.7294V1.57231ZM58.6599 8.45564H59.9994V1.24323H58.6599V8.45564Z" fill="black"/>
<path id="Combined Shape_2" fill-rule="evenodd" clip-rule="evenodd" d="M9.05866 19.2211L9.05887 19.2213V19.2211H27.1762L18.1175 10.2334L27.1762 1.24573H9.05887H9.05849L9.05868 1.24592L0 10.2335L9.05857 19.221L9.05849 19.2211H9.05866ZM18.1173 10.2334L9.05887 1.24611V19.2207L18.1173 10.2334ZM36.2359 10.2335L27.177 19.2213V1.24573L36.2359 10.2335Z" fill="#DB0011"/>
</g>
</svg>
