<svg width="18" height="18" viewBox="0 0 18 18" fill="none" xmlns="http://www.w3.org/2000/svg">
<g id="icon/functional/arrow/right">
<mask id="mask0_81_2073" style="mask-type:alpha" maskUnits="userSpaceOnUse" x="0" y="0" width="18" height="18">
<rect id="Bounding box" width="18" height="18" fill="#D9D9D9"/>
</mask>
<g mask="url(#mask0_81_2073)">
<path id="arrow" d="M11.3899 9L5.60337 3.21347C5.4928 3.10289 5.43823 2.96996 5.43966 2.81466C5.44111 2.65937 5.49713 2.52644 5.6077 2.41586C5.71828 2.30529 5.85121 2.25 6.0065 2.25C6.16178 2.25 6.29471 2.30529 6.40529 2.41586L12.1327 8.14759C12.2539 8.26875 12.3423 8.40385 12.3981 8.55289C12.4539 8.70192 12.4817 8.85096 12.4817 9C12.4817 9.14904 12.4539 9.29808 12.3981 9.44711C12.3423 9.59615 12.2539 9.73125 12.1327 9.85241L6.40098 15.5841C6.2904 15.6947 6.15819 15.7493 6.00434 15.7478C5.85049 15.7464 5.71828 15.6904 5.6077 15.5798C5.49713 15.4692 5.44184 15.3363 5.44184 15.181C5.44184 15.0257 5.49713 14.8928 5.6077 14.7822L11.3899 9Z" fill="black"/>
</g>
</g>
</svg>
