<svg width="24" height="24" viewBox="0 0 24 24" fill="none" xmlns="http://www.w3.org/2000/svg">
<g id="icon/outline/search">
<mask id="mask0_1_13258" style="mask-type:alpha" maskUnits="userSpaceOnUse" x="0" y="0" width="24" height="24">
<rect id="Bounding box" width="24" height="24" fill="#D9D9D9"/>
</mask>
<g mask="url(#mask0_1_13258)">
<path id="search" d="M11 17.5C8.90768 17.5 7.13461 16.7731 5.68078 15.3192C4.22693 13.8654 3.5 12.0923 3.5 10C3.5 7.90768 4.22693 6.13461 5.68078 4.68078C7.13461 3.22693 8.90768 2.5 11 2.5C13.0923 2.5 14.8654 3.22693 16.3192 4.68078C17.7731 6.13461 18.5 7.90768 18.5 10C18.5 10.9846 18.3404 11.8702 18.0212 12.6567C17.7019 13.4433 17.2436 14.2038 16.6462 14.9384L21.5308 19.8231C21.6372 19.9295 21.6872 20.0474 21.6808 20.1769C21.6744 20.3064 21.6244 20.4244 21.5308 20.5308C21.4244 20.6372 21.3032 20.6904 21.1673 20.6904C21.0314 20.6904 20.9102 20.6372 20.8039 20.5308L15.9192 15.6462C15.1846 16.2436 14.4272 16.7019 13.6471 17.0212C12.867 17.3404 11.9846 17.5 11 17.5ZM11 16.5C12.7949 16.5 14.3269 15.8654 15.5962 14.5962C16.8654 13.3269 17.5 11.7949 17.5 10C17.5 8.20513 16.8654 6.67308 15.5962 5.40385C14.3269 4.13462 12.7949 3.5 11 3.5C9.20513 3.5 7.67308 4.13462 6.40385 5.40385C5.13462 6.67308 4.5 8.20513 4.5 10C4.5 11.7949 5.13462 13.3269 6.40385 14.5962C7.67308 15.8654 9.20513 16.5 11 16.5Z" fill="white"/>
</g>
</g>
</svg>
