<svg width="24" height="25" viewBox="0 0 24 25" fill="none" xmlns="http://www.w3.org/2000/svg">
<g id="icon/outline/search">
<mask id="mask0_41_35903" style="mask-type:alpha" maskUnits="userSpaceOnUse" x="0" y="0" width="24" height="25">
<rect id="Bounding box" y="0.778198" width="24" height="24" fill="#D9D9D9"/>
</mask>
<g mask="url(#mask0_41_35903)">
<path id="search" d="M11 18.2782C8.90768 18.2782 7.13461 17.5513 5.68078 16.0974C4.22693 14.6436 3.5 12.8705 3.5 10.7782C3.5 8.68588 4.22693 6.91281 5.68078 5.45897C7.13461 4.00512 8.90768 3.2782 11 3.2782C13.0923 3.2782 14.8654 4.00512 16.3192 5.45897C17.7731 6.91281 18.5 8.68588 18.5 10.7782C18.5 11.7628 18.3404 12.6484 18.0212 13.4349C17.7019 14.2215 17.2436 14.982 16.6462 15.7166L21.5308 20.6013C21.6372 20.7077 21.6872 20.8256 21.6808 20.9551C21.6744 21.0846 21.6244 21.2026 21.5308 21.309C21.4244 21.4154 21.3032 21.4686 21.1673 21.4686C21.0314 21.4686 20.9102 21.4154 20.8039 21.309L15.9192 16.4243C15.1846 17.0218 14.4272 17.4801 13.6471 17.7993C12.867 18.1186 11.9846 18.2782 11 18.2782ZM11 17.2782C12.7949 17.2782 14.3269 16.6436 15.5962 15.3743C16.8654 14.1051 17.5 12.5731 17.5 10.7782C17.5 8.98333 16.8654 7.45128 15.5962 6.18205C14.3269 4.91281 12.7949 4.2782 11 4.2782C9.20513 4.2782 7.67308 4.91281 6.40385 6.18205C5.13462 7.45128 4.5 8.98333 4.5 10.7782C4.5 12.5731 5.13462 14.1051 6.40385 15.3743C7.67308 16.6436 9.20513 17.2782 11 17.2782Z" fill="black"/>
</g>
</g>
</svg>
