<svg width="24" height="25" viewBox="0 0 24 25" fill="none" xmlns="http://www.w3.org/2000/svg">
<g id="icon/outline/share">
<mask id="mask0_225_78" style="mask-type:alpha" maskUnits="userSpaceOnUse" x="0" y="0" width="24" height="25">
<rect id="Bounding box" y="0.77832" width="24" height="24" fill="#D9D9D9"/>
</mask>
<g mask="url(#mask0_225_78)">
<path id="ios_share" d="M6.61537 22.7783C6.15512 22.7783 5.77083 22.6241 5.4625 22.3158C5.15417 22.0075 5 21.6232 5 21.1629V11.3937C5 10.9334 5.15417 10.5491 5.4625 10.2408C5.77083 9.93247 6.15512 9.7783 6.61537 9.7783H8.23077C8.37307 9.7783 8.49198 9.82606 8.5875 9.92158C8.68302 10.0171 8.73077 10.136 8.73077 10.2783C8.73077 10.4206 8.68302 10.5395 8.5875 10.635C8.49198 10.7305 8.37307 10.7783 8.23077 10.7783H6.61537C6.46154 10.7783 6.32052 10.8424 6.1923 10.9706C6.0641 11.0988 6 11.2398 6 11.3937V21.1629C6 21.3168 6.0641 21.4578 6.1923 21.586C6.32052 21.7142 6.46154 21.7783 6.61537 21.7783H17.3846C17.5385 21.7783 17.6795 21.7142 17.8077 21.586C17.9359 21.4578 18 21.3168 18 21.1629V11.3937C18 11.2398 17.9359 11.0988 17.8077 10.9706C17.6795 10.8424 17.5385 10.7783 17.3846 10.7783H15.7692C15.6269 10.7783 15.508 10.7305 15.4125 10.635C15.317 10.5395 15.2692 10.4206 15.2692 10.2783C15.2692 10.136 15.317 10.0171 15.4125 9.92158C15.508 9.82606 15.6269 9.7783 15.7692 9.7783H17.3846C17.8449 9.7783 18.2292 9.93247 18.5375 10.2408C18.8458 10.5491 19 10.9334 19 11.3937V21.1629C19 21.6232 18.8458 22.0075 18.5375 22.3158C18.2292 22.6241 17.8449 22.7783 17.3846 22.7783H6.61537ZM11.5 5.3918L9.75385 7.13793C9.65642 7.23538 9.54168 7.28634 9.40963 7.29082C9.27756 7.29531 9.1564 7.24243 9.04615 7.13218C8.93973 7.02191 8.88557 6.90396 8.88365 6.77832C8.88173 6.65267 8.9359 6.53473 9.04615 6.42448L11.4346 4.036C11.5962 3.87447 11.7846 3.7937 12 3.7937C12.2154 3.7937 12.4038 3.87447 12.5654 4.036L14.9538 6.42448C15.0474 6.51806 15.0974 6.63184 15.1039 6.76583C15.1103 6.89979 15.0603 7.02191 14.9538 7.13218C14.8436 7.24243 14.7247 7.29755 14.5971 7.29755C14.4696 7.29755 14.3506 7.24243 14.2404 7.13218L12.5 5.39178V15.7783C12.5 15.9206 12.4522 16.0395 12.3567 16.135C12.2612 16.2305 12.1423 16.2783 12 16.2783C11.8577 16.2783 11.7388 16.2305 11.6433 16.135C11.5478 16.0395 11.5 15.9206 11.5 15.7783V5.3918Z" fill="white"/>
</g>
</g>
</svg>
