<svg width="52" height="53" viewBox="0 0 52 53" fill="none" xmlns="http://www.w3.org/2000/svg">
<g id="Slices">
<path id="100" d="M26 2.77832C24.7428 2.77832 23.4873 2.87704 22.2455 3.07375C21.0038 3.27046 19.7794 3.56443 18.5836 3.95296" stroke="#FBE5E7" stroke-width="4" stroke-linecap="round"/>
<path id="95" d="M18.5836 3.95288C17.3878 4.34141 16.2245 4.82322 15.1042 5.39415C13.9839 5.9649 12.9104 6.62277 11.8931 7.36179" stroke="#FBE5E7" stroke-width="4" stroke-linecap="round"/>
<path id="90" d="M11.8931 7.36182C10.8759 8.10084 9.91844 8.91865 9.02944 9.80764C8.14045 10.6966 7.32264 11.6543 6.58362 12.6713" stroke="#FBE5E7" stroke-width="4" stroke-linecap="round"/>
<path id="85" d="M6.58359 12.6714C5.84457 13.6886 5.1867 14.7622 4.61577 15.8825C4.04502 17.0028 3.56321 18.166 3.17468 19.3619" stroke="#FBE5E7" stroke-width="4" stroke-linecap="round"/>
<path id="80" d="M3.17464 19.3618C2.78611 20.5577 2.49214 21.7819 2.29543 23.0238C2.09872 24.2656 2 25.5209 2 26.7783" stroke="#FBE5E7" stroke-width="4" stroke-linecap="round"/>
<path id="75" d="M3.17464 34.1948C2.78611 32.9989 2.49214 31.7747 2.29543 30.5328C2.09872 29.291 2 28.0356 2 26.7783" stroke="#FBE5E7" stroke-width="4" stroke-linecap="round"/>
<path id="70" d="M6.58359 40.8851C5.84457 39.8678 5.1867 38.7942 4.61577 37.6739C4.04502 36.5536 3.56321 35.3904 3.17468 34.1946" stroke="#FBE5E7" stroke-width="4" stroke-linecap="round"/>
<path id="65" d="M11.8931 46.1948C10.8759 45.4558 9.91844 44.6379 9.02944 43.749C8.14045 42.86 7.32264 41.9023 6.58362 40.8853" stroke="#FBE5E7" stroke-width="4" stroke-linecap="round"/>
<path id="60" d="M18.5836 49.6037C17.3878 49.2152 16.2245 48.7334 15.1042 48.1625C13.9839 47.5917 12.9104 46.9338 11.8931 46.1948" stroke="#FBE5E7" stroke-width="4" stroke-linecap="round"/>
<path id="55" d="M26 50.7784C24.7428 50.7784 23.4873 50.6797 22.2455 50.483C21.0038 50.2863 19.7794 49.9923 18.5836 49.6038" stroke="#FBE5E7" stroke-width="4" stroke-linecap="round"/>
<path id="50" d="M26 50.7784C27.2572 50.7784 28.5127 50.6797 29.7545 50.483C30.9962 50.2863 32.2206 49.9923 33.4165 49.6038" stroke="#FBE5E7" stroke-width="4" stroke-linecap="round"/>
<path id="45" d="M33.4164 49.6037C34.6123 49.2152 35.7755 48.7334 36.8958 48.1625C38.0161 47.5917 39.0897 46.9338 40.1069 46.1948" stroke="#DB0011" stroke-width="4" stroke-linecap="round"/>
<path id="40" d="M40.1069 46.1948C41.1241 45.4558 42.0816 44.6379 42.9706 43.749C43.8596 42.86 44.6774 41.9023 45.4164 40.8853" stroke="#DB0011" stroke-width="4" stroke-linecap="round"/>
<path id="35" d="M45.4164 40.8851C46.1555 39.8678 46.8133 38.7942 47.3843 37.6739C47.955 36.5536 48.4368 35.3904 48.8253 34.1946" stroke="#DB0011" stroke-width="4" stroke-linecap="round"/>
<path id="30" d="M48.8254 34.1948C49.2139 32.9989 49.5079 31.7747 49.7046 30.5328C49.9013 29.291 50 28.0356 50 26.7783" stroke="#DB0011" stroke-width="4" stroke-linecap="round"/>
<path id="25" d="M48.8254 19.3618C49.2139 20.5577 49.5079 21.7819 49.7046 23.0238C49.9013 24.2656 50 25.5209 50 26.7783" stroke="#DB0011" stroke-width="4" stroke-linecap="round"/>
<path id="20" d="M45.4164 12.6714C46.1555 13.6886 46.8133 14.7622 47.3843 15.8825C47.955 17.0028 48.4368 18.166 48.8253 19.3619" stroke="#DB0011" stroke-width="4" stroke-linecap="round"/>
<path id="15" d="M40.1069 7.36182C41.1241 8.10084 42.0816 8.91865 42.9706 9.80764C43.8596 10.6966 44.6774 11.6543 45.4164 12.6713" stroke="#DB0011" stroke-width="4" stroke-linecap="round"/>
<path id="10" d="M33.4164 3.95288C34.6123 4.34141 35.7755 4.82322 36.8958 5.39415C38.0161 5.9649 39.0897 6.62277 40.1069 7.36179" stroke="#DB0011" stroke-width="4" stroke-linecap="round"/>
<path id="5" d="M26 2.77832C27.2572 2.77832 28.5127 2.87704 29.7545 3.07375C30.9962 3.27046 32.2206 3.56443 33.4165 3.95296" stroke="#DB0011" stroke-width="4" stroke-linecap="round"/>
</g>
</svg>
