<svg width="24" height="25" viewBox="0 0 24 25" fill="none" xmlns="http://www.w3.org/2000/svg">
<g id="icon/outline/split">
<mask id="mask0_459_672" style="mask-type:alpha" maskUnits="userSpaceOnUse" x="0" y="0" width="24" height="25">
<rect id="Bounding box" y="0.778198" width="24" height="24" fill="#D9D9D9"/>
</mask>
<g mask="url(#mask0_459_672)">
<path id="call_split" d="M6 7.4859V10.2782C6 10.4199 5.95202 10.5386 5.85605 10.6344C5.76008 10.7303 5.64118 10.7782 5.49933 10.7782C5.35746 10.7782 5.23878 10.7303 5.14328 10.6344C5.04776 10.5386 5 10.4199 5 10.2782V6.58587C5 6.35704 5.0774 6.16522 5.2322 6.0104C5.38702 5.8556 5.57884 5.7782 5.80768 5.7782H9.5C9.64167 5.7782 9.76042 5.82618 9.85625 5.92215C9.95208 6.0181 10 6.13701 10 6.27887C10 6.42072 9.95208 6.53941 9.85625 6.63492C9.76042 6.73044 9.64167 6.7782 9.5 6.7782H6.7077L12.0212 12.0916C12.166 12.2365 12.2821 12.4091 12.3692 12.6095C12.4564 12.8098 12.5 13.0206 12.5 13.2416V19.2782C12.5 19.4199 12.452 19.5386 12.3561 19.6344C12.2601 19.7303 12.1412 19.7782 11.9993 19.7782C11.8575 19.7782 11.7388 19.7303 11.6433 19.6344C11.5478 19.5386 11.5 19.4199 11.5 19.2782V13.2359C11.5 13.159 11.4872 13.0852 11.4615 13.0147C11.4359 12.9442 11.391 12.8769 11.3269 12.8128L6 7.4859ZM18 7.4859L14.5115 10.9801C14.4141 11.0776 14.2984 11.1295 14.1644 11.1359C14.0305 11.1423 13.9083 11.0904 13.7981 10.9801C13.6878 10.8699 13.6327 10.75 13.6327 10.6205C13.6327 10.491 13.6878 10.3711 13.7981 10.2609L17.2923 6.7782H14.5C14.3583 6.7782 14.2396 6.73022 14.1438 6.63425C14.0479 6.53828 14 6.41937 14 6.27752C14 6.13566 14.0479 6.01697 14.1438 5.92147C14.2396 5.82596 14.3583 5.7782 14.5 5.7782H18.1923C18.4212 5.7782 18.613 5.8556 18.7678 6.0104C18.9226 6.16522 19 6.35704 19 6.58587V10.2782C19 10.4199 18.952 10.5386 18.8561 10.6344C18.7601 10.7303 18.6412 10.7782 18.4993 10.7782C18.3575 10.7782 18.2388 10.7303 18.1433 10.6344C18.0478 10.5386 18 10.4199 18 10.2782V7.4859Z" fill="black"/>
</g>
</g>
</svg>
