<svg width="24" height="25" viewBox="0 0 24 25" fill="none" xmlns="http://www.w3.org/2000/svg">
<g id="icon/filled/success">
<mask id="mask0_72_7408" style="mask-type:alpha" maskUnits="userSpaceOnUse" x="0" y="0" width="24" height="25">
<rect id="Bounding box" y="0.778198" width="24" height="24" fill="#D9D9D9"/>
</mask>
<g mask="url(#mask0_72_7408)">
<path id="check_circle" d="M10.5616 15.2705L8.06537 12.7743C7.97179 12.6808 7.85705 12.6308 7.72115 12.6243C7.58525 12.6179 7.4641 12.6679 7.3577 12.7743C7.25128 12.8808 7.19808 12.9987 7.19808 13.1282C7.19808 13.2577 7.25128 13.3756 7.3577 13.482L9.99615 16.1205C10.1577 16.282 10.3461 16.3628 10.5616 16.3628C10.7769 16.3628 10.9654 16.282 11.1269 16.1205L16.6039 10.6436C16.6974 10.55 16.7474 10.4352 16.7538 10.2993C16.7603 10.1634 16.7103 10.0423 16.6039 9.9359C16.4974 9.82948 16.3795 9.77627 16.25 9.77627C16.1205 9.77627 16.0026 9.82948 15.8962 9.9359L10.5616 15.2705ZM12.0034 21.7782C10.7588 21.7782 9.58872 21.542 8.4931 21.0697C7.39748 20.5974 6.44444 19.9564 5.63397 19.1467C4.82352 18.337 4.18192 17.3848 3.70915 16.2902C3.23638 15.1956 3 14.0261 3 12.7815C3 11.537 3.23616 10.3669 3.70848 9.2713C4.18081 8.17568 4.82183 7.22264 5.63153 6.41217C6.44123 5.60172 7.39337 4.96012 8.48795 4.48735C9.58255 4.01458 10.7521 3.7782 11.9966 3.7782C13.2412 3.7782 14.4113 4.01436 15.5069 4.48667C16.6025 4.95901 17.5556 5.60002 18.366 6.40972C19.1765 7.21942 19.8181 8.17157 20.2908 9.26615C20.7636 10.3607 21 11.5303 21 12.7748C21 14.0194 20.7638 15.1895 20.2915 16.2851C19.8192 17.3807 19.1782 18.3338 18.3685 19.1442C17.5588 19.9547 16.6066 20.5963 15.512 21.069C14.4174 21.5418 13.2479 21.7782 12.0034 21.7782Z" fill="#00847F"/>
</g>
</g>
</svg>
