<svg width="24" height="25" viewBox="0 0 24 25" fill="none" xmlns="http://www.w3.org/2000/svg">
<g id="icon/outline/info">
<mask id="mask0_1_4403" style="mask-type:alpha" maskUnits="userSpaceOnUse" x="0" y="0" width="24" height="25">
<rect id="Bounding box" y="0.779175" width="24" height="24" fill="#D9D9D9"/>
</mask>
<g mask="url(#mask0_1_4403)">
<path id="info" d="M12.0007 17.2792C12.1425 17.2792 12.2612 17.2313 12.3567 17.1354C12.4522 17.0396 12.5 16.9208 12.5 16.7792V12.2792C12.5 12.1375 12.452 12.0188 12.3561 11.9229C12.2601 11.8271 12.1412 11.7792 11.9993 11.7792C11.8575 11.7792 11.7388 11.8271 11.6433 11.9229C11.5478 12.0188 11.5 12.1375 11.5 12.2792V16.7792C11.5 16.9208 11.548 17.0396 11.644 17.1354C11.7399 17.2313 11.8588 17.2792 12.0007 17.2792ZM12 10.3561C12.1744 10.3561 12.3205 10.2971 12.4385 10.1792C12.5564 10.0612 12.6154 9.91507 12.6154 9.7407C12.6154 9.56635 12.5564 9.4202 12.4385 9.30225C12.3205 9.1843 12.1744 9.12533 12 9.12533C11.8256 9.12533 11.6795 9.1843 11.5615 9.30225C11.4436 9.4202 11.3846 9.56635 11.3846 9.7407C11.3846 9.91507 11.4436 10.0612 11.5615 10.1792C11.6795 10.2971 11.8256 10.3561 12 10.3561ZM12.0034 21.7792C10.7588 21.7792 9.58872 21.543 8.4931 21.0707C7.39748 20.5984 6.44444 19.9574 5.63397 19.1477C4.82352 18.338 4.18192 17.3858 3.70915 16.2912C3.23638 15.1966 3 14.0271 3 12.7825C3 11.538 3.23616 10.3679 3.70848 9.27227C4.18081 8.17666 4.82183 7.22362 5.63153 6.41315C6.44123 5.6027 7.39337 4.96109 8.48795 4.48833C9.58255 4.01556 10.7521 3.77917 11.9966 3.77917C13.2412 3.77917 14.4113 4.01533 15.5069 4.48765C16.6025 4.95998 17.5556 5.601 18.366 6.4107C19.1765 7.2204 19.8181 8.17254 20.2908 9.26713C20.7636 10.3617 21 11.5313 21 12.7758C21 14.0204 20.7638 15.1905 20.2915 16.2861C19.8192 17.3817 19.1782 18.3347 18.3685 19.1452C17.5588 19.9557 16.6066 20.5973 15.512 21.07C14.4174 21.5428 13.2479 21.7792 12.0034 21.7792ZM12 20.7792C14.2333 20.7792 16.125 20.0042 17.675 18.4542C19.225 16.9042 20 15.0125 20 12.7792C20 10.5458 19.225 8.65417 17.675 7.10417C16.125 5.55417 14.2333 4.77917 12 4.77917C9.76667 4.77917 7.875 5.55417 6.325 7.10417C4.775 8.65417 4 10.5458 4 12.7792C4 15.0125 4.775 16.9042 6.325 18.4542C7.875 20.0042 9.76667 20.7792 12 20.7792Z" fill="#DB0011"/>
</g>
</g>
</svg>
