<svg width="24" height="25" viewBox="0 0 24 25" fill="none" xmlns="http://www.w3.org/2000/svg">
<g id="icon/outline/tick">
<mask id="mask0_73_373" style="mask-type:alpha" maskUnits="userSpaceOnUse" x="0" y="0" width="24" height="25">
<rect id="Bounding box" y="0.77832" width="24" height="24" fill="#D9D9D9"/>
</mask>
<g mask="url(#mask0_73_373)">
<path id="check" d="M9.55003 16.6592L18.352 7.85723C18.4494 7.7598 18.5651 7.70787 18.6991 7.70146C18.833 7.69504 18.9552 7.74697 19.0654 7.85723C19.1757 7.96748 19.2308 8.08639 19.2308 8.21396C19.2308 8.34152 19.1757 8.46043 19.0654 8.57068L10.1154 17.5207C9.95387 17.6822 9.76542 17.763 9.55003 17.763C9.33465 17.763 9.14619 17.6822 8.98466 17.5207L4.93466 13.4707C4.83721 13.3732 4.78624 13.2575 4.78176 13.1236C4.77727 12.9896 4.83016 12.8675 4.94041 12.7572C5.05067 12.647 5.16959 12.5918 5.29716 12.5918C5.42472 12.5918 5.54363 12.647 5.65388 12.7572L9.55003 16.6592Z" fill="#FFFFFF"/>
</g>
</g>
</svg>
