<svg width="24" height="24" viewBox="0 0 24 24" fill="none" xmlns="http://www.w3.org/2000/svg">
    <mask id="kiyjweqm1a" style="mask-type:alpha" maskUnits="userSpaceOnUse" x="0" y="0" width="24" height="24">
        <path fill="#D9D9D9" d="M0 0h24v24H0z"/>
    </mask>
    <g mask="url(#kiyjweqm1a)">
        <path d="m5.92 16.192 1.747 1.747a.5.5 0 0 1 .15.34.481.481 0 0 1-.16.372.483.483 0 0 1-.35.155.49.49 0 0 1-.353-.16l-2.382-2.381a.803.803 0 0 1-.19-.277.832.832 0 0 1-.053-.298c0-.106.017-.205.052-.296a.811.811 0 0 1 .19-.274l2.383-2.381a.5.5 0 0 1 .707-.005c.11.113.166.234.166.361a.499.499 0 0 1-.166.357l-1.74 1.74h5.79c.142 0 .26.048.357.144a.484.484 0 0 1 .143.357c0 .142-.048.26-.143.356a.484.484 0 0 1-.357.143h-5.79zm8.889.097a.58.58 0 0 1-.426-.172.574.574 0 0 1-.172-.424c0-.168.057-.31.171-.425a.574.574 0 0 1 .424-.172.58.58 0 0 1 .426.171.574.574 0 0 1 .172.424.58.58 0 0 1-.171.425.574.574 0 0 1-.425.173zm3.192 0a.58.58 0 0 1-.425-.172.574.574 0 0 1-.172-.424c0-.168.057-.31.17-.425a.574.574 0 0 1 .425-.172c.168 0 .31.057.425.171a.574.574 0 0 1 .172.424.58.58 0 0 1-.171.425.574.574 0 0 1-.424.173zm.097-7.481h-5.81a.483.483 0 0 1-.356-.144.485.485 0 0 1-.144-.357c0-.142.048-.26.144-.356a.485.485 0 0 1 .356-.143h5.79l-1.745-1.746a.5.5 0 0 1-.15-.342.481.481 0 0 1 .16-.37.483.483 0 0 1 .35-.156.49.49 0 0 1 .353.16l2.382 2.382a.801.801 0 0 1 .19.276.83.83 0 0 1 .053.298.81.81 0 0 1-.053.296.784.784 0 0 1-.184.267l-2.407 2.408a.452.452 0 0 1-.34.14.487.487 0 0 1-.349-.14.43.43 0 0 1-.155-.357.52.52 0 0 1 .155-.357l1.76-1.76zM6 8.904a.58.58 0 0 1-.425-.171.574.574 0 0 1-.172-.424.58.58 0 0 1 .17-.425A.574.574 0 0 1 6 7.712a.58.58 0 0 1 .425.17.574.574 0 0 1 .172.425.58.58 0 0 1-.171.425.574.574 0 0 1-.424.172zm3.192 0a.58.58 0 0 1-.425-.171.574.574 0 0 1-.172-.424.58.58 0 0 1 .171-.425.574.574 0 0 1 .424-.172.58.58 0 0 1 .425.17.574.574 0 0 1 .172.425.58.58 0 0 1-.17.425.574.574 0 0 1-.425.172z" fill=""/>
    </g>
</svg>
