<svg width="69" height="69" viewBox="0 0 69 69" fill="none" xmlns="http://www.w3.org/2000/svg">
<g id="icon/filled/warning">
<mask id="mask0_2473_432" style="mask-type:alpha" maskUnits="userSpaceOnUse" x="-6" y="-6" width="81" height="81">
<rect id="Bounding box" x="-5.5" y="-5.2218" width="80" height="80" fill="#D9D9D9"/>
</mask>
<g mask="url(#mask0_2473_432)">
<path id="error" d="M34.5 49.65C35.0812 49.65 35.5684 49.4534 35.9616 49.0603C36.3547 48.6671 36.5512 48.1799 36.5512 47.5987C36.5512 47.0175 36.3547 46.5304 35.9616 46.1372C35.5684 45.744 35.0812 45.5474 34.5 45.5474C33.9188 45.5474 33.4316 45.744 33.0384 46.1372C32.6453 46.5304 32.4488 47.0175 32.4488 47.5987C32.4488 48.1799 32.6453 48.6671 33.0384 49.0603C33.4316 49.4534 33.9188 49.65 34.5 49.65ZM34.5023 38.6244C34.9751 38.6244 35.3708 38.4646 35.6891 38.1452C36.0075 37.8258 36.1667 37.4299 36.1667 36.9577V20.291C36.1667 19.8188 36.0067 19.423 35.6868 19.1035C35.367 18.7841 34.9706 18.6244 34.4977 18.6244C34.0249 18.6244 33.6292 18.7841 33.3109 19.1035C32.9925 19.423 32.8333 19.8188 32.8333 20.291V36.9577C32.8333 37.4299 32.9933 37.8258 33.3132 38.1452C33.633 38.4646 34.0294 38.6244 34.5023 38.6244ZM34.5112 64.7782C30.3627 64.7782 26.4624 63.991 22.8103 62.4166C19.1583 60.8422 15.9815 58.7054 13.2799 56.0065C10.5784 53.3074 8.43972 50.1336 6.86383 46.485C5.28794 42.8364 4.5 38.9378 4.5 34.7894C4.5 30.6409 5.28719 26.7406 6.86158 23.0885C8.43603 19.4365 10.5728 16.2597 13.2717 13.5581C15.9707 10.8566 19.1446 8.71792 22.7932 7.14203C26.4418 5.56615 30.3404 4.7782 34.4888 4.7782C38.6373 4.7782 42.5376 5.56539 46.1897 7.13978C49.8417 8.71423 53.0185 10.8509 55.7201 13.5499C58.4216 16.2489 60.5603 19.4228 62.1362 23.0714C63.7121 26.72 64.5 30.6186 64.5 34.767C64.5 38.9155 63.7128 42.8158 62.1384 46.4679C60.564 50.1199 58.4272 53.2967 55.7283 55.9983C53.0293 58.6998 49.8554 60.8385 46.2068 62.4144C42.5582 63.9903 38.6596 64.7782 34.5112 64.7782Z" fill="#FFBB33"/>
</g>
</g>
</svg>
