<svg width="24" height="24" viewBox="0 0 24 24" fill="none" xmlns="http://www.w3.org/2000/svg">
<g id="icon/chevron/right">
<mask id="mask0_215_282" style="mask-type:alpha" maskUnits="userSpaceOnUse" x="0" y="0" width="24" height="24">
<rect id="Bounding box" width="24" height="24" fill="#D9D9D9"/>
</mask>
<g mask="url(#mask0_215_282)">
<path id="chevron_right" d="M13.2923 12L9.04616 7.75385C8.95258 7.66026 8.90258 7.54552 8.89616 7.40962C8.88974 7.27372 8.93974 7.15256 9.04616 7.04615C9.15258 6.93973 9.27053 6.88652 9.40001 6.88652C9.52949 6.88652 9.64744 6.93973 9.75386 7.04615L14.1423 11.4346C14.2295 11.5218 14.2907 11.6109 14.326 11.7019C14.3612 11.7929 14.3789 11.8923 14.3789 12C14.3789 12.1077 14.3612 12.2071 14.326 12.2981C14.2907 12.3891 14.2295 12.4782 14.1423 12.5654L9.75386 16.9538C9.66028 17.0474 9.54554 17.0974 9.40964 17.1038C9.27374 17.1103 9.15258 17.0603 9.04616 16.9538C8.93974 16.8474 8.88654 16.7295 8.88654 16.6C8.88654 16.4705 8.93974 16.3526 9.04616 16.2461L13.2923 12Z" fill="white"/>
</g>
</g>
</svg>
