<svg width="49" height="20" viewBox="0 0 49 20" fill="none" xmlns="http://www.w3.org/2000/svg">
<g id="zakatiLogo">
<path id="Rectangle 12" d="M24.6621 4C24.6621 2.34315 26.0053 1 27.6621 1V15H24.6621V4Z" fill="#DB0011"/>
<path id="Rectangle 18" d="M19.6621 7.5C19.6621 5.84315 21.0053 4.5 22.6621 4.5V15H19.6621L19.6621 7.5Z" fill="#DB0011"/>
<path id="Rectangle 16" d="M45.6621 6.5C45.6621 4.84315 47.0053 3.5 48.6621 3.5V11.6745C48.6621 13.7433 47.5964 15.6661 45.8421 16.7625L45.1402 17.2012C44.9891 17.2956 44.8053 17.142 44.8715 16.9765L45.3215 15.8515C45.5465 15.289 45.6621 14.6887 45.6621 14.0829V6.5Z" fill="#DB0011"/>
<path id="Rectangle 26" d="M3.66211 15L0.662109 15L0.66211 6.82548C0.66211 4.75674 1.72783 2.83393 3.48212 1.7375L4.18403 1.2988C4.3351 1.20438 4.51889 1.35804 4.45273 1.52345C3.93045 2.82915 3.66211 4.22252 3.66211 5.62881L3.66211 15Z" fill="#DB0011"/>
<path id="Rectangle 14" d="M43.6621 10C43.6621 8.34315 42.319 7 40.6621 7V15C42.319 15 43.6621 13.6569 43.6621 12V10Z" fill="#DB0011"/>
<path id="Rectangle 13" d="M27.6621 15C26.0053 15 24.6621 13.6569 24.6621 12L40.6621 12L40.6621 15L27.6621 15Z" fill="#DB0011"/>
<path id="Rectangle 21" d="M15.6621 15C14.0053 15 12.6621 13.6569 12.6621 12L20.6621 12L20.6621 15L15.6621 15Z" fill="#DB0011"/>
<path id="Rectangle 25" d="M3.66211 15C2.00525 15 0.662109 13.6569 0.662109 12L8.66211 12L8.66211 15L3.66211 15Z" fill="#DB0011"/>
<path id="Rectangle 15" d="M32.6621 10C31.0053 10 29.6621 8.65685 29.6621 7L40.6621 7L40.6621 10L32.6621 10Z" fill="#DB0011"/>
<path id="Rectangle 23" d="M15.6621 15L12.6621 15L12.6621 4L15.6621 4L15.6621 15Z" fill="#DB0011"/>
<path id="Rectangle 24" d="M11.6621 15L8.66211 15L8.66211 11.7273L8.66211 9L11.6621 9L11.6621 11.1818L11.6621 11.7273L11.6621 15Z" fill="#DB0011"/>
<path id="Vector 1 (Stroke)" fill-rule="evenodd" clip-rule="evenodd" d="M32.9108 4.91596C32.7842 5.14389 32.6621 6.08589 32.6621 7H29.6621C29.6621 5.91411 29.79 4.35611 30.2883 3.45904C30.8267 2.48998 31.6772 1.91382 32.6877 1.57697C33.6428 1.25864 34.8147 1.12794 36.1532 1.0642C37.5015 0.999996 39.1558 0.999998 41.127 1H41.1621C41.1621 2.65685 39.8188 3.99061 38.1621 4.01086C37.4726 4.01928 36.8538 4.03424 36.2959 4.0608C35.0095 4.12206 34.1814 4.24136 33.6364 4.42302C33.147 4.58618 32.9975 4.76002 32.9108 4.91596Z" fill="#DB0011"/>
<path id="Rectangle 19" d="M17.9274 0.51947C18.0734 0.435181 18.252 0.430134 18.4026 0.506046L19.1212 0.868483C19.2989 0.958082 19.4065 1.14449 19.3953 1.34315L19.3498 2.14674C19.3403 2.31505 19.2466 2.46723 19.1006 2.55152L18.9015 2.66645L18.7089 2.77768C18.5594 2.86399 18.376 2.86709 18.2236 2.78587L17.5237 2.41264C17.3554 2.3229 17.2528 2.14521 17.2592 1.95458L17.286 1.16178C17.2918 0.989256 17.3862 0.831941 17.5357 0.745632L17.7283 0.634399L17.9274 0.51947Z" fill="#DB0011"/>
<path id="Rectangle 20" d="M20.9274 0.51947C21.0734 0.435181 21.252 0.430134 21.4026 0.506046L22.1212 0.868483C22.2989 0.958082 22.4065 1.14449 22.3953 1.34315L22.3498 2.14674C22.3403 2.31505 22.2466 2.46723 22.1006 2.55152L21.9015 2.66645L21.7089 2.77768C21.5594 2.86399 21.376 2.86709 21.2236 2.78587L20.5237 2.41264C20.3554 2.3229 20.2528 2.14521 20.2592 1.95458L20.286 1.16178C20.2918 0.989256 20.3862 0.831941 20.5357 0.745632L20.7283 0.634399L20.9274 0.51947Z" fill="#DB0011"/>
<path id="Rectangle 33" d="M46.9274 0.51947C47.0734 0.435181 47.252 0.430134 47.4026 0.506046L48.1212 0.868483C48.2989 0.958082 48.4065 1.14449 48.3953 1.34315L48.3498 2.14674C48.3403 2.31505 48.2466 2.46723 48.1006 2.55152L47.9015 2.66645L47.7089 2.77768C47.5594 2.86399 47.376 2.86709 47.2236 2.78587L46.5237 2.41264C46.3554 2.3229 46.2528 2.14521 46.2592 1.95458L46.286 1.16178C46.2918 0.989256 46.3862 0.831941 46.5357 0.745632L46.7283 0.634399L46.9274 0.51947Z" fill="#DB0011"/>
<path id="Rectangle 31" d="M3.9274 16.5195C4.07339 16.4352 4.25203 16.4301 4.40255 16.506L5.1212 16.8685C5.29886 16.9581 5.40649 17.1445 5.39525 17.3432L5.34981 18.1467C5.34029 18.315 5.2466 18.4672 5.1006 18.5515L4.90154 18.6664L4.70888 18.7777C4.55939 18.864 4.37595 18.8671 4.22363 18.7859L3.52367 18.4126C3.35535 18.3229 3.25277 18.1452 3.2592 17.9546L3.28596 17.1618C3.29178 16.9893 3.38618 16.8319 3.53568 16.7456L3.72834 16.6344L3.9274 16.5195Z" fill="#DB0011"/>
<path id="Rectangle 32" d="M6.9274 16.5195C7.07339 16.4352 7.25203 16.4301 7.40255 16.506L8.1212 16.8685C8.29886 16.9581 8.40649 17.1445 8.39525 17.3432L8.34981 18.1467C8.34029 18.315 8.2466 18.4672 8.1006 18.5515L7.90154 18.6664L7.70888 18.7777C7.55939 18.864 7.37595 18.8671 7.22363 18.7859L6.52367 18.4126C6.35535 18.3229 6.25277 18.1452 6.2592 17.9546L6.28596 17.1618C6.29178 16.9893 6.38618 16.8319 6.53568 16.7456L6.72834 16.6344L6.9274 16.5195Z" fill="#DB0011"/>
<path id="Vector 2 (Stroke)" fill-rule="evenodd" clip-rule="evenodd" d="M11.8884 7.47141C11.6974 7.91218 11.6621 8.51016 11.6621 9H8.66211C8.66211 8.48984 8.67678 7.33782 9.13578 6.27859C9.37589 5.72447 9.76195 5.13621 10.3819 4.68936C11.0148 4.23324 11.7872 4 12.6621 4V7C12.337 7 12.1969 7.07926 12.136 7.12314C12.0623 7.17629 11.9733 7.27553 11.8884 7.47141Z" fill="#DB0011"/>
</g>
</svg>
